P2
# This is an example of a PGM file
4 4
255
0 16 32 48
16 32 48 64
32 48 64 80
48 64 80 96