P2
# This is an example of a PGM file
4 4
255
0 64 128 255
64 64 128 255
128 128 128 255
255 255 255 255
