P2
# This is a PGM file
5 5
255
255 255 255 255 255
255 100 100 100 255
255 100 255 100 255
255 100 100 100 255
255 255 255 255 255
