P1
# This is an example of a PBM file
4 4
0 1 0 1
1 0 1 0
0 1 0 1
1 0 1 0