P2
5 5
65535
61569 48710 45517 30302 11828
34695 41470 17512 17780 12436
57263 39000 7593 29624 15487
19569 70 39466 6249 22853
21134 55822 22732 53199 59387
