P3
5 5
255
162 112 188 157 196 95 250 108 253 247 101 231 206 38 76 
70 182 237 103 150 207 76 136 163 159 205 74 18 240 178 
125 16 208 75 78 254 122 255 24 80 35 184 141 193 140 
32 128 43 171 184 49 63 203 61 105 157 56 91 151 207 
185 22 38 34 34 86 41 141 233 92 98 207 96 169 203 
