P3
3 2
255
100 0 0 0 150 0 0 0 200
0 100 0 0 150 0 0 200 0