P1
# Lossless binary image
3 3
0 1 0
1 0 1
0 1 0
