P2
100 100
255
150 20 238 99 92 210 254 57 210 38 21 28 242 98 154 19 93 197 166 151 87 219 175 49 78 6 205 162 146 139 48 190 236 15 97 166 42 44 171 170 23 252 61 80 18 249 0 182 62 120 54 231 79 167 177 0 129 210 24 220 155 117 59 151 60 203 176 19 181 94 74 89 124 34 193 207 10 19 143 97 99 215 0 113 229 171 145 161 78 167 159 127 36 218 132 137 68 226 166 57
69 238 230 121 119 55 189 207 240 57 209 228 214 219 169 233 209 11 25 132 78 229 225 112 45 125 228 45 227 113 32 148 25 165 195 49 93 115 211 43 33 96 152 43 137 171 176 52 73 197 8 89 110 95 36 167 73 46 60 190 49 191 15 136 55 119 14 158 5 224 71 43 43 231 117 151 68 48 232 57 206 254 51 228 117 48 45 130 61 207 36 229 108 157 114 8 222 25 229 231
90 146 3 145 49 64 146 57 36 164 102 55 59 165 67 231 195 243 122 181 23 236 10 133 156 179 247 63 90 69 131 159 63 188 158 102 9 165 249 29 217 35 147 3 123 83 252 44 105 234 174 21 30 82 82 43 44 75 214 143 51 87 4 224 42 195 228 160 113 92 122 63 249 22 155 102 18 81 100 197 230 42 47 35 30 37 65 10 21 25 146 166 188 68 35 100 174 145 29 150
177 68 167 154 88 28 192 25 243 68 41 168 176 232 182 147 194 210 251 33 42 57 18 68 222 98 108 212 87 103 103 195 39 244 250 114 224 210 244 199 209 128 228 26 47 37 38 221 85 118 48 221 135 149 29 47 213 31 229 243 146 68 188 84 191 193 83 74 114 34 151 176 218 139 217 90 124 215 104 112 41 93 183 111 203 110 66 76 183 166 236 72 22 14 43 162 192 73 134 29
105 8 239 77 127 32 13 9 237 42 132 121 180 254 178 124 244 9 148 36 235 160 70 135 125 11 165 241 159 240 223 209 137 148 40 217 19 31 186 225 71 136 89 244 135 182 64 238 59 14 32 41 131 57 106 237 9 0 3 17 134 140 77 209 137 120 103 44 87 191 62 107 161 224 212 207 255 57 38 156 84 101 40 91 223 95 152 175 136 13 235 58 27 118 225 206 62 69 53 244
169 8 142 203 3 184 197 6 239 72 164 233 112 170 46 212 43 122 43 71 95 183 166 207 99 238 64 121 25 195 123 30 196 163 106 187 28 172 65 10 177 204 128 239 161 206 126 206 82 21 234 75 18 46 194 62 228 121 2 72 155 86 247 154 216 243 142 148 98 106 83 4 129 242 92 51 215 58 249 5 164 224 73 177 240 80 195 76 128 65 9 115 172 45 206 37 102 212 23 190
90 77 157 161 252 152 140 32 137 182 20 253 148 234 55 246 90 196 134 45 32 61 107 191 124 70 163 142 3 91 63 26 211 160 135 42 220 48 2 59 143 34 154 210 28 184 52 123 8 132 97 157 193 82 139 220 229 190 215 20 209 19 209 79 253 203 30 85 199 254 26 150 105 110 182 157 8 214 220 227 53 154 170 200 115 14 178 180 18 182 169 47 53 243 236 123 221 48 253 99
137 10 210 134 168 161 12 236 152 129 83 215 66 35 125 123 53 117 252 18 97 140 121 168 71 216 235 139 205 8 2 220 45 7 231 128 20 108 169 252 23 51 176 144 118 107 41 71 159 108 228 223 180 198 253 5 55 88 118 31 242 223 145 99 255 214 62 140 221 31 201 99 47 191 117 252 176 188 149 226 229 121 174 62 33 183 176 236 99 13 20 130 128 127 38 14 14 167 38 177
124 240 78 118 122 163 45 93 247 178 20 82 249 167 252 160 54 180 18 251 126 206 255 111 138 88 150 206 63 98 204 100 249 130 232 35 223 67 241 62 25 23 242 33 43 204 187 90 234 205 127 234 140 76 77 240 130 202 77 60 127 108 88 35 103 145 208 187 113 230 157 210 184 147 36 220 214 229 174 13 3 215 172 128 238 255 236 198 71 94 176 216 8 81 68 220 164 224 138 193
65 64 66 112 61 161 159 89 105 159 132 85 174 159 160 62 205 167 91 191 85 130 103 212 114 240 162 0 222 25 128 21 116 211 175 126 121 217 107 88 193 222 61 108 80 189 67 241 189 60 22 99 79 69 16 90 130 206 187 160 248 220 111 25 137 24 148 62 242 200 157 161 246 85 51 64 250 139 4 221 5 124 254 196 34 210 238 57 194 111 255 138 208 186 62 14 79 174 205 151
222 86 186 20 240 79 249 75 176 237 167 80 122 121 253 255 76 194 197 238 192 65 189 251 121 169 25 205 38 243 150 32 11 167 154 117 244 159 101 98 173 226 174 157 150 36 124 224 142 85 210 92 8 142 67 244 114 246 20 232 188 196 8 45 84 95 218 228 21 188 30 131 219 172 43 237 52 45 92 57 179 230 233 254 73 3 32 210 109 111 22 17 93 241 151 100 137 83 187 196
124 241 73 69 145 119 121 33 57 98 110 22 148 70 235 162 91 152 129 205 93 152 100 111 130 81 87 201 44 250 187 37 199 200 117 114 201 52 165 179 148 140 142 81 250 102 213 204 201 224 193 71 74 170 194 31 93 250 130 172 81 122 170 54 33 49 194 186 107 190 156 4 146 62 193 38 40 29 59 138 161 190 216 73 111 95 145 47 14 226 180 187 74 201 78 236 76 5 23 147
182 78 72 227 100 161 185 118 139 166 17 174 65 214 191 89 29 141 126 113 89 83 17 61 213 157 93 100 134 45 111 214 97 24 54 123 175 101 9 247 252 102 116 219 153 127 92 150 132 201 254 36 60 12 188 122 236 26 87 9 72 98 64 58 123 109 91 250 47 56 122 108 59 164 141 2 11 129 249 248 54 95 162 58 178 128 171 87 162 116 93 251 56 16 54 144 192 124 173 39
12 171 208 55 148 61 104 108 103 204 131 132 227 233 223 7 98 140 117 217 228 66 188 5 29 77 167 33 48 157 45 75 211 68 106 18 95 67 136 180 2 81 188 167 231 71 235 86 149 196 140 151 84 187 223 144 162 166 63 161 115 42 55 176 192 7 150 36 81 192 28 3 189 166 244 21 240 119 74 237 117 212 146 9 108 156 249 31 130 46 7 167 188 153 67 38 214 61 67 132
147 102 87 109 130 216 198 178 117 82 137 135 123 106 126 147 200 22 112 157 92 11 162 157 36 57 103 138 188 177 85 253 208 9 153 146 209 63 4 185 115 49 53 42 110 236 68 233 18 235 252 158 192 224 172 28 26 117 134 119 121 183 88 131 144 70 30 42 30 225 178 56 102 210 40 132 151 227 211 201 237 58 78 219 157 49 200 229 106 149 132 129 56 25 80 48 235 239 144 150
78 115 98 128 93 57 198 180 163 23 236 97 244 4 4 168 11 144 228 241 189 118 74 4 80 146 64 222 128 95 175 56 176 51 226 63 190 84 31 36 29 87 251 31 96 249 140 236 166 170 138 163 114 203 236 226 207 70 217 115 4 147 50 225 192 49 19 253 65 118 10 203 231 176 0 118 239 70 222 53 184 224 89 225 216 76 97 89 200 199 87 132 53 208 255 184 98 73 135 226
26 83 207 62 142 173 69 10 61 55 16 192 28 10 87 191 198 51 221 89 121 185 162 174 186 178 154 147 96 52 77 110 178 10 178 63 25 247 32 84 112 47 56 178 136 35 49 111 78 245 88 29 170 60 189 253 61 253 148 48 109 11 8 139 163 245 75 184 83 162 62 251 196 116 253 205 86 138 143 26 233 31 212 237 85 206 93 164 66 97 249 42 144 175 255 128 92 137 238 51
67 134 84 120 185 12 111 230 154 98 33 171 182 150 60 47 166 225 150 189 238 178 156 139 175 214 255 136 2 183 47 7 58 48 146 110 73 39 71 204 236 101 209 205 184 87 138 250 4 218 232 45 66 128 132 100 248 183 170 193 211 60 198 59 17 228 94 149 98 49 72 250 82 253 78 40 124 23 217 59 154 234 221 245 58 21 209 128 7 147 30 218 79 108 135 191 78 185 37 109
75 74 34 155 55 136 73 100 108 98 247 189 87 174 79 50 146 248 151 106 55 114 190 206 218 243 97 102 139 93 152 48 53 224 158 195 110 118 103 164 36 200 241 64 2 167 198 21 9 18 97 202 171 237 22 251 150 218 136 87 249 144 7 253 110 52 144 37 236 177 28 51 234 184 69 145 54 63 89 75 79 59 191 140 241 2 32 220 69 90 198 14 91 133 77 91 232 54 247 111
98 175 107 106 186 244 132 250 186 6 189 80 154 132 158 82 228 187 24 65 137 79 111 32 98 244 7 138 195 142 110 250 55 224 211 128 7 91 219 190 59 148 116 1 126 93 99 77 71 59 183 60 136 142 79 1 207 51 143 205 131 244 87 153 193 0 37 246 133 227 147 29 194 46 17 1 4 84 14 67 207 111 98 220 23 47 159 175 22 242 207 182 95 168 169 137 141 32 177 243
40 87 253 6 31 105 252 114 166 244 51 29 98 72 102 149 81 100 37 147 58 192 232 138 248 49 110 157 26 107 96 113 123 194 211 62 20 250 194 61 18 51 150 202 214 79 127 113 113 204 32 235 236 37 14 86 134 50 28 161 184 155 241 45 219 216 120 13 217 115 156 34 140 63 237 94 207 220 209 239 210 186 11 238 92 21 242 68 221 113 79 177 187 185 53 242 84 0 178 86
105 199 12 248 83 200 251 192 177 69 254 11 2 29 8 242 66 30 137 148 68 31 29 77 17 157 145 24 249 73 147 193 46 190 253 251 56 44 142 246 117 77 11 61 135 7 80 255 42 18 203 246 100 90 61 226 123 185 13 150 33 167 29 51 161 132 80 165 211 251 149 189 15 11 175 38 234 165 68 167 185 116 46 59 195 21 234 153 202 124 90 232 150 91 109 200 13 77 244 16
133 20 162 206 48 182 165 146 77 43 168 246 220 93 35 229 37 100 36 202 25 106 112 244 234 213 206 240 227 7 249 254 179 35 155 199 87 198 20 168 226 19 120 32 171 154 36 19 121 248 13 182 20 202 182 15 152 82 96 73 77 168 22 195 222 194 167 79 120 119 98 96 66 193 106 81 75 20 219 155 141 224 179 234 123 148 145 100 121 35 32 215 25 159 65 245 42 33 227 115
96 46 245 18 33 150 157 153 172 233 29 33 17 7 150 17 63 27 137 19 201 61 205 113 66 114 27 191 252 43 48 157 34 181 201 120 169 10 159 105 143 197 13 142 14 164 175 111 100 8 86 111 168 167 185 179 223 22 0 227 104 103 13 128 148 223 136 115 238 228 64 168 232 240 112 254 251 192 1 222 215 200 194 213 205 97 62 224 37 79 178 129 195 221 223 103 96 225 247 52
72 25 196 174 122 2 167 182 151 217 225 220 228 21 102 171 207 37 227 225 148 108 66 99 102 216 85 63 16 73 86 84 230 195 132 60 75 92 88 250 133 77 81 156 204 248 132 220 146 248 160 227 38 38 3 88 80 248 80 175 87 20 124 37 115 213 56 11 193 102 82 131 217 144 226 39 202 113 207 42 195 103 228 131 19 185 237 222 44 180 204 243 92 245 65 63 225 23 147 226
213 112 251 187 135 180 108 250 35 76 111 173 132 184 189 145 218 156 38 53 204 171 212 183 242 4 108 129 189 70 97 248 149 70 123 213 166 238 6 224 33 109 167 236 199 186 157 157 53 103 86 171 229 28 216 190 61 248 32 136 206 227 208 43 28 237 212 141 151 49 145 96 75 2 209 52 53 186 60 163 244 83 101 10 211 166 185 61 126 15 1 191 46 204 154 220 115 110 218 57
224 157 191 156 245 155 19 221 116 85 205 243 85 36 45 104 223 28 70 59 254 23 183 221 202 196 162 74 95 140 97 117 40 144 150 130 77 190 161 241 62 48 170 76 208 237 212 76 1 6 135 250 102 215 113 25 92 118 234 223 28 0 230 210 168 166 49 180 220 243 211 149 222 205 208 192 66 144 75 232 130 228 107 126 1 41 254 92 195 29 236 50 158 210 245 148 231 84 175 209
123 156 98 88 74 150 203 96 51 230 17 52 128 172 249 190 216 123 212 16 55 123 39 141 252 53 203 107 51 30 191 220 78 231 111 110 79 88 235 57 87 13 222 140 97 173 172 138 133 151 153 193 225 244 18 253 224 37 100 0 23 193 213 109 183 182 215 254 29 220 163 227 108 244 91 242 85 95 44 121 42 149 204 57 151 83 205 106 131 99 27 50 40 212 190 251 90 56 212 145
241 196 96 40 11 80 138 131 67 199 110 192 160 28 254 228 209 188 82 181 145 29 222 80 46 49 11 108 103 3 80 168 35 225 148 196 60 38 162 7 81 8 62 13 238 222 113 100 220 134 104 19 238 239 157 28 80 197 30 80 143 142 23 80 139 191 94 27 54 16 214 36 72 84 110 97 196 108 141 192 7 71 246 62 137 62 228 36 163 117 158 138 67 139 129 53 140 153 12 189
251 109 108 108 177 129 22 230 144 30 250 124 240 192 192 10 99 138 108 178 219 58 133 236 207 147 22 55 151 96 141 31 134 94 7 26 169 132 109 76 213 211 152 79 169 241 19 48 146 243 253 162 186 123 98 148 66 195 75 5 228 27 53 197 225 114 199 233 192 137 102 246 228 80 7 154 139 217 47 30 169 56 218 128 1 100 42 154 114 233 1 230 55 110 161 248 236 123 41 195
86 115 2 82 203 38 177 177 82 41 51 136 5 89 87 116 155 123 52 191 107 87 102 160 99 242 71 87 211 136 152 62 96 174 160 26 86 236 78 151 157 150 129 227 179 175 18 193 201 180 153 147 41 184 11 49 182 89 248 54 72 43 238 245 181 92 222 51 62 90 250 155 14 201 151 124 149 96 194 209 106 183 128 40 216 33 72 38 84 144 197 164 34 191 10 42 221 116 46 244
35 91 11 234 92 151 244 202 126 248 71 26 51 147 109 44 246 0 31 74 104 131 250 106 109 173 102 27 215 96 61 147 200 82 74 143 242 173 113 153 28 115 140 51 35 108 90 158 92 192 118 90 42 206 213 30 56 87 40 31 41 101 208 142 109 229 221 43 27 162 107 228 14 171 245 88 243 225 171 1 119 0 215 132 9 170 23 150 96 175 89 58 105 178 110 239 36 58 87 240
225 163 163 81 109 48 31 145 255 182 13 163 32 165 142 41 206 221 183 150 249 205 50 209 214 45 237 234 71 144 18 27 88 16 196 103 159 157 75 174 35 71 66 227 145 139 30 219 133 29 142 137 49 102 94 88 110 118 250 128 59 7 167 70 116 80 213 204 1 151 28 241 113 136 26 89 72 179 43 64 37 31 18 50 49 94 254 94 122 243 78 186 189 144 253 109 107 229 175 136
226 195 15 74 78 246 57 178 139 242 128 176 220 51 89 222 172 225 11 156 192 61 182 34 1 8 161 66 154 110 223 206 31 90 233 150 81 187 148 134 34 46 86 74 9 207 132 185 125 255 143 43 145 186 145 237 83 118 50 65 100 194 120 7 190 52 109 131 231 145 182 51 73 106 21 131 96 232 166 27 43 176 99 40 59 196 157 43 18 107 207 216 5 89 101 182 242 20 121 214
187 98 120 122 213 19 204 112 28 194 177 10 181 114 155 148 39 149 126 169 52 100 219 217 101 53 116 68 120 221 183 133 49 4 63 228 178 0 9 13 73 47 120 174 125 85 132 173 159 152 5 100 14 212 251 138 106 178 37 33 129 71 240 39 184 129 214 147 15 129 166 249 169 208 61 53 202 248 209 69 50 142 143 181 60 185 28 130 117 52 195 171 191 220 167 18 194 220 9 136
191 189 10 176 95 246 13 139 37 213 38 99 227 3 16 59 30 164 58 13 58 115 64 179 74 176 154 20 91 214 221 55 199 112 231 70 175 148 98 2 237 19 10 148 182 231 69 51 73 208 208 214 138 220 164 46 227 232 94 147 19 142 109 84 16 171 39 211 23 31 61 140 48 243 155 189 120 48 148 22 147 29 100 175 105 221 51 153 208 37 99 46 163 247 95 35 69 240 227 155
184 28 201 159 206 44 231 15 14 41 125 129 75 4 96 150 165 18 240 130 161 6 229 176 118 27 187 99 237 98 123 185 171 15 213 204 38 121 92 210 143 185 77 237 248 184 245 1 86 147 75 48 70 66 156 246 231 26 58 214 50 112 199 14 243 193 20 147 64 100 90 148 40 174 239 71 236 155 95 0 103 207 222 88 67 47 170 75 1 6 130 66 109 227 237 141 52 79 32 7
216 58 134 57 249 183 145 175 215 15 195 245 144 203 29 182 16 64 159 180 33 23 182 17 122 52 67 207 28 34 59 246 2 126 253 248 142 96 131 227 43 101 75 65 12 63 32 202 145 101 182 200 164 182 208 23 30 219 48 131 144 243 81 94 19 220 21 139 224 217 165 114 215 131 39 149 60 148 62 80 159 104 232 211 109 232 32 132 241 193 85 197 34 242 120 225 172 225 110 97
102 141 71 102 78 246 124 206 23 149 82 30 163 143 173 47 133 197 79 4 47 63 208 25 173 251 234 223 185 112 102 174 220 35 87 92 84 226 120 201 83 51 187 72 207 123 102 35 245 36 87 13 220 60 205 188 25 224 64 192 231 31 242 159 180 97 89 146 102 73 83 170 197 154 118 97 32 167 255 106 56 182 41 115 122 42 142 199 13 11 69 103 105 29 44 143 131 247 146 123
127 95 152 34 128 86 101 23 101 159 67 13 111 196 49 143 200 26 251 157 33 92 8 129 86 11 162 230 203 231 247 18 226 17 116 37 44 222 154 191 109 226 189 236 240 83 56 144 232 36 33 101 67 113 215 58 175 219 158 119 85 73 196 7 204 44 79 180 87 225 24 146 96 145 16 72 63 114 21 185 222 132 56 1 160 53 32 206 81 11 230 42 30 83 253 209 74 102 161 190
56 239 182 66 102 155 0 92 4 178 238 210 203 33 0 168 182 204 149 95 238 58 93 64 240 235 177 51 43 61 226 158 175 195 124 210 146 187 53 125 130 185 107 156 16 180 120 77 129 37 8 33 113 123 17 181 179 152 192 170 211 170 206 239 52 0 49 205 132 10 1 119 194 51 32 87 19 104 225 105 76 38 173 134 50 181 251 106 92 79 221 187 121 72 116 113 116 201 184 9
57 205 10 131 32 190 50 200 224 238 176 45 243 196 81 88 105 175 67 45 122 103 205 17 166 236 147 171 223 121 28 225 34 0 207 158 209 214 5 126 214 50 59 191 168 67 235 73 220 3 215 181 252 3 43 43 136 3 79 74 237 205 228 248 13 69 140 18 150 144 219 213 118 138 191 220 221 250 191 126 23 97 197 197 96 22 220 184 247 148 179 26 145 207 111 35 19 90 73 3
11 232 248 150 156 59 135 229 198 130 249 161 248 216 85 103 231 92 130 86 70 70 252 183 194 90 170 15 15 232 143 165 78 129 61 63 59 38 79 137 203 55 37 227 107 186 2 48 218 115 132 193 233 249 42 64 30 24 97 36 184 135 254 72 101 253 202 206 248 160 212 215 0 128 73 208 222 213 90 184 188 77 33 196 205 2 101 235 37 218 8 228 255 25 196 67 26 64 238 78
254 70 76 210 32 88 33 143 89 177 95 105 1 101 127 76 41 81 15 135 61 17 30 80 38 75 208 166 133 190 202 206 132 180 167 48 124 127 110 24 238 143 201 145 2 235 127 149 127 227 18 88 212 130 254 73 181 169 105 144 48 175 149 227 133 137 194 68 130 154 124 113 88 248 6 44 93 8 247 91 32 247 69 3 223 80 16 30 142 139 115 24 42 161 52 29 28 208 96 29
26 157 184 30 216 102 170 65 132 109 143 233 65 245 25 23 49 130 143 214 250 107 47 138 69 128 245 214 89 254 23 184 18 111 43 134 84 12 91 173 177 27 158 180 135 183 17 245 149 138 202 56 143 145 37 147 252 30 99 83 176 76 85 146 227 48 14 78 146 176 219 244 15 82 62 55 211 172 163 99 80 71 200 24 160 111 214 195 64 242 31 127 253 201 247 111 197 232 99 115
4 135 250 25 58 112 62 229 121 247 114 197 46 92 110 61 55 63 72 92 40 182 46 164 255 227 149 118 189 229 158 232 204 41 223 167 249 82 215 14 85 138 32 189 153 184 14 121 59 6 174 243 110 76 77 96 177 5 73 187 116 29 194 166 49 198 131 107 107 15 13 129 131 138 19 30 102 136 26 222 222 181 212 209 77 140 184 159 46 87 24 85 129 163 180 13 116 56 249 162
180 113 237 239 179 136 121 206 125 71 128 223 246 76 27 58 44 157 156 211 71 213 192 225 34 132 23 255 241 171 104 154 172 164 164 112 112 21 8 237 89 122 231 191 194 128 152 253 202 142 202 197 37 25 185 101 141 52 88 19 18 150 251 57 29 185 217 141 212 237 130 192 250 140 47 3 45 176 185 250 231 63 7 36 149 209 71 3 36 11 76 209 243 252 170 118 78 122 67 250
94 247 127 162 121 211 248 133 153 39 138 96 217 55 176 88 231 31 189 133 216 117 131 237 148 143 35 96 188 200 181 38 75 248 202 107 233 249 18 31 45 52 9 233 20 78 108 158 127 84 216 138 51 181 160 118 206 68 129 170 8 140 91 185 156 211 179 61 139 40 49 77 94 134 141 74 106 40 253 29 146 169 50 6 43 152 127 255 237 211 8 81 224 31 201 3 225 55 148 56
203 90 97 181 121 224 86 18 4 217 218 3 130 140 3 213 239 9 231 28 196 207 15 233 22 76 51 86 110 60 23 63 199 11 253 234 28 74 167 43 35 20 55 116 4 76 49 58 98 186 150 131 158 49 165 101 91 144 6 3 13 231 205 117 23 46 223 241 54 207 196 181 222 243 114 246 169 109 114 239 250 70 188 61 210 27 228 223 11 255 145 155 252 210 65 59 223 134 16 82
101 161 212 9 178 75 167 41 134 121 205 21 102 184 34 118 84 4 61 124 205 219 253 35 253 138 220 52 243 90 16 2 101 168 161 51 150 185 220 88 191 160 153 206 119 189 6 117 153 14 222 60 78 199 48 155 200 106 39 123 77 248 253 237 192 25 155 161 100 234 43 215 227 213 173 146 50 229 113 204 58 16 178 56 141 79 248 140 70 10 128 235 240 70 170 241 159 38 81 166
8 135 114 229 207 190 187 145 188 145 246 244 18 35 10 113 157 208 34 160 246 244 10 104 118 149 32 107 138 14 123 252 154 154 118 35 196 5 230 219 20 224 140 36 21 204 171 82 119 196 87 12 210 135 244 28 180 45 118 74 105 95 7 66 171 123 165 191 53 227 184 221 230 106 102 111 95 209 104 8 109 216 251 60 53 143 170 17 150 105 81 198 159 91 5 160 152 102 58 97
41 39 239 184 0 201 26 239 148 29 97 104 231 237 164 95 65 7 253 193 9 2 185 168 87 218 151 201 145 97 156 90 10 136 107 189 243 237 97 101 231 29 114 131 162 199 235 22 220 245 60 16 115 152 14 64 122 83 144 99 217 69 46 226 117 131 222 85 254 196 101 225 177 244 252 161 86 34 20 253 164 59 178 190 214 148 185 174 179 89 33 222 31 19 224 29 144 134 146 81
18 173 71 205 197 142 130 172 64 188 109 95 97 123 248 76 163 170 228 182 14 168 159 216 210 234 103 55 150 162 163 242 127 6 242 26 36 223 36 156 197 68 174 52 0 97 227 5 198 56 148 187 168 201 130 49 40 234 18 1 60 215 91 15 65 255 46 25 146 57 197 139 44 65 50 25 153 181 249 173 203 242 211 23 89 226 147 241 60 251 55 148 23 247 14 31 234 53 60 74
221 118 77 208 30 177 38 222 119 52 47 254 216 219 13 145 42 104 231 181 204 198 145 209 2 79 74 229 165 161 167 228 212 244 186 26 217 64 108 119 86 105 186 61 190 161 217 126 130 70 52 128 254 102 125 150 216 59 128 160 209 63 218 137 119 50 63 24 244 78 5 57 64 17 213 248 193 39 19 169 114 21 127 69 99 160 6 70 199 1 236 77 144 208 11 218 160 185 48 110
6 86 52 107 174 182 12 228 4 65 25 159 113 114 106 229 72 160 109 251 126 67 243 162 250 5 188 70 19 191 201 120 92 233 205 14 148 87 31 194 236 72 220 10 164 212 122 174 59 66 243 222 232 56 114 103 112 28 134 139 178 112 13 173 55 93 21 240 196 176 54 74 76 226 4 46 105 18 19 254 76 24 215 91 198 35 83 232 245 52 249 131 4 71 53 101 9 91 226 20
25 216 246 42 206 171 245 170 189 45 87 187 203 179 166 248 195 23 15 190 17 181 5 75 54 210 202 64 246 51 115 80 217 193 37 36 93 112 163 128 226 158 49 132 213 249 97 109 175 174 240 116 7 158 166 87 61 249 19 238 137 66 218 134 128 131 99 82 58 63 12 58 178 12 55 243 110 84 38 58 213 76 147 239 179 15 71 243 1 246 13 60 252 19 236 157 81 243 147 97
177 213 95 96 172 51 146 154 163 49 39 233 59 95 254 181 142 229 61 146 205 198 121 81 11 14 221 51 223 176 40 205 246 183 83 22 242 94 135 14 81 45 27 29 66 225 105 216 185 84 232 64 91 239 14 191 112 180 135 182 51 9 24 59 150 136 142 23 162 221 35 157 16 25 127 171 120 146 111 100 43 213 99 178 210 215 148 22 164 193 173 151 135 103 134 169 214 95 78 229
99 195 155 117 203 68 212 178 107 115 124 12 173 81 218 25 249 168 232 20 80 202 160 234 50 235 197 229 96 137 48 79 181 183 93 176 5 9 32 7 89 47 33 59 71 87 183 197 183 110 220 118 87 237 218 232 223 97 199 147 82 2 1 144 57 136 75 191 233 197 192 75 222 28 233 117 187 16 169 196 127 52 3 106 9 4 111 161 189 6 19 202 84 68 39 223 34 152 247 233
253 10 214 64 170 196 82 30 161 237 38 169 195 19 134 55 192 119 165 189 132 139 19 139 184 148 73 242 41 249 11 38 31 225 105 241 117 138 105 210 91 79 230 147 197 64 230 188 133 79 51 109 210 106 166 41 164 207 207 161 154 254 198 78 28 226 221 113 91 115 141 57 148 174 194 130 110 255 153 128 63 237 11 73 116 216 93 149 76 91 114 235 10 216 17 148 248 35 247 10
169 70 176 168 180 152 18 86 204 173 37 111 193 66 40 60 114 81 75 48 12 159 67 172 4 121 205 122 57 98 227 130 10 98 73 20 182 1 185 206 13 11 200 53 193 18 251 221 112 103 222 20 122 186 142 214 208 207 52 207 7 252 179 129 227 8 52 4 166 77 36 100 85 187 169 8 29 240 5 25 143 185 0 251 132 154 47 164 95 46 100 181 24 25 42 69 236 123 7 93
146 225 91 159 212 238 141 59 69 138 227 69 39 110 112 179 107 236 48 171 67 102 155 117 133 214 103 212 240 251 83 60 69 138 111 129 214 180 107 215 247 148 102 46 180 11 156 178 130 81 31 29 38 29 3 171 105 135 212 43 106 253 185 237 40 236 144 249 48 97 161 160 68 236 106 166 27 196 20 178 245 71 96 197 151 219 142 38 1 87 120 106 107 123 43 241 120 155 132 86
7 187 139 72 141 251 236 13 98 170 138 186 217 140 93 122 67 15 150 2 127 187 70 76 254 249 174 233 41 196 84 246 26 220 24 98 33 250 217 56 42 126 103 83 212 254 130 248 16 234 44 231 177 169 252 110 89 114 127 85 41 156 72 207 100 19 148 103 91 79 11 169 217 109 60 70 67 31 204 205 149 96 46 103 240 255 38 111 81 47 185 7 0 53 41 113 88 232 124 143
210 204 72 59 70 95 128 68 110 75 155 16 189 140 87 150 8 60 131 231 204 184 5 221 159 204 72 23 218 50 36 97 8 195 242 126 151 202 106 21 196 11 240 9 185 114 221 240 103 21 112 65 188 212 60 35 80 131 216 177 39 217 223 162 154 154 14 122 212 91 92 27 9 81 228 152 81 21 147 251 107 199 5 243 139 221 77 114 63 229 157 29 254 203 170 155 151 67 29 46
90 231 98 165 245 181 59 98 1 136 45 128 147 84 99 138 123 98 129 212 37 150 76 115 127 196 89 17 177 159 17 244 210 143 104 252 93 1 184 214 215 90 37 65 40 24 184 152 214 55 42 63 157 161 6 47 209 161 8 188 80 187 122 93 114 200 109 22 152 192 249 49 131 54 34 7 4 214 58 224 72 155 27 13 179 19 234 154 156 239 248 220 229 199 203 125 102 217 220 204
92 109 160 212 117 178 170 156 165 161 60 45 13 169 185 224 188 159 159 47 217 64 166 42 251 42 166 95 55 228 205 114 243 15 87 159 104 111 230 164 131 40 69 55 65 71 161 129 204 37 165 154 37 123 67 130 110 195 170 60 188 212 132 57 82 93 127 140 125 50 21 40 152 245 106 84 153 91 131 179 81 69 226 88 38 41 221 224 117 15 173 19 218 226 188 160 235 255 235 248
48 135 75 131 50 114 135 73 253 148 125 248 46 205 172 34 140 15 212 236 20 227 207 231 251 182 96 163 58 227 96 4 145 170 94 84 29 122 239 20 33 224 143 169 5 3 55 228 105 5 115 94 255 168 105 146 77 145 132 152 241 149 101 8 91 99 80 162 10 89 54 97 236 231 101 156 135 233 107 3 39 184 64 82 132 241 194 117 205 8 209 10 120 164 237 113 94 57 3 161
108 62 27 182 160 216 50 104 198 29 200 177 107 171 154 25 201 153 43 192 8 147 121 165 124 119 200 78 216 159 157 251 168 244 91 68 29 196 132 103 92 255 216 185 130 167 86 53 93 77 6 83 241 198 53 72 40 38 141 129 144 119 207 44 214 243 53 160 167 45 101 218 112 43 169 72 124 116 202 184 141 156 179 64 70 194 0 101 37 36 58 82 0 64 151 78 132 206 21 34
110 232 203 192 141 129 160 245 186 45 30 55 110 100 0 27 237 53 14 116 194 114 142 50 139 178 229 71 77 166 130 6 233 53 233 66 170 88 139 141 153 174 37 124 110 33 230 239 122 67 31 84 82 139 165 108 20 165 189 240 104 99 237 76 231 144 128 185 235 188 55 88 149 255 154 53 121 120 16 119 110 85 25 42 64 60 237 150 163 175 155 21 30 69 102 80 103 204 75 233
169 171 100 114 44 244 98 49 193 135 197 93 179 27 248 3 119 235 122 61 206 102 141 82 92 172 64 62 67 20 150 48 247 210 169 123 14 157 0 104 170 139 51 133 31 237 119 122 76 95 233 105 60 38 251 158 146 14 237 115 190 142 179 69 105 176 238 195 87 181 193 110 51 208 1 75 135 192 12 88 215 3 100 7 142 225 39 135 183 247 85 18 129 146 98 195 165 105 34 119
225 121 166 182 243 179 73 192 24 222 127 3 98 172 58 16 173 108 2 208 222 7 160 30 192 76 89 44 42 183 74 55 157 110 119 247 39 63 115 81 158 20 138 224 149 0 154 221 24 102 246 57 188 70 72 69 255 188 129 90 37 225 174 143 151 8 120 197 120 83 12 250 88 100 81 239 108 253 202 110 173 219 111 12 67 56 58 35 39 213 109 121 105 173 65 41 198 77 64 48
187 97 93 128 174 233 223 78 79 138 188 216 54 138 17 156 73 26 80 146 26 150 130 243 81 50 48 147 99 246 209 143 220 88 254 238 182 75 17 112 128 207 34 191 62 204 210 125 60 116 140 144 192 57 125 183 52 160 19 222 87 157 224 18 92 87 93 202 8 28 78 198 212 178 177 51 146 216 127 17 202 244 165 198 33 121 162 62 2 113 46 94 163 108 21 92 237 242 56 79
122 150 95 145 205 39 76 206 193 69 237 89 192 194 135 155 254 221 105 127 20 167 214 19 18 196 45 208 65 173 88 135 94 22 101 228 229 167 123 185 39 186 0 228 34 105 152 232 110 197 18 158 117 160 67 82 26 50 246 1 66 244 42 105 173 147 7 255 25 53 76 196 180 222 89 74 240 174 190 186 223 15 54 236 13 192 56 225 111 73 141 118 48 6 142 61 73 198 219 118
53 192 27 59 33 207 31 21 224 166 112 161 165 111 43 189 97 227 127 89 163 8 11 236 5 2 49 60 255 144 62 116 243 92 195 154 22 29 160 206 170 234 198 239 86 215 133 134 172 17 119 175 6 196 148 230 153 244 148 200 209 85 177 16 19 171 242 125 123 82 248 212 62 38 99 233 111 21 44 87 84 9 57 231 236 226 60 20 4 72 41 204 232 133 90 229 249 22 196 21
131 185 144 97 167 253 51 25 36 202 228 57 76 198 183 114 197 97 207 116 123 166 157 164 27 190 95 31 96 28 24 33 148 139 71 143 149 5 124 235 11 74 143 98 2 86 232 167 234 181 80 136 120 168 111 54 2 154 66 75 237 126 231 39 54 89 41 8 42 117 82 52 200 152 220 43 226 111 163 164 112 162 92 147 220 14 235 107 85 149 52 200 150 219 243 15 215 25 153 84
178 219 25 244 229 173 4 64 17 131 180 53 180 145 117 0 191 135 232 159 178 143 14 238 157 102 23 65 107 236 144 6 185 128 195 102 54 26 198 80 24 78 177 249 237 37 200 75 222 94 10 185 169 216 187 5 132 146 181 79 252 53 226 167 47 23 15 80 229 34 123 132 133 24 239 134 8 153 20 126 29 220 255 171 72 25 252 7 30 83 48 81 181 94 202 140 196 231 63 160
87 88 4 192 89 34 181 37 138 4 207 221 1 90 163 173 14 158 39 176 102 91 222 90 56 98 125 23 7 56 24 162 4 89 77 158 162 133 29 70 82 254 125 75 242 209 254 104 147 240 31 112 215 201 22 99 40 252 201 105 238 80 1 43 96 168 8 67 119 56 217 31 60 217 4 234 45 185 219 149 135 141 227 91 184 232 219 92 70 91 101 150 129 195 207 114 222 242 26 231
39 122 167 66 29 212 171 129 116 13 36 123 254 59 22 155 204 245 122 7 125 136 104 209 190 132 52 16 211 200 23 147 225 235 182 130 255 107 241 173 249 228 243 99 30 162 74 218 21 41 71 110 143 160 192 52 86 22 16 66 231 89 150 224 211 34 168 237 222 188 45 53 241 158 175 100 127 139 70 111 9 60 103 220 83 235 74 21 219 180 112 228 248 15 67 216 20 166 121 47
70 65 10 124 11 228 206 247 72 51 245 197 179 73 114 155 202 82 75 217 239 115 45 174 245 40 122 10 219 101 81 111 165 155 104 88 149 17 11 200 228 109 121 237 67 116 228 90 227 108 115 187 175 238 111 8 224 18 84 76 239 29 133 171 24 34 225 190 24 66 111 179 141 25 40 215 97 101 14 70 222 166 141 156 81 182 187 79 26 200 43 31 54 200 123 214 107 50 90 206
71 71 131 209 36 110 137 210 29 204 53 173 75 122 150 81 216 167 154 152 101 48 191 32 105 240 116 215 61 179 172 109 99 31 185 49 147 253 233 99 97 189 167 86 251 2 102 186 202 130 97 40 2 172 217 127 88 154 202 235 5 71 32 202 5 59 50 227 78 150 146 243 82 173 88 105 156 133 46 238 77 211 235 143 216 180 192 221 37 60 220 151 220 224 183 253 2 34 48 237
137 45 225 48 98 43 15 85 253 93 239 115 180 120 27 90 134 240 163 42 229 136 171 88 129 23 17 214 32 37 90 170 78 34 164 188 145 231 50 56 243 214 214 77 206 224 138 255 99 151 75 151 148 46 134 135 69 51 43 248 159 63 131 197 139 101 190 133 133 188 61 71 52 58 13 206 166 25 58 224 126 35 206 71 18 79 186 63 237 28 153 223 118 80 230 237 144 86 124 102
221 138 247 77 73 117 242 159 153 126 204 118 38 52 48 249 248 161 240 17 178 10 254 123 158 77 206 49 87 200 172 37 83 176 219 181 148 144 212 51 18 110 93 38 130 107 139 245 214 180 196 248 1 9 31 53 191 8 229 188 6 131 101 75 209 23 183 56 111 17 95 184 215 88 86 214 89 241 179 173 179 42 214 19 48 250 122 52 36 92 72 26 95 153 164 91 18 150 195 225
152 102 184 190 64 176 244 10 16 119 127 252 92 1 191 139 196 128 97 173 75 37 15 236 118 61 4 81 210 212 48 114 145 242 103 111 191 196 102 130 76 82 201 215 101 139 74 30 93 157 211 224 104 8 249 73 7 145 117 72 195 70 0 179 144 103 73 12 167 243 159 248 28 78 101 125 168 134 158 232 36 167 181 19 192 253 5 86 252 78 215 109 182 126 54 151 103 233 218 121
94 44 99 3 180 151 180 252 243 179 250 231 63 7 20 54 102 232 249 110 245 40 104 192 40 129 115 4 170 193 9 36 58 100 115 137 238 240 113 206 75 45 86 204 115 235 132 170 46 184 166 73 40 26 28 98 113 129 59 255 85 120 86 227 77 112 217 139 128 19 169 85 135 213 137 132 44 175 142 18 77 176 178 28 45 202 29 211 146 13 99 170 226 156 215 26 175 97 13 180
88 30 94 194 32 160 226 98 116 153 242 8 74 17 62 250 75 122 14 1 66 242 7 147 132 221 91 13 39 248 155 48 236 65 104 19 106 37 53 165 102 251 83 40 76 11 102 3 236 242 46 212 93 10 165 254 239 142 200 138 41 52 55 93 223 130 65 208 217 133 127 249 213 208 117 54 11 208 92 201 190 77 50 97 106 212 179 131 103 190 159 218 236 142 201 246 232 141 215 161
89 253 144 137 120 174 199 13 24 48 191 101 182 73 131 47 127 106 6 75 42 130 77 169 218 90 71 161 183 71 0 159 159 95 245 31 60 253 232 170 96 184 66 165 179 241 169 143 121 35 100 148 50 32 99 32 217 165 216 72 205 29 71 193 204 131 44 251 32 180 235 219 3 36 52 160 254 37 96 147 168 112 36 22 47 99 248 140 63 91 66 252 37 158 223 29 170 116 182 215
32 217 164 129 217 6 236 78 28 227 53 71 177 207 236 207 29 18 28 173 119 161 236 220 227 188 199 6 248 89 19 210 48 40 151 12 217 5 201 163 199 14 147 236 78 225 194 30 39 60 180 76 201 137 20 29 65 48 166 43 54 110 83 31 237 101 7 211 78 124 166 117 120 135 73 1 24 253 37 229 69 224 50 101 126 79 203 222 126 184 128 230 215 4 123 101 92 57 183 82
15 10 91 106 209 206 160 138 255 60 156 202 55 167 109 133 161 193 163 39 221 154 112 236 210 147 42 34 5 139 70 9 187 198 139 210 167 162 130 185 202 127 151 12 149 42 136 239 52 67 193 211 54 77 86 189 180 10 37 207 185 118 221 88 201 68 0 53 151 178 142 105 225 184 32 50 29 224 84 6 13 32 48 184 107 121 96 232 95 238 96 153 24 43 171 154 38 203 39 24
80 96 71 213 114 194 41 214 193 138 246 20 146 242 138 251 57 249 96 50 43 189 21 97 83 136 57 148 42 64 60 245 131 20 123 210 202 190 62 94 68 92 222 167 164 213 156 172 59 56 183 188 65 123 10 9 14 108 98 224 3 148 43 18 184 245 216 184 180 90 191 202 88 112 198 202 183 131 5 11 120 78 225 233 179 7 158 246 197 63 10 108 20 217 44 230 133 69 65 34
148 130 233 48 228 75 42 182 136 132 180 13 62 78 138 206 71 168 242 80 250 211 146 61 203 118 251 221 151 84 148 113 22 146 229 208 203 111 189 208 165 241 128 93 102 252 154 106 124 154 43 27 206 21 224 120 16 222 199 126 227 201 51 165 200 13 216 1 19 37 197 147 64 27 194 11 165 84 213 238 33 57 122 202 134 3 64 138 94 53 203 117 106 32 104 4 78 158 211 37
143 90 73 192 26 146 72 107 226 69 47 1 38 49 79 240 72 166 10 33 166 222 188 185 189 27 136 251 82 165 80 103 168 164 93 57 232 144 194 215 123 42 219 197 185 89 146 26 141 137 75 204 7 216 135 14 189 84 175 10 67 116 209 179 233 8 253 39 166 236 133 208 127 155 184 86 168 254 246 238 230 42 200 214 253 201 154 86 57 58 178 239 192 38 111 182 167 246 177 190
177 53 92 141 40 145 13 75 91 137 69 1 21 140 59 110 112 185 54 172 196 186 166 51 151 132 30 66 245 76 77 214 28 171 125 160 240 65 15 212 63 64 197 59 114 21 76 75 230 59 225 162 5 139 184 84 109 43 90 55 242 247 172 34 68 174 132 238 74 180 133 224 105 250 249 64 228 220 94 26 121 13 84 115 187 53 32 48 212 234 218 118 152 118 47 8 187 172 190 204
245 228 173 26 196 235 6 129 64 74 133 76 155 146 50 14 233 242 81 6 198 241 164 43 119 245 251 12 73 218 223 98 20 72 179 98 99 154 237 31 200 88 238 10 106 69 8 198 124 225 181 220 228 146 129 147 56 135 154 25 109 150 182 152 241 205 64 233 104 250 61 67 234 74 252 41 38 72 187 192 161 9 220 170 102 216 45 37 193 239 223 88 18 153 34 26 135 138 82 142
225 135 85 70 164 235 215 186 229 239 154 194 97 88 134 137 163 77 72 37 32 205 56 170 108 216 163 21 183 10 142 196 152 249 0 53 49 1 210 9 223 240 120 178 112 163 122 177 196 237 118 104 229 165 9 45 195 216 253 187 78 215 159 77 104 36 158 213 207 132 9 158 110 33 145 245 190 25 53 206 2 203 147 93 251 54 23 116 45 171 23 29 142 53 172 213 245 17 163 126
138 10 248 102 172 149 168 102 28 18 246 66 162 155 238 47 80 99 249 48 49 64 1 200 100 145 26 95 2 20 11 0 181 27 158 232 128 115 49 191 84 249 68 124 178 192 166 191 205 114 235 138 213 214 20 207 218 148 52 120 69 241 118 227 148 90 156 198 194 0 176 225 227 93 213 39 174 145 113 27 170 22 88 115 236 222 113 192 3 73 118 147 160 188 52 181 228 117 46 44
91 96 40 147 236 187 136 31 116 131 36 247 116 109 248 128 127 218 85 198 64 79 132 105 176 40 7 136 30 214 36 206 125 37 175 33 26 87 65 252 20 143 177 119 226 143 215 4 34 61 137 128 62 32 169 193 189 24 165 41 251 114 187 190 71 149 3 168 227 38 152 220 15 189 195 90 21 44 204 111 246 147 130 170 87 236 94 76 0 30 173 164 136 184 159 170 253 226 81 254
21 225 18 159 195 163 165 123 211 117 231 55 238 209 156 210 115 91 52 239 186 68 211 152 92 45 223 237 228 132 90 170 252 2 107 114 247 118 40 215 147 11 57 116 7 39 135 145 129 127 173 224 48 54 186 42 11 185 43 66 122 66 99 235 97 135 140 216 63 206 33 118 118 48 65 46 31 93 226 90 34 127 38 171 131 117 134 148 100 178 98 217 59 91 221 176 61 3 181 230
252 19 161 139 29 69 73 98 33 205 53 133 222 43 109 121 60 201 51 43 53 223 245 51 146 148 249 11 173 211 248 58 170 223 118 113 106 125 57 150 42 131 23 50 116 10 157 42 132 37 178 174 100 7 133 26 141 197 186 137 197 188 201 254 40 211 228 174 181 194 111 61 171 5 18 66 67 80 72 231 32 18 245 227 51 15 77 165 85 47 189 182 161 126 103 228 189 246 25 167
250 228 1 94 166 151 151 195 158 41 62 136 217 108 121 6 146 56 184 54 251 80 57 158 73 219 187 81 63 137 92 42 224 151 73 218 38 231 225 73 93 172 141 205 240 36 124 97 228 45 185 62 132 178 255 61 244 127 19 68 250 70 47 77 84 69 226 145 53 89 167 87 64 246 250 178 64 129 37 95 254 61 143 175 173 55 51 89 221 5 145 29 236 230 152 2 201 215 57 229
95 152 250 208 133 35 21 208 56 73 212 31 252 93 244 132 206 77 18 44 67 164 28 201 32 244 112 133 95 30 46 158 125 188 5 25 139 208 39 131 91 107 182 158 174 118 253 35 198 249 175 68 62 240 186 91 238 148 136 97 230 58 131 188 219 115 97 208 10 222 138 76 18 115 127 83 15 26 111 12 28 82 115 96 59 89 60 175 169 151 117 4 163 121 11 94 100 163 119 102
252 77 95 147 213 190 205 253 144 57 140 124 195 219 172 153 85 29 17 48 226 75 132 74 227 103 148 223 114 54 11 159 62 153 79 226 145 174 203 129 40 101 146 194 238 119 234 10 94 176 141 174 101 175 113 39 73 151 16 16 65 196 33 15 76 241 166 249 223 250 210 54 254 103 182 4 200 234 133 165 205 185 225 56 96 50 178 251 250 107 92 60 61 121 9 2 105 199 102 229
