P2
# This is a P2 PNM file
2 2
255
0 128
64 192