P2
3 3
255
100 150 200
50 75 100
25 125 175
