P1
# This is a P1 PNM file
2 2
1 0
0 1