P2
5 5
255
239 115 148 40 98
18 52 169 35 117
15 83 73 184 71
2 28 169 223 37
88 52 247 102 54
