P2
# This is a simple PGM file
4 4
255
0 255 0 255
255 0 255 0
0 255 0 255
255 0 255 0