P2
100 100
255
42 234 138 153 151 177 154 250 132 242 11 182 105 141 137 84 29 48 204 233 42 222 159 135 79 12 66 81 45 192 42 135 221 5 165 180 220 53 66 50 30 80 92 59 237 190 112 67 147 138 38 57 37 108 231 14 226 243 162 51 73 29 133 86 44 181 239 208 214 81 176 5 238 88 218 126 94 16 52 164 212 230 55 102 43 226 253 109 202 70 206 93 171 169 180 254 127 98 22 153 
208 5 22 170 58 38 132 178 122 187 97 152 53 211 157 110 123 198 119 210 3 68 90 32 247 127 102 84 150 255 24 44 90 178 56 137 107 39 102 40 50 223 209 234 252 232 186 15 169 210 181 217 32 5 191 204 179 164 101 234 145 149 69 141 228 40 41 150 133 1 82 101 99 169 109 135 120 17 118 87 65 88 219 131 234 155 113 34 83 123 181 28 235 99 160 23 54 10 200 230 
79 21 82 4 177 68 238 94 230 190 177 184 117 234 186 201 10 241 77 195 57 32 16 167 131 11 236 172 137 150 203 215 36 33 150 243 234 237 235 81 137 139 59 174 32 12 120 221 3 110 70 138 107 119 241 62 125 134 201 212 6 220 66 242 195 52 240 97 151 184 158 24 195 141 151 230 11 172 95 48 101 80 199 107 236 227 3 135 24 198 139 69 46 88 145 206 118 58 96 25 
152 210 207 171 28 192 218 20 71 232 218 74 171 95 65 54 169 103 214 87 33 101 118 7 18 173 142 73 128 41 105 114 239 230 254 119 149 44 6 228 255 102 45 8 211 114 240 169 182 232 51 174 4 3 242 168 236 38 148 148 70 100 244 182 53 120 253 73 138 181 224 122 176 235 231 204 167 148 255 77 127 175 138 13 225 192 110 9 19 11 66 163 150 167 198 248 19 216 215 98 
24 229 31 67 220 157 152 66 48 220 15 61 225 171 184 130 75 31 47 23 108 38 66 232 252 44 158 56 157 2 10 170 224 178 52 162 102 158 86 39 13 44 80 222 189 53 238 86 61 42 117 182 139 238 87 233 133 26 41 120 85 198 20 158 228 255 151 128 129 212 34 172 29 132 40 227 227 125 19 90 225 18 245 222 158 33 189 241 110 204 82 156 237 171 241 114 126 75 88 138 
189 235 218 240 89 76 170 18 207 149 154 127 25 10 140 93 127 107 136 247 5 80 195 237 129 188 20 76 173 45 154 185 154 85 209 59 103 161 98 68 28 18 229 33 63 154 84 228 5 251 231 102 238 228 229 222 10 24 128 220 170 22 41 217 80 201 142 99 173 47 56 87 175 9 186 7 30 41 163 242 202 50 75 245 47 46 54 43 159 149 111 53 56 254 177 64 205 60 29 102 
188 140 175 248 227 45 207 133 238 109 155 149 171 246 245 2 46 204 139 89 148 154 105 81 249 180 124 132 105 87 184 161 230 185 84 48 217 251 201 83 17 216 87 24 89 237 186 51 45 232 85 235 143 135 7 168 64 25 246 130 12 188 194 170 250 94 127 220 124 223 214 25 80 213 203 33 193 128 175 101 140 14 147 15 144 221 122 84 208 88 76 209 72 22 8 159 63 248 181 180 
143 33 85 125 161 150 60 217 170 243 86 143 145 98 94 216 109 47 142 186 248 238 127 182 146 165 229 55 114 191 168 215 45 12 169 74 185 113 229 94 143 200 66 164 187 219 99 172 144 176 6 129 74 43 35 239 84 192 86 0 209 41 137 229 60 160 47 30 64 224 112 242 112 94 97 130 152 148 238 191 108 1 61 82 162 115 34 19 243 99 155 245 178 66 80 243 151 18 240 224 
209 168 140 237 149 103 113 206 222 188 5 14 110 41 88 176 221 192 232 232 183 34 246 62 147 99 34 44 226 97 2 104 185 44 183 228 88 93 242 60 181 176 78 120 181 221 158 42 51 85 133 213 222 96 250 157 194 151 105 104 182 156 52 195 82 112 236 78 196 202 169 26 170 227 229 74 186 25 228 244 240 216 242 119 207 78 207 112 138 76 172 46 110 144 136 19 123 35 159 34 
93 123 120 147 231 118 203 165 48 216 101 6 83 41 72 43 128 183 159 98 115 217 102 45 89 32 12 44 16 107 166 79 226 9 74 206 72 169 148 68 111 112 240 37 2 181 140 230 234 20 33 122 145 208 100 78 186 21 95 251 249 81 127 220 206 176 10 239 41 117 64 225 70 22 178 213 164 84 134 184 193 178 61 167 35 250 241 67 54 39 172 43 48 95 178 8 196 158 67 191 
193 72 254 186 206 234 56 87 11 51 215 213 116 104 29 208 149 244 16 245 94 101 202 17 222 236 255 87 160 14 11 154 252 234 138 187 162 172 141 35 239 123 219 162 105 62 6 154 72 246 183 83 121 61 241 154 42 57 22 169 86 72 162 71 5 156 196 143 246 3 94 156 23 107 155 139 193 177 29 124 40 218 23 213 215 41 94 137 70 152 40 229 6 137 123 102 229 148 23 93 
44 74 160 196 101 136 95 26 159 29 174 103 71 138 211 4 91 122 96 145 38 133 171 75 141 200 151 128 207 80 70 67 232 163 248 110 201 4 158 247 42 117 140 50 98 34 184 16 73 120 105 130 27 38 236 19 252 175 41 167 239 60 229 86 38 252 242 170 108 121 52 34 231 174 145 176 206 51 37 143 176 214 228 115 141 146 116 90 5 45 151 243 10 255 79 93 2 247 172 186 
18 127 250 108 85 37 171 174 111 18 246 237 235 161 206 129 106 138 41 120 87 20 131 250 216 147 1 236 16 226 30 52 148 115 34 40 99 19 15 9 47 131 10 33 50 100 231 138 214 91 80 28 253 34 170 102 220 179 42 194 105 148 185 65 201 216 96 83 246 44 208 216 153 247 220 209 92 185 222 77 104 178 118 70 10 218 169 237 129 237 94 95 114 102 172 8 8 104 212 228 
171 136 60 217 246 187 32 135 152 234 215 136 11 233 167 240 193 87 203 163 86 196 98 108 162 50 231 49 151 203 137 36 210 251 121 144 31 113 175 93 25 113 163 172 44 175 140 155 204 240 9 28 207 149 183 19 58 60 217 149 133 58 162 17 177 136 88 138 134 60 117 236 142 218 46 162 224 112 168 29 193 126 236 171 185 254 64 133 127 231 241 152 96 133 141 135 149 219 84 155 
119 14 110 248 131 10 187 190 140 209 66 86 12 41 199 98 221 92 64 70 148 26 248 203 170 139 191 32 95 54 72 138 93 159 2 75 40 131 113 134 203 37 24 21 134 154 182 254 248 151 80 142 199 143 219 88 22 109 255 162 59 12 73 238 148 220 25 214 128 65 95 142 223 74 89 176 167 76 52 71 52 66 230 181 174 230 185 199 203 154 102 176 172 115 40 239 74 224 139 40 
162 206 61 45 254 101 127 32 244 165 136 53 36 143 216 186 206 224 5 36 71 246 134 16 255 241 254 3 123 24 52 83 65 8 201 240 54 82 116 146 172 143 41 166 234 115 59 183 16 41 220 235 82 208 55 24 143 54 198 45 81 15 61 43 1 32 202 81 100 125 51 80 90 249 210 110 121 135 79 119 98 90 195 246 122 135 187 124 64 0 121 116 57 90 41 35 227 232 37 49 
108 188 0 152 75 224 130 232 41 127 154 34 233 118 103 193 36 202 116 52 29 73 69 221 198 235 136 69 134 0 0 60 221 177 191 56 25 26 223 150 227 173 17 148 228 16 55 7 59 254 167 131 117 70 11 161 134 212 68 82 140 63 38 139 7 167 177 86 48 212 161 163 83 182 99 20 189 50 233 255 251 31 49 58 249 12 9 16 168 200 66 102 229 74 177 193 91 111 60 159 
85 98 123 88 244 226 73 93 243 45 158 169 216 116 8 109 8 10 172 106 231 176 120 162 236 104 164 55 80 97 214 182 120 195 93 220 92 186 93 113 129 239 244 31 233 168 177 121 87 228 212 56 185 249 155 165 184 136 150 163 98 141 64 21 101 179 55 31 250 61 123 240 54 58 33 36 3 251 134 66 103 247 208 32 209 90 182 160 35 229 104 159 49 72 87 172 213 3 200 120 
147 213 136 96 221 95 20 105 162 252 23 52 78 109 37 36 59 187 157 121 56 169 46 101 36 202 192 201 22 196 107 51 160 8 80 55 254 24 239 81 173 106 177 91 255 25 238 135 99 90 251 186 141 129 249 153 133 112 129 158 151 88 228 115 11 230 38 64 101 66 18 207 67 215 251 140 251 138 180 50 124 169 135 90 117 126 222 32 185 240 3 179 33 144 117 164 8 242 125 224 
196 156 195 225 242 193 165 216 4 246 63 234 237 70 159 23 226 228 125 34 152 16 224 48 145 143 190 138 23 118 248 164 73 78 201 159 33 152 117 172 91 31 106 221 14 107 245 253 160 53 234 25 141 139 46 219 217 55 95 187 182 78 48 228 172 109 3 198 129 246 193 54 75 101 161 208 130 165 78 120 252 238 102 174 60 161 130 128 173 137 198 48 118 14 77 92 246 180 236 207 
172 29 3 63 71 67 220 39 242 68 177 71 38 55 191 86 57 238 164 24 161 130 41 105 167 30 153 204 238 211 109 161 208 255 173 88 153 115 16 0 174 177 94 248 218 9 242 102 81 148 21 94 100 145 189 127 113 249 189 9 135 140 124 41 128 167 189 86 235 226 122 250 214 223 72 35 239 124 112 74 66 21 194 25 98 116 7 185 175 254 201 22 25 156 33 220 29 227 3 71 
228 27 114 55 31 61 23 113 35 174 25 81 124 63 14 140 24 125 229 84 56 36 27 21 254 123 71 245 162 217 201 252 226 156 215 192 189 231 201 184 124 156 192 42 213 233 154 104 34 115 125 233 2 21 27 133 21 74 184 175 132 85 154 139 170 239 119 180 95 82 83 36 246 10 246 247 102 85 18 142 14 192 30 223 75 127 3 164 13 19 172 167 80 195 201 196 166 245 236 124 
191 69 222 51 48 139 38 96 113 112 245 187 153 98 137 68 147 134 27 233 37 22 31 221 240 79 9 241 102 145 71 249 40 220 236 43 43 168 153 4 200 146 105 36 241 114 87 172 95 229 107 134 105 118 139 185 92 211 177 174 122 81 227 48 203 24 205 157 160 190 201 159 63 79 93 122 115 231 195 32 118 10 32 250 63 95 166 230 70 238 64 93 66 223 56 152 121 235 125 1 
228 126 113 69 81 192 88 225 33 174 212 197 38 246 43 166 131 149 186 144 200 205 192 234 97 78 150 189 222 52 245 54 48 48 58 15 194 110 116 144 214 243 220 252 178 166 166 101 122 49 63 211 34 201 199 115 174 38 168 10 222 154 61 155 81 190 162 9 154 235 148 167 77 160 253 95 89 174 163 60 70 11 101 181 219 223 141 235 118 2 85 145 51 113 81 228 13 162 136 22 
94 23 176 151 103 146 14 203 8 50 137 114 185 82 24 225 214 57 10 212 246 92 10 116 10 172 122 179 145 53 48 189 191 197 116 95 160 195 92 44 232 206 7 111 12 105 67 59 26 224 67 249 51 63 147 206 141 248 25 180 79 255 78 1 68 132 155 105 99 20 32 121 220 187 230 234 245 114 51 155 62 30 131 189 241 205 168 104 14 12 21 126 45 31 83 144 38 29 130 174 
107 20 72 247 139 28 19 19 176 155 173 117 148 188 65 116 21 179 115 224 11 103 35 34 199 81 17 254 83 63 231 50 197 213 20 65 19 158 17 254 77 44 111 192 12 61 148 20 194 81 165 205 140 129 71 179 18 92 45 158 41 168 40 94 122 125 34 126 118 90 106 189 70 12 4 212 170 88 96 55 181 15 175 52 50 86 218 71 113 39 110 98 244 114 149 99 64 1 241 18 
128 224 227 48 82 147 60 108 154 141 137 228 58 62 124 118 156 197 217 110 126 246 151 75 174 103 29 232 225 226 133 194 231 216 133 186 61 165 98 54 128 224 17 11 212 208 68 101 0 32 164 63 229 99 3 248 91 233 28 37 80 222 156 90 34 186 169 157 154 119 205 135 250 37 37 131 250 72 177 33 38 116 187 199 200 6 137 175 112 136 133 63 195 114 75 251 33 116 80 42 
250 75 200 21 148 103 251 202 191 173 173 7 100 247 44 248 236 214 93 108 53 199 60 56 173 63 99 68 194 255 194 8 112 247 187 174 149 162 152 169 116 197 2 94 212 162 232 31 13 244 172 128 205 101 10 32 219 95 100 194 225 246 40 137 158 174 35 232 87 118 249 201 124 165 245 25 125 142 42 95 178 119 202 211 116 109 158 249 215 171 116 14 239 68 68 140 165 58 1 102 
39 236 142 208 204 64 25 60 219 112 34 180 75 202 187 203 226 197 70 170 146 114 112 235 58 201 60 115 83 165 193 13 203 235 26 115 160 114 123 32 237 234 44 185 128 234 130 4 101 66 0 239 178 59 241 95 236 153 78 62 147 162 48 27 165 246 190 14 194 251 83 238 126 60 113 76 192 143 178 228 214 211 119 91 187 167 230 100 133 14 204 8 197 15 216 135 182 122 123 193 
59 73 185 65 88 139 203 224 39 183 46 32 210 123 114 137 117 115 26 143 157 32 109 207 69 141 141 68 79 82 209 99 234 101 159 7 174 4 68 239 0 10 175 32 109 135 126 172 246 56 35 211 221 205 107 48 169 202 83 142 44 74 169 185 128 96 241 21 70 103 182 183 157 188 85 113 129 251 21 128 94 204 159 201 84 208 60 71 25 158 91 82 228 167 45 14 82 61 253 174 
146 239 94 167 44 107 20 122 212 10 139 203 210 11 238 220 101 159 8 79 146 71 35 43 65 149 94 37 180 76 215 32 88 22 49 199 75 41 28 14 67 123 41 47 83 106 222 254 135 9 93 84 96 180 169 234 61 67 102 185 194 27 221 41 102 124 247 167 218 75 169 58 12 241 251 20 216 163 175 28 241 9 69 91 91 82 234 15 122 6 88 206 38 170 153 131 63 90 98 95 
15 117 166 12 194 210 116 78 104 94 63 249 128 158 94 184 89 72 154 150 191 54 30 109 159 69 234 168 253 115 14 98 86 131 153 123 191 128 79 74 189 34 74 132 26 36 65 233 193 251 181 134 16 1 171 250 76 30 239 220 147 187 85 232 138 105 174 221 110 212 230 181 193 6 17 202 182 14 168 29 9 85 129 200 101 88 168 104 180 158 14 17 201 32 237 227 108 83 16 91 
236 185 126 85 203 206 187 184 130 220 80 92 149 117 134 87 24 138 195 179 152 184 225 25 225 220 26 218 188 156 53 54 255 154 245 110 25 12 139 66 89 90 61 214 181 36 138 79 214 128 95 113 131 43 6 67 85 162 237 231 239 80 111 44 114 95 45 165 2 78 175 8 253 120 212 91 189 183 221 91 247 207 24 28 214 167 80 128 87 25 119 139 136 17 128 18 62 128 101 177 
193 227 36 6 151 47 55 15 38 75 159 116 206 253 191 45 82 223 241 80 176 34 251 52 11 12 115 233 144 131 125 156 10 4 17 189 52 34 131 95 115 126 226 34 229 151 9 82 226 160 186 73 202 27 175 91 147 70 146 144 35 15 43 165 193 86 15 124 228 59 195 12 188 91 68 205 47 136 234 89 119 19 47 50 104 196 121 185 236 198 115 93 193 173 110 84 210 207 79 219 
51 135 123 98 171 152 145 171 85 189 252 170 96 178 207 123 163 45 114 252 93 111 179 238 133 191 208 214 161 59 82 197 143 253 48 123 126 130 52 171 14 143 217 9 185 117 140 131 88 9 196 178 8 136 74 235 225 138 20 230 183 7 126 149 67 36 60 27 121 123 71 182 44 6 64 246 50 183 197 138 58 140 106 142 251 244 57 125 18 64 60 41 139 133 231 230 180 246 95 142 
44 59 44 107 171 174 185 230 163 62 234 223 117 8 223 179 243 242 75 31 116 72 36 136 29 176 225 38 77 234 254 231 248 164 244 146 185 210 52 210 103 24 207 88 11 113 49 20 15 117 212 201 198 160 114 160 107 209 198 36 216 129 19 13 145 225 240 177 164 34 193 50 158 18 129 4 49 209 71 223 17 19 144 30 158 169 16 21 92 1 55 224 246 183 93 204 155 185 235 66 
237 114 25 135 83 8 88 107 43 156 173 32 143 48 40 40 27 82 108 136 218 0 205 229 67 134 78 8 205 76 167 22 218 133 136 10 49 255 151 3 73 121 249 116 214 168 86 37 145 63 251 143 178 100 221 2 237 155 25 0 119 57 32 208 122 159 100 134 252 181 116 119 34 61 100 166 52 213 112 9 126 174 25 163 61 158 188 74 91 135 25 215 117 131 229 248 234 200 89 189 
235 39 113 64 117 38 114 134 154 18 186 98 176 8 32 106 178 152 52 148 186 241 83 109 1 130 240 210 193 139 127 12 195 235 2 11 90 217 213 38 148 58 199 24 235 63 249 180 184 205 212 116 6 250 176 156 100 240 1 123 123 244 116 194 176 164 225 170 109 26 186 90 94 33 159 54 201 83 191 236 131 110 41 165 86 70 127 142 19 179 24 207 104 207 99 94 139 165 172 243 
45 246 32 212 205 202 208 136 132 95 5 3 79 130 9 60 207 59 59 61 222 163 43 89 114 10 186 69 247 177 47 50 106 45 82 193 39 161 203 175 178 14 69 214 177 143 127 195 31 250 72 150 169 76 147 206 222 169 235 49 43 197 162 90 42 75 114 188 106 210 130 224 153 168 196 250 92 126 12 13 248 36 69 81 33 62 147 220 24 248 7 162 35 48 29 151 144 130 0 154 
35 32 46 216 209 52 172 139 80 96 234 146 246 90 170 143 161 146 85 168 25 217 124 174 196 114 145 162 3 185 14 32 46 160 251 180 101 184 227 79 2 155 167 171 137 137 247 207 74 67 121 48 40 85 69 24 252 118 176 60 17 18 67 32 48 40 229 204 169 144 130 137 178 238 24 162 131 247 77 37 156 153 28 9 54 110 255 136 22 46 45 37 78 231 101 53 233 224 213 238 
11 251 2 0 56 66 90 238 16 23 96 69 29 180 198 87 23 151 231 107 32 154 179 5 174 213 162 122 150 234 203 134 211 168 151 119 0 44 151 208 42 63 129 159 131 129 38 96 107 134 201 207 195 0 61 178 52 195 132 254 232 48 191 218 145 127 71 120 181 186 191 46 128 156 35 20 212 251 131 58 242 220 98 206 117 141 64 196 132 65 196 164 181 199 20 18 105 241 173 249 
227 68 89 155 113 209 7 110 183 137 96 171 131 107 2 149 163 179 159 177 8 9 253 60 67 50 74 223 6 173 226 195 236 206 198 177 70 159 169 239 83 99 224 231 18 180 201 201 1 20 114 248 149 65 130 36 199 108 79 135 154 244 208 22 66 37 36 94 75 109 87 82 54 92 247 40 201 40 82 164 168 163 214 241 239 235 160 139 81 204 169 23 76 39 173 169 61 159 146 223 
240 164 109 9 203 229 135 107 221 203 18 164 71 151 162 120 188 203 219 108 136 194 111 44 180 22 182 120 192 249 45 150 134 118 190 167 38 64 172 250 61 110 9 163 221 217 155 70 46 196 11 11 143 217 199 73 154 156 46 36 25 230 43 75 217 172 199 105 146 0 170 238 7 154 150 55 201 193 170 160 70 233 123 167 61 148 207 158 133 80 40 97 202 48 180 148 101 78 66 49 
38 17 188 99 9 167 139 34 167 22 144 58 102 42 101 166 10 252 43 11 37 172 102 2 30 177 72 165 202 210 231 4 81 46 2 168 124 0 46 94 253 171 103 203 7 221 19 191 224 153 15 12 10 137 184 202 35 124 47 137 86 251 115 228 105 108 204 97 147 117 65 7 50 83 103 185 89 190 103 89 153 229 103 49 235 28 216 99 9 139 172 196 188 53 77 133 60 204 50 165 
81 164 189 174 244 24 72 179 58 47 170 67 71 69 108 133 254 196 197 15 80 153 62 189 138 55 217 234 1 29 172 218 248 66 81 105 219 80 64 86 87 242 253 125 43 37 215 101 121 239 171 176 229 250 218 51 17 37 209 64 225 230 171 170 242 254 65 142 250 189 186 155 69 245 106 141 211 63 37 81 239 10 127 250 34 250 229 241 166 20 87 139 42 12 24 195 152 210 96 223 
88 109 216 26 226 36 28 115 144 252 234 43 191 44 25 255 30 151 92 3 61 186 137 192 8 18 243 125 27 71 240 8 55 138 239 23 126 141 128 3 217 207 8 164 127 217 156 209 64 5 199 49 144 248 252 185 225 61 67 16 2 193 208 140 230 103 27 15 127 192 193 78 6 14 214 130 61 18 53 255 82 71 184 121 183 101 94 12 215 106 5 1 194 64 22 120 231 101 94 77 
232 77 90 83 227 216 129 50 73 88 158 154 24 225 58 175 245 105 127 112 96 231 64 136 178 114 152 50 50 110 108 135 249 206 137 8 220 138 238 156 63 238 44 46 251 99 217 224 131 107 111 236 31 112 236 7 54 217 165 193 181 227 204 218 107 186 42 190 156 60 10 187 211 189 254 97 20 121 236 237 198 4 50 51 145 64 60 114 85 38 72 70 109 62 2 188 138 89 40 167 
118 153 37 106 90 82 156 248 41 239 189 201 47 33 159 7 11 117 122 169 239 226 194 2 34 173 14 205 5 44 92 177 175 71 79 194 75 148 48 166 205 34 97 102 227 30 204 99 223 250 19 6 120 109 220 176 217 219 7 139 162 232 25 62 201 75 229 186 196 164 190 149 160 189 128 172 98 32 171 38 101 176 27 125 31 150 188 79 218 163 128 189 182 57 154 248 70 113 87 165 
56 61 216 201 33 24 158 235 64 44 250 175 20 236 111 35 6 24 184 181 161 110 21 154 168 33 170 160 103 204 57 57 107 52 237 64 5 72 132 157 58 104 193 170 173 204 67 49 215 187 250 100 41 114 87 200 143 34 30 126 208 224 125 233 15 208 26 122 188 123 49 96 198 143 2 136 203 44 120 130 157 113 226 49 228 172 185 42 10 191 25 251 104 149 196 231 173 130 172 39 
212 65 91 80 6 15 177 166 143 229 184 183 4 225 101 64 48 70 72 212 112 103 238 47 248 36 186 55 167 210 194 129 94 157 22 7 251 39 199 168 226 90 196 65 78 73 166 30 248 171 221 100 203 145 62 203 221 183 113 66 166 35 255 136 116 217 78 112 221 123 61 186 127 172 67 3 88 178 191 241 221 119 65 157 73 221 163 50 179 15 77 61 139 240 202 81 181 204 158 103 
190 41 142 244 39 101 156 111 233 59 69 165 164 243 115 108 198 5 34 133 148 133 137 168 237 107 130 142 82 157 184 57 86 134 178 97 134 152 178 196 83 109 108 217 193 205 42 127 57 89 95 189 248 93 0 103 233 236 16 121 164 244 57 107 178 35 22 15 52 100 171 217 203 104 25 174 250 57 27 75 28 244 173 64 114 130 158 75 71 116 147 81 96 202 200 49 247 147 136 172 
40 17 106 252 198 40 18 55 34 95 115 120 129 41 152 128 104 226 177 205 249 81 216 134 147 3 232 230 180 186 213 184 250 227 7 45 238 252 156 20 224 217 209 113 20 105 137 213 159 57 186 41 78 67 29 159 219 153 106 83 128 72 41 64 28 128 119 186 145 173 1 39 204 183 37 27 138 43 187 111 190 22 80 27 103 135 22 230 217 249 108 45 164 95 158 248 213 105 26 89 
242 57 218 233 77 98 63 244 71 152 204 174 32 126 124 179 90 183 14 213 26 207 85 111 129 33 185 18 146 28 123 247 235 38 83 254 148 30 229 12 11 72 37 191 8 161 71 18 134 204 15 202 99 159 215 60 246 165 92 22 35 58 76 47 147 192 237 188 53 38 182 192 250 230 38 216 244 241 221 118 3 50 55 47 183 253 32 111 225 240 233 210 56 133 187 229 117 112 202 116 
128 169 61 72 81 232 235 181 183 121 231 161 41 50 163 206 160 44 41 147 178 137 252 89 223 37 126 181 87 240 123 15 194 145 145 9 161 58 111 51 42 218 117 137 144 248 243 233 92 148 47 62 147 154 173 81 151 251 4 11 215 203 153 116 124 222 163 145 139 71 252 243 227 78 18 71 255 55 140 25 244 53 228 117 202 249 0 243 112 82 247 184 62 5 62 106 158 95 69 246 
189 222 59 134 167 105 165 83 29 72 169 29 144 17 124 147 196 203 80 253 71 189 143 30 231 233 133 224 145 18 227 190 18 101 235 83 148 28 41 76 19 241 38 128 8 222 243 223 8 151 17 245 127 105 17 159 73 212 26 74 225 41 74 31 169 195 241 104 66 117 217 110 224 171 114 114 128 212 11 141 120 225 48 45 253 35 205 194 223 9 112 94 212 48 88 16 13 13 63 84 
181 0 131 106 166 120 139 32 38 196 10 31 241 250 89 39 208 35 214 90 128 168 126 84 184 66 69 83 9 215 125 216 29 253 52 236 241 60 170 131 91 164 6 94 248 118 232 179 5 190 12 208 253 113 141 235 163 70 255 181 117 151 164 96 225 197 187 61 106 59 87 131 145 106 130 227 179 171 208 48 32 254 235 225 195 186 50 55 231 126 120 39 224 68 182 169 109 32 23 11 
7 69 195 99 21 251 93 14 201 3 0 249 232 41 165 189 200 187 115 96 72 131 216 123 231 212 168 165 244 244 211 15 40 6 93 20 24 136 190 95 239 78 177 98 124 87 155 103 112 55 94 192 252 139 191 178 24 62 233 156 88 146 87 124 145 162 137 150 246 165 242 204 33 77 50 155 8 100 52 128 231 2 87 70 149 152 19 199 247 2 36 201 152 212 197 47 217 92 68 229 
74 244 98 155 233 114 1 31 210 241 161 87 199 55 227 156 136 95 20 83 41 156 222 37 77 65 53 197 186 42 41 213 31 209 219 107 166 73 182 194 98 229 200 60 26 255 90 32 168 35 243 64 29 253 76 225 193 245 247 84 8 232 130 153 183 28 238 90 248 189 108 200 157 66 151 133 195 98 73 200 253 130 220 28 77 116 48 234 48 103 188 129 8 232 155 189 94 246 219 129 
55 254 156 50 238 118 227 58 99 205 88 146 142 62 168 236 125 114 220 83 112 200 141 254 75 71 28 148 171 100 13 202 19 197 164 75 103 144 40 62 167 17 205 128 120 250 138 101 86 118 120 1 23 28 52 179 162 91 48 244 184 194 127 118 141 166 232 179 242 143 34 133 162 50 238 20 180 182 246 109 168 14 126 155 35 10 193 230 176 1 211 98 48 78 29 101 22 25 99 145 
55 220 236 46 116 34 191 150 184 216 205 119 102 236 121 146 200 134 132 161 95 225 117 71 53 220 77 178 148 21 202 223 227 207 72 116 155 237 42 2 222 40 103 164 247 233 195 182 107 105 71 203 54 214 37 181 120 135 103 80 110 238 139 228 158 114 144 150 195 156 132 183 39 221 38 95 32 19 183 178 193 90 136 39 4 192 134 230 126 94 98 224 124 218 105 15 178 0 105 124 
186 84 52 220 177 4 151 58 185 186 111 25 255 20 15 230 44 196 0 66 86 45 163 134 24 151 250 221 232 3 247 54 131 189 0 86 143 223 19 22 6 85 38 95 86 81 236 52 170 134 76 238 241 98 2 62 147 31 81 79 223 241 114 29 37 186 200 24 250 173 2 248 93 177 26 99 73 249 215 255 5 123 160 139 159 48 10 62 177 87 8 185 237 145 77 236 86 23 126 226 
249 177 232 105 118 173 186 110 87 233 107 30 170 177 243 233 227 51 216 13 14 68 43 248 126 178 110 191 161 77 17 78 116 160 128 42 167 200 143 178 185 108 226 93 77 174 138 130 65 40 252 63 102 219 0 22 233 138 119 205 189 33 200 99 210 92 157 189 27 216 91 60 133 212 226 4 190 73 190 245 214 39 175 172 132 125 132 121 181 164 150 14 245 208 226 151 159 122 231 192 
120 90 246 237 236 73 222 134 36 76 247 199 80 215 22 47 216 252 5 185 208 42 220 63 249 38 74 235 39 129 80 232 253 131 190 113 133 163 189 101 52 57 117 91 210 200 210 55 216 41 246 63 253 140 136 87 14 67 117 127 113 91 133 89 125 185 122 125 137 90 45 6 177 19 7 104 160 115 228 252 43 4 155 56 68 0 164 211 85 238 135 28 250 61 174 149 81 46 129 232 
62 244 183 213 117 245 114 130 50 84 6 196 1 24 50 63 105 234 100 227 238 102 91 21 66 188 54 47 245 90 237 192 134 194 98 205 49 144 191 172 91 100 212 236 34 197 235 81 216 102 66 48 233 244 114 208 196 103 106 157 24 222 61 129 227 102 199 217 220 125 131 34 115 160 236 242 118 131 3 33 139 82 237 39 179 225 43 195 185 183 20 46 76 58 90 168 38 30 226 31 
6 30 197 192 61 177 226 23 140 44 41 74 248 51 252 110 236 184 199 109 26 220 246 222 174 171 13 113 81 27 0 217 201 203 86 118 102 43 41 41 255 18 23 153 166 242 132 173 110 227 112 97 186 0 196 138 117 188 251 59 9 12 204 56 117 8 206 54 219 150 155 30 208 40 236 184 63 71 53 62 51 107 150 43 163 165 154 30 25 81 182 191 60 137 217 141 47 226 33 84 
198 130 153 168 199 43 101 130 22 23 124 131 67 150 184 156 14 254 53 203 207 172 115 27 216 40 93 112 44 61 0 23 108 92 18 116 65 232 18 204 114 113 34 230 87 195 60 59 220 227 115 111 210 23 138 251 208 199 221 65 157 8 12 207 252 172 106 100 31 46 163 19 214 189 66 87 172 52 118 65 172 87 111 21 157 103 2 56 161 109 108 50 37 21 186 128 110 213 161 242 
95 229 4 73 72 129 160 24 191 114 62 123 122 207 34 82 118 110 55 102 159 252 90 41 247 192 245 171 34 166 140 117 58 76 191 102 85 52 114 151 20 2 234 179 173 143 215 43 38 31 240 91 101 61 220 184 83 21 137 189 175 248 31 135 170 123 76 66 41 73 153 30 66 50 130 139 151 165 223 188 14 42 138 210 177 145 204 184 110 38 4 219 11 103 89 156 197 25 26 243 
67 168 6 40 131 222 113 215 25 15 49 213 95 239 2 220 126 13 58 199 244 229 212 250 158 14 129 255 131 48 127 176 72 222 237 10 62 178 174 243 138 230 63 249 189 228 155 217 75 7 94 225 3 61 195 194 30 138 11 61 147 160 112 82 185 187 188 236 4 56 111 121 79 114 209 241 88 15 148 102 82 210 150 20 73 232 205 90 251 5 90 135 214 151 162 150 42 95 203 49 
117 84 15 191 16 48 163 16 80 34 243 234 237 176 132 100 61 166 66 249 218 156 73 209 235 76 142 5 218 178 143 81 227 125 93 35 97 251 155 194 143 214 26 18 216 207 109 88 199 115 245 65 78 221 149 247 166 146 98 139 175 93 197 176 191 181 137 215 106 6 154 20 156 54 62 192 177 130 117 83 85 105 141 141 74 121 231 0 242 124 165 5 123 81 135 74 248 135 16 157 
14 133 2 221 250 207 85 200 31 254 191 127 136 180 106 84 253 81 4 154 163 92 43 50 182 146 20 88 169 110 203 192 125 29 62 14 142 176 211 213 42 250 38 72 132 165 26 129 202 160 95 71 92 181 83 255 13 59 22 192 11 170 231 106 8 96 1 138 105 4 158 14 221 252 236 78 176 87 156 78 59 35 101 181 210 227 96 8 169 161 183 62 69 152 154 249 6 111 157 142 
53 61 223 132 226 45 121 138 218 74 209 190 181 117 137 142 50 2 21 221 117 243 194 207 240 103 43 211 166 90 180 15 5 241 54 44 189 177 118 33 95 152 106 60 85 65 191 10 226 151 109 178 189 27 0 242 148 180 233 164 161 142 166 244 17 162 242 0 172 201 108 104 144 228 201 143 170 197 220 39 245 118 15 206 77 177 217 185 78 46 172 215 197 47 254 180 112 148 33 243 
169 197 78 217 224 12 181 90 186 154 41 231 191 182 85 212 84 173 59 255 71 166 154 21 157 199 128 203 76 31 96 213 201 237 198 237 148 94 7 100 151 55 37 145 66 254 106 21 180 140 200 136 56 42 82 69 13 19 99 158 192 180 192 197 193 79 19 163 41 124 58 167 66 81 182 154 122 176 251 86 175 130 213 81 92 229 235 53 234 29 31 255 44 143 251 158 249 254 206 115 
30 127 148 55 134 113 105 67 246 123 26 212 57 129 254 64 77 56 59 168 62 230 79 192 119 228 65 84 55 186 151 15 205 175 134 151 43 174 144 90 16 86 141 186 223 252 152 90 52 41 126 110 127 70 214 182 149 109 179 242 121 210 101 106 126 214 165 163 135 34 210 224 111 205 176 138 248 174 214 192 9 249 114 60 110 12 101 215 55 21 31 79 63 176 132 221 57 85 189 114 
17 72 82 216 180 22 19 230 199 115 17 125 7 225 100 182 38 113 134 173 45 3 223 221 118 248 42 34 112 71 176 92 105 26 5 177 204 12 171 38 236 69 52 63 187 116 0 183 52 130 13 245 90 55 105 8 99 80 112 100 131 32 103 40 98 183 41 138 135 226 120 26 151 69 140 159 241 81 167 12 125 98 230 0 8 27 217 6 147 154 188 232 243 122 95 10 42 18 9 9 
241 229 47 79 230 77 62 156 36 24 114 82 65 62 104 14 119 129 241 203 11 4 19 50 254 107 231 227 32 174 125 156 246 20 193 6 25 232 63 236 174 82 162 56 78 203 36 2 208 215 42 243 3 213 120 37 220 204 189 190 105 240 192 157 157 11 183 14 204 221 36 49 114 216 108 71 223 131 98 102 67 17 212 4 162 191 152 128 139 75 84 157 169 67 232 148 58 126 128 65 
92 165 44 212 115 221 129 230 174 26 251 44 213 33 187 115 43 65 244 224 154 245 219 171 136 218 159 238 232 246 209 241 24 175 89 162 150 30 110 229 126 35 86 4 238 18 238 181 102 78 123 66 141 130 166 244 164 232 49 103 8 141 212 139 90 52 19 47 31 249 130 182 81 64 232 135 179 40 219 172 255 109 20 195 212 31 208 158 154 168 86 169 84 131 63 157 189 73 77 44 
129 119 42 63 115 130 170 252 251 52 239 252 237 215 84 213 250 251 200 134 105 248 255 253 218 40 248 230 107 56 31 107 237 154 100 177 50 101 115 125 238 178 148 174 87 1 24 246 37 29 167 217 103 113 229 189 37 244 231 112 232 37 232 109 152 193 63 161 246 12 44 231 216 100 203 134 1 102 190 158 115 57 39 186 180 90 35 241 105 67 122 233 28 157 145 12 135 17 8 127 
176 190 209 160 9 145 159 142 89 241 171 235 39 27 199 7 232 27 105 180 168 168 47 86 211 156 35 130 152 67 24 178 216 122 227 133 81 246 183 76 200 189 249 90 197 205 130 59 120 136 4 200 132 134 255 238 32 46 30 28 117 202 74 151 236 223 173 108 225 110 94 51 194 112 225 119 196 139 248 76 119 233 38 228 184 158 216 88 179 243 188 174 246 57 45 39 96 248 184 62 
154 147 157 36 132 66 225 138 34 210 67 166 35 192 168 141 176 6 37 89 107 233 208 144 100 39 10 148 172 2 199 1 20 137 86 100 1 172 179 171 206 86 121 21 0 119 27 38 144 37 68 199 42 111 66 119 119 166 166 232 158 210 178 226 204 120 92 214 151 16 139 34 248 89 216 57 80 36 110 6 171 174 139 111 170 222 178 49 38 175 14 198 55 79 147 246 194 147 161 30 
88 79 1 204 26 43 114 51 214 91 115 102 231 255 165 83 151 14 77 159 119 65 245 211 81 197 72 195 162 20 161 217 198 118 196 39 47 14 93 47 103 241 2 104 49 243 23 208 77 224 190 22 126 164 83 36 49 30 10 51 57 66 220 232 99 75 234 20 191 230 124 44 14 2 194 53 44 252 212 139 133 61 60 65 92 220 128 235 47 42 69 218 50 36 15 77 217 74 223 117 
24 228 101 173 82 27 228 142 103 160 188 193 147 55 69 219 164 17 131 134 8 200 129 175 21 242 29 30 72 173 145 146 233 22 192 110 230 21 206 73 63 121 52 249 83 85 1 158 67 22 234 64 221 0 136 240 222 148 89 46 182 194 22 231 72 231 177 79 39 64 118 11 194 77 141 32 152 177 197 45 50 9 6 164 202 74 4 49 217 214 121 176 226 5 253 123 28 29 228 218 
236 11 206 162 5 78 60 188 93 207 48 101 91 158 69 36 45 161 74 20 3 250 48 23 14 234 72 80 45 11 200 105 188 143 206 193 48 5 188 252 193 242 120 10 134 221 164 92 76 140 187 195 49 145 159 103 205 103 217 189 240 38 127 219 7 209 6 231 147 46 225 193 146 255 213 5 96 131 237 228 229 61 192 202 80 221 129 4 109 152 240 242 250 70 16 202 173 49 0 195 
9 83 40 171 15 58 190 205 215 25 211 204 117 217 142 240 167 197 147 68 21 54 206 37 205 222 249 228 204 89 78 199 138 159 120 57 127 169 179 91 144 229 201 189 176 210 227 198 47 135 194 1 253 244 236 31 141 168 241 79 116 27 21 196 232 79 136 120 193 120 232 236 8 172 23 46 65 48 197 216 50 247 128 89 9 211 155 239 80 123 36 189 60 152 12 42 19 20 18 116 
199 77 100 112 141 147 251 245 213 250 169 124 203 244 44 196 7 14 101 138 144 145 126 61 1 111 248 122 20 208 147 109 224 173 180 12 227 169 68 87 117 246 250 53 97 12 78 155 203 174 76 247 132 161 103 229 103 68 62 11 77 169 55 59 138 113 241 96 17 243 177 138 82 238 64 107 232 221 183 16 74 53 134 197 184 189 54 147 248 225 166 250 187 141 231 99 72 160 239 110 
173 197 110 197 100 121 45 104 84 50 123 161 140 42 123 90 228 219 156 110 65 253 0 118 115 199 83 120 124 217 96 83 177 238 210 47 235 49 81 162 58 145 131 10 150 181 147 72 238 183 213 145 181 138 26 62 126 55 111 58 54 191 12 66 71 156 97 199 220 160 187 19 132 167 8 48 149 0 197 211 182 188 159 139 51 90 179 38 196 71 141 161 20 66 191 25 141 228 5 204 
208 156 205 45 207 108 90 194 57 246 180 97 103 63 4 231 33 153 108 56 16 159 47 106 165 167 178 36 212 34 28 160 167 32 146 5 174 193 245 132 91 80 235 5 105 21 252 151 95 192 248 238 34 133 238 92 196 153 43 112 3 158 167 128 150 29 59 195 109 241 134 6 184 85 67 114 94 107 182 146 113 241 174 5 76 88 80 145 112 91 186 44 88 89 149 170 217 239 44 179 
81 108 63 81 203 92 177 222 102 106 135 210 134 223 142 17 132 233 151 150 245 160 196 241 23 107 62 246 21 75 209 20 35 215 96 27 160 225 1 21 229 41 104 48 48 144 252 142 245 245 66 232 35 91 162 128 28 65 255 63 163 34 123 85 43 206 109 87 7 235 33 170 64 141 194 31 175 33 173 172 113 93 14 159 20 152 160 108 238 147 41 104 164 217 162 3 26 25 138 82 
203 231 104 245 67 125 59 211 177 120 3 60 122 17 86 40 196 55 171 255 65 8 97 60 121 46 36 87 255 5 84 181 116 234 154 158 21 220 72 130 92 162 60 32 34 135 0 162 148 245 181 114 209 72 88 6 210 87 9 225 20 69 153 62 130 126 19 40 193 218 254 75 63 218 138 204 253 47 120 147 17 20 179 253 168 240 136 32 168 221 64 47 96 148 26 30 84 88 48 132 
113 252 203 23 106 192 153 58 175 34 191 110 132 218 123 130 133 74 33 75 43 173 47 94 39 6 49 136 250 45 218 84 168 165 113 152 50 98 119 164 110 170 208 21 208 149 110 225 126 226 90 51 100 44 238 134 199 66 177 175 117 91 135 70 160 150 249 189 151 45 45 35 35 149 10 171 161 158 210 202 247 156 120 87 149 56 162 190 197 134 165 28 102 130 34 45 189 136 162 41 
74 123 199 31 159 156 109 238 97 157 156 79 43 18 76 91 114 49 51 143 188 100 219 92 131 136 130 79 249 63 28 22 187 171 245 246 161 84 159 212 3 49 14 53 109 3 244 212 91 95 150 83 168 177 188 110 7 120 116 52 115 102 239 232 128 80 208 4 178 125 98 56 70 117 0 71 244 235 21 48 229 89 249 121 30 112 75 61 17 101 224 8 237 167 90 52 107 24 12 202 
205 173 244 160 93 237 30 201 209 13 153 53 179 81 228 80 7 176 224 227 195 188 254 59 253 249 219 149 137 240 146 78 14 253 191 111 197 7 88 81 188 124 205 253 214 163 96 80 211 190 88 231 119 126 250 166 4 138 87 87 107 197 62 65 220 14 147 79 99 218 247 68 130 155 219 74 92 169 192 77 185 68 40 76 168 25 255 51 130 175 211 150 96 244 126 88 65 187 128 16 
236 189 142 219 97 33 215 197 79 128 199 122 138 170 28 118 112 202 91 84 42 242 114 234 21 63 113 16 123 142 64 179 149 13 96 71 95 14 150 150 232 52 97 0 114 6 6 198 62 64 19 238 231 147 73 68 151 22 117 117 217 155 68 108 252 118 87 224 117 59 119 164 67 102 126 71 99 128 67 166 229 162 252 19 197 150 236 87 74 91 66 116 208 166 120 62 164 2 108 14 
183 26 139 129 69 80 244 2 23 64 71 142 81 80 44 216 201 41 36 36 139 131 51 225 244 235 77 215 2 49 185 162 204 117 99 176 127 4 138 202 166 197 148 199 219 66 195 211 17 77 210 134 52 90 7 45 44 25 216 234 115 61 5 13 127 11 15 77 40 148 88 150 116 161 192 47 8 213 6 72 137 210 116 117 120 186 11 156 214 30 96 200 57 81 94 96 19 102 123 189 
83 236 186 100 122 164 190 233 49 67 227 95 97 126 12 240 203 109 22 196 2 232 48 44 188 248 176 104 41 129 9 2 242 115 97 218 70 113 12 3 201 52 68 51 26 228 195 23 252 11 64 34 216 81 148 172 210 161 187 73 98 211 222 27 137 44 148 75 136 171 8 13 22 235 111 237 228 162 153 79 142 141 51 37 255 45 253 102 225 31 157 166 206 9 219 75 175 228 252 176 
20 34 123 255 126 224 236 14 169 196 210 214 208 4 80 54 243 150 250 216 78 136 151 149 34 140 133 163 162 48 18 45 200 212 67 154 206 228 214 36 47 186 136 152 202 208 81 1 81 207 245 58 25 238 91 169 253 155 71 208 198 2 199 223 54 134 46 183 164 95 51 204 25 162 195 67 86 252 254 51 170 124 36 219 110 246 20 92 82 165 69 184 100 195 245 199 2 174 137 147 
141 103 59 168 188 175 178 220 179 115 127 230 249 250 86 151 105 153 206 138 197 188 22 237 6 76 169 161 225 67 114 187 86 121 178 84 106 118 253 193 49 183 255 73 149 64 139 63 87 105 216 250 42 115 160 176 83 154 130 183 142 164 94 187 36 10 252 170 147 189 37 49 36 39 191 15 144 152 44 188 67 36 160 252 114 56 46 60 78 140 128 58 113 170 195 176 24 55 104 10 
112 112 18 146 83 162 248 26 248 235 182 39 226 151 217 203 24 161 121 16 29 60 225 221 129 120 204 223 166 218 215 237 193 5 92 93 113 4 95 85 148 101 50 47 41 140 98 208 93 198 55 153 71 136 244 36 250 215 34 229 185 52 52 59 141 63 171 200 141 245 117 115 64 169 173 136 147 35 248 88 64 180 11 193 114 37 68 47 191 147 59 112 122 227 54 249 194 195 118 149 
114 150 177 123 222 174 49 47 79 152 145 53 159 58 23 216 76 129 254 228 42 110 102 241 103 223 214 121 128 7 187 215 30 121 150 227 92 75 176 235 166 65 57 27 25 198 105 116 233 135 154 229 128 137 201 180 122 212 64 84 30 16 97 113 8 151 44 49 169 47 111 237 77 236 101 47 249 252 248 34 185 254 166 173 167 137 117 206 242 75 65 14 211 229 151 231 16 128 181 60 
247 227 71 36 131 3 64 95 171 101 207 23 212 246 209 40 213 23 147 37 212 3 9 232 70 134 177 31 104 161 71 39 183 182 18 130 245 70 218 179 124 31 4 172 226 89 52 158 15 181 230 21 191 127 174 181 192 8 13 147 224 230 172 106 11 82 175 44 76 35 135 220 52 138 173 187 71 54 238 193 102 217 220 87 41 127 169 247 50 202 117 118 89 185 32 198 34 129 218 121 
62 92 66 39 18 74 94 171 136 237 211 144 78 177 107 250 28 224 163 163 80 45 50 83 130 174 94 160 176 0 28 122 208 192 97 78 22 36 68 153 181 38 67 144 97 176 84 183 39 32 96 239 235 151 164 191 210 221 26 30 21 121 121 29 59 130 251 197 84 105 107 87 192 198 43 108 246 232 168 53 240 101 137 233 185 65 87 101 95 161 33 0 247 166 11 108 108 85 207 231 
