P3
10 10
255
0 0 128
0 1 128
0 2 128
0 3 128
0 4 128
0 5 128
0 6 128
0 7 128
0 8 128
0 9 128
1 0 128
1 1 128
1 2 128
1 3 128
1 4 128
1 5 128
1 6 128
1 7 128
1 8 128
1 9 128
2 0 128
2 1 128
2 2 128
2 3 128
2 4 128
2 5 128
2 6 128
2 7 128
2 8 128
2 9 128
3 0 128
3 1 128
3 2 128
3 3 128
3 4 128
3 5 128
3 6 128
3 7 128
3 8 128
3 9 128
4 0 128
4 1 128
4 2 128
4 3 128
4 4 128
4 5 128
4 6 128
4 7 128
4 8 128
4 9 128
5 0 128
5 1 128
5 2 128
5 3 128
5 4 128
5 5 128
5 6 128
5 7 128
5 8 128
5 9 128
6 0 128
6 1 128
6 2 128
6 3 128
6 4 128
6 5 128
6 6 128
6 7 128
6 8 128
6 9 128
7 0 128
7 1 128
7 2 128
7 3 128
7 4 128
7 5 128
7 6 128
7 7 128
7 8 128
7 9 128
8 0 128
8 1 128
8 2 128
8 3 128
8 4 128
8 5 128
8 6 128
8 7 128
8 8 128
8 9 128
9 0 128
9 1 128
9 2 128
9 3 128
9 4 128
9 5 128
9 6 128
9 7 128
9 8 128
9 9 128
