P3
5 5
255
83 231 47 220 214 9 92 119 237 23 90 6 125 170 197 
222 175 123 116 17 6 88 110 141 83 81 224 182 32 58 
91 89 241 254 123 200 23 213 245 112 65 9 96 0 128 
139 197 134 1 29 232 219 233 169 168 240 195 254 30 152 
142 73 73 204 162 222 70 153 112 102 79 25 94 23 150 
