P2
100 100
255
194 42 122 190 253 196 52 242 208 124 221 42 228 46 81 164 0 94 169 69 201 72 248 201 167 31 51 169 117 198 62 162 136 169 123 56 174 149 77 14 203 161 215 58 255 61 189 45 48 88 143 133 51 58 186 191 126 147 235 244 44 153 161 155 158 167 55 107 133 151 79 218 93 135 151 90 138 157 67 6 198 110 99 215 53 188 235 120 23 53 211 96 71 187 11 172 190 225 88 39
153 109 7 63 142 122 239 76 15 149 157 88 184 140 54 33 100 36 226 232 89 44 147 128 229 6 93 142 159 187 44 167 84 3 185 198 234 236 229 155 255 126 84 55 197 46 166 6 85 170 186 244 244 125 67 222 234 220 20 167 204 62 196 174 150 40 205 46 231 127 20 198 67 196 117 72 39 245 213 106 82 178 182 47 188 97 108 179 208 204 118 209 138 192 27 68 38 54 15 71
154 80 86 115 228 21 33 220 129 160 245 3 10 215 113 107 238 205 243 181 67 170 41 236 238 27 47 149 80 131 149 54 179 131 91 219 247 198 170 197 24 74 167 225 12 43 240 133 134 244 55 66 91 26 1 45 234 189 219 17 242 3 58 233 19 75 149 0 137 240 117 250 202 153 55 228 102 134 254 114 123 51 164 13 37 57 165 56 169 48 119 164 100 203 73 47 160 113 219 48
206 172 157 70 71 187 120 206 26 212 213 157 210 1 151 147 180 41 66 72 160 133 149 105 91 149 86 89 79 154 248 229 72 94 88 1 133 252 104 129 12 208 174 52 201 94 249 53 6 237 3 44 96 8 207 135 224 1 84 8 76 130 85 46 67 171 200 60 13 68 151 113 71 8 61 116 16 25 109 128 140 3 193 214 144 103 176 159 67 207 5 243 86 29 94 209 169 143 88 101
84 6 14 125 158 81 127 14 102 113 61 151 196 203 247 184 36 26 58 237 215 220 47 93 30 82 175 202 53 55 116 121 218 241 51 31 2 113 15 127 35 55 61 32 43 61 29 106 32 78 133 184 124 38 2 223 176 30 2 74 66 118 68 4 208 72 106 74 51 127 111 54 30 168 65 113 229 65 79 32 71 22 185 220 208 92 217 146 229 172 150 195 216 36 48 54 81 196 163 12
71 57 160 174 252 41 86 96 25 86 250 103 56 178 53 14 111 17 213 127 148 201 94 205 20 116 232 35 249 224 13 71 76 55 132 130 20 143 82 109 197 43 112 41 218 22 244 240 144 218 3 201 130 136 161 4 120 46 229 158 56 144 130 116 127 191 146 43 170 87 159 207 244 119 240 150 166 155 218 90 119 213 102 19 218 220 181 49 250 252 145 190 203 115 135 7 252 186 72 200
123 98 75 193 117 90 61 68 8 114 172 109 130 43 151 33 48 146 202 255 210 44 30 106 25 246 19 175 153 110 213 149 230 66 71 238 236 171 30 244 109 102 83 93 194 150 70 158 56 83 128 129 68 244 200 83 143 165 243 151 147 162 147 113 234 31 61 4 141 210 155 70 255 14 220 16 140 90 131 151 49 165 10 198 150 60 43 82 132 165 21 155 102 115 62 238 149 136 126 121
158 9 100 214 228 152 236 238 155 132 232 173 201 242 91 207 144 127 194 69 200 11 133 137 99 201 63 22 135 249 135 236 100 23 93 182 251 164 30 67 64 28 44 183 101 111 76 100 146 106 24 32 205 158 236 191 157 74 2 128 95 228 181 77 131 97 111 91 136 141 90 7 114 169 14 45 11 192 216 85 183 130 71 186 151 38 7 210 37 150 18 90 55 176 98 130 212 115 198 47
20 218 51 120 124 188 114 3 95 95 121 175 143 32 85 169 219 190 141 1 62 14 204 184 173 189 201 42 18 215 241 57 59 191 245 137 73 49 195 147 251 244 114 122 4 197 227 29 191 172 139 122 45 186 69 232 70 68 141 208 137 18 61 116 90 177 187 140 229 226 254 232 212 206 164 233 209 78 26 157 158 65 207 134 78 182 20 26 122 121 185 212 141 88 158 232 90 144 179 144
174 179 112 45 74 154 228 68 102 65 98 130 120 121 139 60 176 253 69 229 90 178 32 92 34 77 162 65 118 22 58 103 213 129 222 112 41 89 135 148 190 155 232 10 98 228 220 106 153 122 91 198 141 36 162 160 2 29 66 204 243 162 146 239 179 31 198 6 226 12 141 46 104 61 172 132 16 20 221 175 174 78 18 225 17 84 74 220 171 145 21 176 133 14 155 57 168 95 219 227
177 210 120 179 197 204 237 219 155 88 205 249 111 168 146 175 215 117 101 215 98 51 124 199 90 188 106 153 17 218 69 36 191 219 235 244 149 98 31 54 98 184 112 60 207 126 151 143 252 55 145 15 56 175 132 213 139 149 69 130 145 29 143 88 86 52 198 202 169 108 150 191 185 184 210 31 215 154 63 133 86 167 22 42 143 224 47 23 235 156 240 235 203 92 27 35 203 7 124 77
150 64 166 183 164 55 6 178 235 64 180 156 147 113 174 220 143 101 31 32 134 219 70 210 48 210 234 125 40 242 191 32 72 110 107 97 63 93 172 146 81 135 241 203 36 181 171 41 201 192 49 115 81 208 25 102 149 177 94 56 239 65 240 114 18 189 185 66 8 188 92 59 123 214 60 41 21 121 210 68 98 93 132 200 241 128 236 195 122 105 9 153 183 87 53 235 24 3 171 240
255 145 6 197 177 147 177 136 67 45 22 37 217 227 251 81 58 91 249 163 248 134 162 42 77 43 101 102 193 168 50 194 8 113 126 103 207 147 237 24 167 228 153 60 142 79 180 229 65 112 64 114 229 15 93 190 231 89 244 103 162 40 78 88 207 131 39 175 122 250 119 44 54 214 235 132 221 70 88 168 255 180 46 204 67 96 198 115 123 129 214 159 170 236 130 249 165 135 178 166
163 104 203 239 251 242 182 107 154 115 100 108 240 2 142 150 228 92 227 180 247 148 223 189 94 113 193 187 125 129 48 74 89 88 56 240 61 154 104 9 18 115 125 27 53 141 116 120 88 239 116 137 154 24 22 173 10 146 147 34 248 159 4 170 27 63 42 198 36 52 110 214 175 14 21 63 134 18 49 99 140 227 41 255 6 37 208 232 11 145 171 177 233 35 100 30 172 15 6 56
184 28 26 115 212 94 26 106 20 115 199 116 192 64 253 4 250 184 246 185 101 206 4 169 122 143 194 35 96 53 173 59 180 67 101 169 31 194 33 28 43 165 238 230 169 95 227 63 7 128 25 196 118 71 149 26 9 63 218 162 130 169 139 110 157 245 30 115 46 185 119 23 146 191 38 128 26 243 99 83 33 4 199 76 166 180 43 186 206 162 54 75 182 54 86 175 21 32 92 24
169 81 252 195 31 114 167 192 158 201 45 80 140 206 34 5 95 244 58 241 74 70 90 144 246 71 72 232 203 115 221 95 95 151 200 162 175 174 185 127 248 183 191 253 16 240 238 184 56 225 49 119 25 173 39 174 159 108 242 142 97 248 182 144 29 25 135 90 68 186 113 180 56 104 81 168 82 131 200 108 230 178 57 147 17 33 200 191 194 66 128 171 155 36 14 40 0 107 100 118
107 116 247 123 236 87 73 14 13 106 34 201 47 49 39 208 7 106 83 193 149 62 90 137 156 146 219 156 35 33 218 97 213 91 120 28 93 125 99 89 109 149 54 200 210 149 156 86 15 235 104 164 191 189 109 245 53 59 186 115 209 23 101 168 143 65 82 205 208 129 174 53 142 224 24 79 156 146 231 43 169 32 53 181 137 241 75 35 20 174 149 230 241 11 203 84 27 217 208 76
155 75 189 46 23 158 8 118 76 235 240 117 91 128 176 185 30 249 174 11 196 162 250 194 58 65 207 98 28 166 197 112 150 135 20 128 12 209 146 220 156 240 165 139 105 60 9 117 32 76 22 102 229 15 30 101 54 40 129 55 125 9 184 111 113 58 51 133 236 175 251 102 199 190 73 222 97 188 14 224 183 13 148 96 40 72 239 33 254 189 80 74 69 11 112 91 91 117 249 194
202 55 173 224 210 157 240 241 26 19 233 190 197 93 104 165 29 230 34 118 166 52 135 115 117 253 34 197 241 11 52 96 177 190 155 101 13 153 165 177 173 50 128 234 30 181 234 39 142 186 219 42 241 57 252 65 251 46 251 128 115 18 244 192 250 87 22 34 8 237 136 191 224 165 227 253 37 253 65 224 39 101 233 128 95 110 205 23 226 85 82 51 91 87 143 141 219 146 57 213
143 23 95 216 56 251 15 177 97 41 25 60 210 105 252 71 74 75 191 194 170 85 30 38 209 222 248 74 239 51 104 246 84 91 8 7 229 20 188 151 145 137 34 147 84 46 161 55 108 255 135 120 80 115 61 121 223 72 215 11 128 158 95 231 180 10 74 215 97 228 20 60 133 178 177 192 124 12 73 248 169 254 186 215 55 68 94 191 122 186 103 164 153 65 30 201 74 38 246 126
163 162 45 158 12 206 145 151 198 12 153 156 130 55 249 64 71 57 110 71 68 22 13 95 160 65 101 72 203 119 192 214 24 56 192 151 196 43 136 78 131 207 230 239 44 238 84 191 172 237 104 25 163 253 166 88 138 244 0 76 157 246 6 96 189 58 138 142 76 57 120 174 139 149 2 233 4 31 135 176 231 46 208 176 73 8 106 101 128 58 247 8 235 155 149 211 103 37 82 56
181 30 156 208 33 138 16 208 104 18 217 44 187 11 109 189 153 91 85 51 67 202 195 168 144 24 161 231 86 200 216 116 245 33 56 251 154 110 251 153 77 165 79 49 106 237 105 214 200 86 180 64 13 71 86 115 183 131 65 90 120 0 109 216 23 105 87 2 85 49 237 127 43 186 88 180 22 87 1 152 6 74 56 42 114 107 143 177 140 110 19 11 207 160 251 255 53 203 215 93
121 116 32 231 229 137 125 237 24 103 189 15 29 49 61 249 229 9 14 45 225 135 188 99 50 202 95 130 228 142 94 170 208 86 5 147 65 113 161 233 217 131 59 188 11 241 25 113 92 234 189 89 40 53 86 76 130 161 202 203 55 74 34 79 82 104 11 24 230 238 217 190 29 26 12 116 68 128 22 90 28 60 201 42 31 121 16 127 19 172 5 244 82 190 166 222 64 121 55 174
107 129 237 229 89 51 9 50 12 190 58 110 49 6 104 254 25 78 218 206 163 178 168 183 245 162 54 81 157 213 174 165 217 96 93 8 161 73 80 23 5 162 197 198 195 2 174 81 84 109 29 128 192 23 219 9 238 53 215 234 162 167 115 102 184 177 136 179 87 34 74 132 87 121 112 253 196 150 119 176 205 179 79 13 107 250 76 39 33 91 232 19 106 86 153 17 197 223 223 167
223 58 192 205 13 108 168 180 46 48 60 61 210 40 65 233 94 220 157 31 92 122 58 246 195 202 90 21 214 143 18 253 116 205 189 155 5 36 22 243 10 110 182 145 70 102 208 240 107 184 68 87 127 49 169 164 235 178 14 11 20 83 79 209 69 230 45 10 44 128 128 159 218 150 169 14 161 191 21 90 67 244 4 153 178 11 180 6 248 165 236 148 86 252 124 125 193 76 195 73
161 173 127 90 78 21 208 233 1 79 18 179 223 180 62 57 7 228 220 143 21 72 165 197 21 67 36 210 226 135 232 247 221 58 73 57 130 101 64 248 106 255 203 127 2 30 56 207 21 157 243 71 47 81 146 156 143 83 238 200 196 194 219 88 182 186 95 237 148 48 78 94 246 247 115 65 27 10 19 45 194 191 134 74 222 208 82 246 121 103 72 235 133 19 68 226 150 240 120 66
204 30 239 82 136 255 93 144 7 237 113 69 224 194 91 111 237 221 122 28 48 162 242 64 155 240 207 63 220 108 150 244 8 3 165 81 70 140 205 212 125 16 131 11 26 157 240 207 188 218 251 143 178 107 203 182 123 145 159 36 203 132 48 222 109 136 77 15 1 13 237 146 7 36 110 183 56 25 229 231 224 100 243 64 113 83 28 169 157 194 78 124 4 177 84 165 125 188 144 115
53 198 19 193 222 115 242 169 76 3 79 81 225 189 67 244 208 222 76 95 143 239 73 198 234 128 29 52 142 94 68 63 82 114 198 186 17 57 56 31 69 98 131 248 249 99 237 113 169 167 50 37 239 93 178 179 166 118 236 192 119 32 165 100 84 80 121 140 103 173 130 191 233 21 77 68 22 76 168 197 64 193 10 192 130 192 217 34 240 87 182 149 31 43 157 245 171 130 254 65
233 191 212 196 207 176 157 152 76 137 212 68 91 233 74 225 35 231 15 162 244 27 109 76 104 112 41 152 62 2 6 250 65 239 33 88 6 223 240 132 166 214 2 123 127 23 120 109 34 13 167 202 8 78 74 73 165 96 160 93 68 18 145 211 59 252 84 7 69 141 72 112 18 63 53 169 119 77 215 30 171 89 38 165 16 102 98 58 150 119 224 208 249 186 111 72 17 43 8 52
171 94 67 95 250 80 51 217 223 124 211 235 69 82 187 206 3 1 188 171 81 246 160 108 176 228 114 82 132 52 97 245 248 13 220 75 140 101 15 101 169 23 192 82 66 160 172 38 105 241 36 172 47 16 111 96 128 180 57 3 104 145 181 214 3 95 201 87 81 195 87 178 123 247 69 125 144 31 92 57 234 25 131 178 65 202 198 177 255 231 89 182 93 89 178 98 245 93 146 21
199 193 78 46 65 3 218 53 77 155 189 68 192 228 173 130 206 208 178 49 4 8 74 250 180 244 159 247 243 37 73 236 238 185 56 76 253 49 88 83 47 1 39 198 193 47 162 36 63 176 73 89 0 75 68 52 159 197 130 212 93 131 189 223 230 233 74 109 30 151 54 251 179 190 83 172 227 211 104 105 86 12 207 137 155 19 203 92 48 193 48 206 107 49 230 104 102 162 164 194
55 37 193 219 217 85 101 7 82 210 5 164 75 94 119 129 98 188 196 57 43 199 110 235 41 164 8 42 47 170 12 154 251 230 165 57 131 245 175 52 224 39 54 60 29 33 162 138 46 23 124 148 117 253 211 39 63 119 211 143 239 182 16 20 248 175 187 29 122 119 136 12 106 135 113 215 230 246 143 185 82 227 173 97 174 211 162 28 208 44 237 36 201 31 235 219 199 184 152 30
217 250 99 121 17 214 159 69 230 87 170 241 68 112 224 117 103 237 240 84 28 178 35 82 178 35 57 177 92 70 122 77 171 240 140 55 41 167 227 15 230 156 136 241 159 16 78 97 42 75 172 229 215 237 228 96 135 99 73 5 229 197 56 138 33 70 89 185 252 128 204 133 145 107 60 28 253 138 52 242 207 139 209 99 254 49 240 226 155 26 168 6 98 153 57 56 162 165 58 164
217 19 169 146 21 146 235 73 163 236 96 32 158 211 180 60 62 12 115 167 163 110 214 96 115 118 167 119 22 125 203 91 182 80 4 3 178 66 130 20 69 117 218 247 195 52 81 147 133 167 151 15 201 170 79 6 227 128 112 241 196 82 85 55 39 115 56 108 186 154 66 216 133 26 62 139 182 43 145 84 139 242 74 161 175 104 78 208 168 154 138 120 56 152 129 210 41 23 74 3
80 130 124 57 71 243 189 40 66 216 192 36 166 228 45 191 130 156 159 130 225 135 60 159 249 20 85 67 160 24 183 48 94 207 239 65 83 122 78 104 32 240 96 234 150 66 179 148 37 193 115 188 25 32 128 164 112 203 97 242 165 12 158 241 160 177 55 99 205 61 220 52 115 133 90 53 76 243 179 112 115 123 178 227 176 224 187 34 108 55 69 193 174 24 234 175 169 8 252 200
191 71 83 83 112 254 92 244 16 78 251 52 223 72 7 253 176 213 160 34 35 173 255 159 113 165 115 192 165 198 227 90 128 218 110 248 190 247 27 239 132 250 133 113 218 134 185 18 156 182 75 76 13 145 107 22 21 148 136 36 136 8 38 2 145 20 114 29 2 234 60 39 98 78 209 173 227 64 246 98 71 219 164 35 187 246 232 33 177 149 90 196 19 192 172 34 28 97 94 18
160 91 183 207 228 245 176 100 20 169 57 10 83 13 253 105 185 192 82 68 48 119 48 128 1 157 137 199 81 1 222 250 64 53 197 135 255 126 24 170 91 182 10 185 131 19 48 98 140 249 47 51 208 2 182 206 46 141 195 243 49 208 216 42 203 154 199 227 140 42 43 75 121 39 74 186 140 76 180 126 84 173 185 18 180 193 70 24 190 32 39 179 76 112 69 21 232 116 195 31
178 237 58 247 120 36 119 79 141 165 231 35 65 135 241 47 124 139 34 18 243 248 217 59 223 181 87 144 3 163 87 41 189 89 89 212 165 62 48 81 11 173 10 184 60 158 196 130 88 77 186 197 223 254 246 28 205 141 31 161 95 156 5 120 240 35 148 160 206 250 188 158 44 23 11 195 111 152 129 7 210 22 50 243 232 145 32 187 247 106 242 19 183 160 202 80 114 31 251 23
131 81 156 126 87 250 4 36 236 228 159 119 208 195 55 91 95 76 210 204 61 55 122 128 160 3 254 176 248 213 21 9 42 199 190 209 90 55 168 213 71 85 214 226 239 96 201 126 164 68 11 165 57 175 134 67 59 29 170 153 10 78 47 149 218 222 101 126 38 68 122 43 161 247 249 244 213 145 155 241 76 197 15 64 243 209 1 15 18 182 101 118 178 253 69 41 89 19 80 210
97 217 15 181 2 42 116 146 57 47 228 103 122 48 136 55 94 183 147 59 175 206 167 114 92 133 158 205 105 104 103 61 209 246 216 177 113 14 47 131 63 84 215 3 176 216 187 149 47 231 228 115 232 46 86 29 177 155 9 184 186 65 220 6 104 218 157 4 231 138 162 78 36 46 117 91 4 171 192 98 55 242 22 24 153 67 110 145 218 241 184 206 109 165 27 255 111 108 204 101
218 94 241 19 9 6 160 157 235 6 81 57 39 212 242 77 57 58 184 48 116 254 234 28 2 83 227 54 53 96 129 83 135 78 211 237 245 246 75 255 238 40 135 49 93 191 181 151 71 101 224 164 189 73 49 247 76 211 92 242 131 250 119 135 181 160 212 207 135 103 1 187 173 210 230 70 13 15 203 102 194 53 122 195 167 61 225 63 37 30 225 203 155 215 10 112 127 63 167 247
139 17 2 131 104 237 182 85 191 194 66 50 13 46 203 216 23 69 54 34 234 156 178 148 211 98 199 120 177 157 86 226 188 164 86 165 203 245 27 131 10 88 146 187 88 86 203 95 157 236 69 145 98 111 29 67 126 241 132 99 254 183 155 219 146 3 129 205 20 212 190 4 182 13 200 0 34 155 232 46 145 68 247 39 166 194 244 159 155 29 192 2 219 247 126 180 95 34 189 170
233 119 229 227 69 191 54 202 46 223 13 51 232 137 20 74 40 123 242 194 82 69 205 7 30 187 48 64 187 174 218 244 9 0 153 156 207 13 231 91 96 115 161 195 78 247 198 117 69 79 218 213 180 106 87 157 150 224 141 2 210 40 223 100 224 75 113 96 80 62 240 206 146 4 52 116 192 15 157 13 69 133 246 166 108 12 217 188 1 223 105 53 211 122 213 108 168 214 118 188
58 62 38 208 88 76 27 97 59 158 113 106 194 215 227 185 115 3 252 231 20 18 243 93 182 92 69 9 12 120 237 42 8 157 132 94 62 133 41 85 192 169 15 83 250 109 230 183 239 114 85 28 30 96 99 55 80 231 170 141 151 216 66 201 40 55 234 144 224 77 169 75 72 229 215 143 205 52 167 40 203 128 129 120 88 143 15 239 174 40 2 115 252 207 61 144 122 166 70 209
184 205 117 162 171 31 151 21 88 77 235 202 198 238 219 140 22 138 81 133 179 180 126 137 75 86 4 164 213 230 43 208 121 222 182 223 41 192 223 118 90 10 155 78 203 245 52 236 197 83 171 185 76 106 65 104 119 203 101 46 127 87 93 140 169 59 210 69 138 7 196 90 165 182 140 232 229 138 105 133 23 55 169 109 160 105 24 194 3 246 101 145 144 247 158 54 190 155 183 72
106 57 166 45 36 73 215 230 75 70 23 93 248 201 177 215 240 133 255 255 77 37 57 176 191 96 178 85 39 136 41 186 41 97 99 248 227 208 253 163 164 32 83 112 196 207 142 162 8 192 153 113 129 158 250 20 112 234 118 128 204 196 109 9 14 102 245 67 51 110 252 93 125 30 115 8 185 127 11 217 28 22 32 65 174 90 146 192 225 244 20 37 45 165 167 68 164 42 170 43
107 134 176 170 155 219 40 251 60 45 98 184 72 136 184 48 241 70 94 166 163 225 227 141 26 99 48 132 211 252 221 132 37 50 13 113 55 172 32 66 113 232 236 217 183 176 252 93 150 165 227 241 172 172 87 18 225 251 17 40 205 233 228 72 194 142 197 112 182 147 238 10 134 239 233 84 32 37 148 185 32 59 15 131 220 249 74 233 110 254 36 25 49 207 91 49 90 240 90 132
141 128 19 218 153 221 173 80 183 6 150 30 126 30 29 48 203 39 118 42 136 157 69 139 87 241 121 215 64 44 148 151 48 105 96 93 77 221 56 113 45 92 227 252 63 124 91 187 82 19 103 224 241 158 140 110 66 163 199 64 238 24 84 250 63 90 204 71 246 73 103 64 175 51 233 177 18 40 138 163 208 43 55 252 64 233 32 237 217 199 139 37 161 172 40 15 145 194 16 35
57 225 204 60 115 248 166 140 209 22 62 186 135 28 251 166 104 177 181 52 100 62 71 56 52 155 138 2 197 111 102 223 107 155 32 236 179 84 66 151 145 41 29 169 22 64 153 187 222 53 22 103 204 68 130 233 63 99 188 123 59 130 252 156 226 78 226 116 237 85 169 20 157 174 230 253 138 195 33 120 108 48 242 171 176 114 59 152 0 207 155 251 47 106 96 28 163 79 153 42
146 172 115 83 157 72 137 61 139 92 237 26 206 128 43 143 5 175 141 229 154 168 127 2 141 42 171 238 216 98 114 234 77 239 210 22 227 240 66 2 203 106 47 69 34 132 145 170 199 165 100 66 169 139 42 244 194 198 14 65 0 104 220 208 175 63 20 57 90 76 189 175 2 40 143 189 31 172 22 122 126 83 55 186 211 33 193 153 113 161 4 43 13 84 201 129 76 225 57 76
199 90 208 147 140 156 14 210 135 10 173 71 20 145 215 9 126 4 203 8 231 139 87 245 234 111 59 126 182 253 173 164 52 34 188 157 187 63 241 79 248 235 199 31 239 216 227 157 56 60 140 2 114 140 219 3 231 226 153 75 155 219 46 215 240 228 60 68 236 70 119 153 226 56 11 164 6 90 50 159 214 129 30 219 98 54 48 205 90 222 252 170 176 87 79 80 34 105 224 20
196 242 217 75 174 216 98 131 185 45 36 149 84 129 87 59 138 52 204 144 124 1 136 215 227 159 87 207 100 100 244 132 26 226 86 143 119 115 123 114 47 6 189 97 133 4 152 61 184 11 70 14 238 245 46 80 50 186 81 27 188 250 96 243 2 10 177 57 50 198 118 254 238 141 98 242 17 23 50 78 221 21 8 4 254 51 125 221 179 153 99 81 25 203 132 208 152 212 228 138
148 248 66 103 15 19 126 204 120 152 33 171 52 161 128 228 14 203 20 194 67 66 40 237 18 113 220 36 6 79 88 142 196 6 217 155 124 184 2 23 33 160 167 98 3 222 94 176 105 90 165 45 251 24 50 187 226 35 223 170 249 46 156 25 243 211 134 219 219 188 148 176 240 34 203 0 84 183 91 245 175 210 94 201 237 213 110 148 179 29 174 115 95 35 144 4 163 17 145 173
75 17 56 173 3 235 181 247 136 152 98 166 157 164 225 159 222 45 118 36 223 79 175 123 220 173 1 245 140 245 39 105 237 176 168 219 220 103 200 130 81 190 66 188 72 232 153 236 155 183 45 248 79 190 231 139 224 241 130 143 228 13 69 17 35 199 181 131 54 252 134 157 221 34 148 254 28 23 199 230 51 64 12 33 193 49 239 102 106 38 107 208 79 131 83 179 140 58 172 164
251 169 216 73 125 143 219 91 28 244 62 166 78 161 145 95 39 32 209 247 57 84 119 238 154 213 148 138 116 155 199 147 49 140 165 129 132 84 156 187 147 201 15 191 214 52 25 60 119 161 104 117 130 110 99 129 219 214 185 165 95 96 219 223 165 147 134 24 120 26 198 30 8 195 118 32 94 172 121 160 23 75 233 178 138 13 92 246 228 229 187 71 148 142 97 13 103 236 129 115
240 219 43 188 36 62 78 118 202 103 136 53 3 91 122 60 106 96 179 90 165 211 145 53 87 210 191 188 126 189 191 124 164 209 243 231 22 131 227 141 168 83 254 216 185 137 14 213 173 171 105 159 37 35 184 8 101 237 253 161 56 166 52 84 213 2 141 184 184 143 7 43 201 148 203 128 232 174 32 149 115 6 130 230 85 16 213 141 33 40 185 29 1 8 230 46 79 79 87 126
106 22 153 171 93 42 13 51 27 207 3 224 251 71 232 207 17 101 11 26 156 247 142 104 237 151 214 64 164 24 42 14 65 196 115 158 208 0 206 124 59 183 253 43 219 86 16 26 247 204 194 130 219 252 62 220 61 120 67 34 43 255 78 211 237 6 191 125 99 10 43 219 230 196 180 4 190 79 46 246 4 236 118 59 175 210 60 11 182 68 73 181 114 214 54 98 37 19 88 222
198 254 26 243 126 95 24 200 158 19 250 21 204 240 203 12 57 20 13 63 95 175 241 221 17 137 109 120 116 160 37 130 125 204 200 17 72 132 224 37 94 167 186 115 46 156 97 124 113 42 33 46 224 9 44 110 68 106 160 115 37 60 8 249 51 211 186 137 149 82 238 81 131 157 0 25 228 181 221 35 31 2 34 139 189 74 149 6 206 104 1 20 251 71 176 46 219 238 169 116
243 177 6 123 219 172 249 73 228 172 100 164 34 118 88 25 114 2 101 76 221 167 133 87 35 214 185 65 222 68 166 109 201 77 170 60 50 191 241 50 239 6 199 1 20 210 122 176 31 217 87 125 74 181 16 117 235 34 14 111 125 17 221 100 42 254 185 197 1 135 20 16 96 10 79 46 131 254 228 28 35 253 34 50 96 243 207 173 19 106 236 209 28 152 172 99 39 237 248 187
249 200 213 208 108 145 60 231 202 66 100 181 255 166 190 26 224 139 34 46 49 17 105 122 50 72 181 31 155 253 59 45 11 35 136 163 79 12 5 99 218 73 75 215 163 173 140 157 207 42 44 123 137 13 10 109 82 72 75 16 126 235 83 117 198 166 219 224 57 132 187 228 40 166 91 130 187 114 65 75 233 111 107 129 135 206 141 24 97 64 44 38 60 85 244 55 179 182 19 105
74 160 31 15 199 164 106 166 191 63 210 145 128 110 34 24 6 158 121 196 219 78 253 207 86 100 226 230 86 238 251 241 214 8 60 76 165 21 190 1 6 175 3 179 213 54 15 143 14 225 197 165 236 217 222 148 52 45 233 225 63 188 187 22 69 77 214 38 147 231 106 69 180 3 116 236 67 50 39 203 161 126 119 169 124 60 28 25 134 101 66 104 84 54 229 136 4 213 234 93
140 174 133 30 18 117 215 36 181 169 106 220 2 249 121 25 107 49 128 236 43 92 122 150 238 253 71 13 18 252 27 126 209 198 154 255 106 105 54 158 36 127 40 22 30 134 113 127 78 36 177 68 129 17 92 245 96 134 18 212 15 96 8 92 142 175 55 74 231 104 176 145 132 36 234 191 151 0 206 122 222 251 110 159 20 131 157 109 70 69 250 237 159 197 213 198 68 32 172 190
44 226 45 69 224 84 195 73 6 97 223 141 28 24 87 35 31 77 211 5 133 31 100 237 36 244 23 206 27 11 126 252 119 192 115 218 190 198 136 35 199 196 210 50 143 63 26 105 79 68 213 92 219 251 10 156 125 212 130 160 201 20 88 23 5 20 56 4 18 231 50 237 37 141 198 254 16 168 231 164 234 16 124 175 227 25 95 176 92 210 245 245 88 80 225 229 177 252 90 21
121 63 177 202 76 110 141 207 52 7 55 70 62 87 165 189 234 209 169 246 16 122 126 52 235 109 192 117 57 130 146 61 211 109 158 242 189 107 136 130 57 47 180 253 176 32 57 80 145 127 131 140 129 216 115 77 236 135 41 182 1 84 30 30 199 162 242 155 204 51 125 30 121 175 61 162 238 213 108 116 90 94 217 241 156 37 130 203 251 14 19 226 80 175 197 122 32 79 202 120
195 30 73 241 31 69 11 101 77 144 130 197 116 218 113 158 161 241 216 169 189 18 224 189 140 70 206 91 222 136 143 36 211 155 194 142 43 38 242 159 227 131 233 248 215 126 80 19 41 124 97 60 202 129 129 139 1 11 79 207 174 20 185 149 168 180 27 195 62 4 168 193 76 40 180 159 94 3 28 185 60 209 201 146 4 193 65 29 226 46 132 226 226 102 231 9 37 114 224 93
189 88 226 174 125 41 220 49 156 139 81 236 143 40 162 52 242 9 119 99 113 64 12 96 60 92 241 46 51 69 231 196 63 45 244 71 190 147 10 169 179 14 111 213 219 71 10 120 8 162 85 191 121 130 239 75 230 185 124 9 221 42 101 91 51 218 135 179 240 119 83 51 245 34 12 115 216 125 227 23 201 85 36 152 4 135 66 169 147 133 228 168 64 146 222 151 228 124 161 121
77 16 78 71 19 51 246 134 9 26 149 141 154 157 186 75 106 202 108 243 247 63 209 219 22 12 181 239 19 177 206 121 206 20 70 132 17 23 138 59 65 29 27 190 149 51 14 134 181 58 96 126 104 72 38 95 77 121 52 69 83 104 253 53 107 58 190 52 134 216 61 211 237 213 111 223 57 204 225 212 206 63 251 93 61 202 5 32 166 154 196 127 211 138 33 112 113 209 76 102
228 113 176 239 166 102 197 103 112 136 250 215 124 173 208 208 164 64 106 214 38 161 90 97 7 47 35 239 201 40 66 107 200 58 21 88 196 112 11 193 242 136 29 34 101 113 29 43 243 172 66 114 235 255 175 95 166 66 94 231 39 139 78 95 138 149 17 150 34 61 129 37 253 103 83 165 9 7 188 100 104 105 180 174 83 141 142 236 36 121 117 158 157 144 44 36 109 72 68 164
94 134 180 70 209 71 178 210 214 255 208 158 75 188 164 225 64 55 168 141 119 50 178 1 28 227 24 78 181 198 97 45 174 189 238 122 105 52 140 6 85 108 255 124 27 153 39 166 72 205 88 76 41 112 40 80 155 117 139 171 195 194 66 3 137 168 234 196 23 168 29 63 144 157 40 206 218 212 142 38 91 17 45 48 27 42 130 203 17 71 39 204 216 25 249 145 163 219 4 114
68 77 206 190 35 183 209 201 152 214 216 82 164 11 39 138 213 139 187 5 242 213 188 182 255 92 21 64 56 0 112 37 3 131 203 186 224 123 189 110 205 174 7 181 139 89 157 206 25 17 232 252 142 36 241 98 250 213 231 248 138 99 65 30 203 218 46 205 217 18 57 16 63 145 128 136 31 253 161 186 155 208 94 253 224 137 145 225 4 15 199 35 255 211 232 174 123 120 167 170
217 133 31 66 80 192 108 55 80 142 137 227 1 32 45 120 165 48 217 132 160 233 190 87 205 236 46 152 91 58 98 233 42 115 90 236 111 122 44 55 11 9 255 187 22 161 157 68 250 245 51 244 10 100 99 176 247 186 68 167 150 74 125 102 22 59 86 72 52 81 122 191 96 2 245 149 235 252 218 34 173 227 210 1 91 89 125 92 35 160 178 69 65 155 61 248 12 86 234 99
69 169 86 95 29 31 196 202 0 4 243 107 22 198 118 58 222 21 52 252 211 232 125 230 206 183 64 230 163 121 113 177 79 250 23 150 57 168 148 100 175 80 129 214 4 83 116 2 6 99 165 107 250 48 163 76 31 154 212 25 186 183 9 31 126 154 47 149 131 170 74 26 197 213 212 243 35 158 34 181 126 15 204 190 112 86 101 224 19 221 136 41 206 161 121 153 181 216 42 17
169 37 47 31 109 22 232 253 137 230 213 162 240 80 198 182 43 137 106 179 193 144 211 99 219 215 110 97 9 104 68 140 197 107 101 162 180 105 77 146 12 193 49 92 152 251 171 139 94 215 54 13 70 37 88 185 167 234 64 236 252 95 80 61 70 33 147 100 235 6 95 84 153 223 128 33 75 195 123 9 44 231 190 240 246 112 63 80 163 95 170 254 86 215 15 238 155 4 127 8
115 173 168 232 88 231 124 207 131 197 44 60 121 221 168 144 176 177 190 179 199 87 116 118 43 169 217 179 104 214 148 165 104 25 207 249 243 136 157 60 218 56 95 52 46 83 90 4 104 77 240 31 87 180 252 179 14 197 17 238 133 53 77 226 84 66 188 138 223 223 85 228 14 142 97 90 214 175 143 147 59 55 254 81 71 45 103 12 72 209 99 107 250 230 200 33 216 45 5 35
28 132 180 179 235 111 56 51 86 236 153 100 69 100 234 212 197 238 197 187 62 154 151 172 140 137 87 19 159 130 84 75 217 133 79 1 48 95 121 207 193 219 220 139 131 100 15 201 214 146 60 36 55 185 210 130 91 35 176 244 121 47 145 225 152 81 185 50 217 47 70 190 15 184 186 17 113 13 148 24 74 117 44 201 213 21 100 209 184 125 67 2 104 146 209 125 89 53 55 172
191 202 33 21 35 176 108 242 5 224 139 1 80 13 161 194 18 113 39 63 254 33 216 101 229 109 4 42 188 136 139 6 226 147 131 26 61 103 68 79 230 98 207 235 198 217 113 21 99 78 193 219 84 47 116 188 96 177 252 245 212 193 43 4 21 102 219 184 11 42 129 170 22 151 10 63 10 80 92 67 179 81 202 30 7 90 162 201 195 23 219 253 64 226 158 67 214 7 250 222
148 81 19 157 237 165 97 254 22 184 38 47 140 249 246 242 135 143 184 229 146 91 248 179 174 80 246 39 159 22 51 79 35 92 73 180 120 166 47 204 246 84 96 27 152 229 21 231 89 132 59 88 79 92 39 85 177 206 202 172 101 222 4 41 144 177 145 245 175 232 52 69 62 41 150 40 82 236 134 176 213 62 99 157 0 135 222 181 205 22 62 93 28 31 200 178 215 215 55 225
248 183 219 235 177 120 97 242 64 228 147 9 116 231 48 153 100 80 230 73 229 235 14 217 225 40 165 217 18 189 133 2 171 50 209 240 199 56 111 85 198 76 224 9 101 173 76 246 23 33 184 126 219 162 249 10 66 168 233 82 112 33 224 236 184 131 223 200 247 37 74 86 82 118 64 196 222 46 36 19 119 117 53 227 157 223 227 175 209 189 196 178 106 27 133 249 140 62 53 7
225 183 84 187 70 255 12 219 217 84 169 124 59 204 139 169 250 232 0 12 193 254 237 59 175 136 43 149 246 52 48 84 233 70 18 223 170 145 5 181 42 78 156 115 204 81 184 20 167 236 201 152 81 26 203 33 168 47 219 215 178 172 227 2 29 249 11 200 31 232 166 58 77 82 40 83 98 130 222 137 145 202 220 187 70 28 167 183 9 219 35 100 27 14 112 11 159 171 14 49
117 209 175 238 173 88 96 82 112 230 186 17 102 4 141 32 189 12 30 182 42 211 214 230 59 242 32 158 0 211 227 91 74 30 206 62 247 62 163 168 35 7 55 59 227 255 111 190 174 186 191 193 60 159 89 184 160 75 244 228 52 255 48 228 58 134 105 74 185 208 236 231 129 177 142 187 74 22 136 67 182 164 167 254 105 228 79 231 222 136 108 203 122 241 88 3 93 42 242 85
115 98 76 100 65 25 69 150 121 167 200 112 127 228 136 140 49 238 79 161 55 20 160 184 7 55 214 137 103 140 213 72 181 245 249 154 238 53 145 27 248 167 115 68 61 65 55 246 228 235 145 66 69 63 45 242 172 47 30 97 124 153 180 177 63 55 168 148 161 198 126 241 205 163 107 38 77 199 113 241 98 29 20 227 36 95 87 164 101 42 38 54 4 190 37 90 221 251 199 153
99 180 53 235 27 35 23 103 253 67 125 222 220 66 207 176 194 12 135 45 167 173 171 107 216 16 101 203 158 26 210 16 170 14 224 153 94 23 79 147 52 112 64 218 170 215 162 10 186 221 0 77 25 145 99 196 243 32 36 231 117 122 185 146 223 245 195 16 97 244 134 58 193 38 133 198 227 83 242 239 0 76 254 212 24 197 99 171 24 56 183 119 150 114 33 115 17 21 173 90
61 94 240 190 227 106 70 122 182 20 27 168 86 181 63 202 10 59 225 74 179 173 73 165 228 215 234 244 64 189 200 170 235 81 44 209 150 101 202 116 49 27 197 183 14 254 32 224 117 154 81 6 111 39 115 253 238 225 144 252 63 122 142 63 160 114 201 223 8 127 50 45 125 235 80 210 165 228 232 106 85 197 170 113 16 148 25 156 15 60 22 254 159 110 18 89 42 246 136 99
12 55 216 25 128 179 91 225 131 140 31 245 45 25 228 75 251 167 215 245 25 136 213 44 180 10 0 226 139 236 18 154 176 22 196 138 204 111 63 225 87 199 19 244 194 172 247 86 217 87 177 120 96 210 233 56 202 191 127 79 75 231 98 175 121 67 78 74 93 110 10 22 94 163 106 250 70 141 81 14 104 1 203 63 158 74 18 170 99 224 135 248 151 183 157 48 160 27 55 137
83 192 80 245 125 81 63 38 8 162 195 249 163 199 15 237 64 68 153 201 105 13 192 210 160 160 123 140 145 201 95 246 21 199 154 175 123 92 165 114 73 227 223 159 7 245 3 101 22 236 170 23 105 169 125 60 191 54 213 255 120 43 189 224 67 74 215 251 103 124 92 230 94 127 86 178 90 75 7 27 59 79 115 107 162 75 4 180 213 133 182 35 181 185 23 181 166 78 211 78
131 154 14 245 37 41 150 21 74 255 255 195 221 144 36 91 184 9 20 57 202 248 220 196 167 3 177 183 243 234 4 187 97 155 251 189 140 8 240 43 182 177 227 37 80 63 143 194 222 230 134 9 237 149 112 250 178 18 111 4 56 24 29 239 2 174 10 69 14 175 133 88 60 0 127 76 134 199 16 230 219 135 209 243 211 205 152 150 98 101 232 13 48 21 252 234 243 23 247 89
191 25 243 107 155 204 180 190 75 50 26 120 200 90 165 249 28 100 244 8 187 216 163 215 109 165 73 243 196 106 182 254 213 165 133 155 211 77 213 9 225 255 151 217 251 36 124 101 140 66 93 55 135 246 78 36 186 188 14 40 60 6 115 59 220 98 94 217 149 143 112 48 110 200 208 182 122 12 193 116 236 80 164 227 221 63 205 139 43 229 205 221 11 228 33 207 47 6 177 223
190 109 131 246 27 149 235 48 166 88 206 203 190 175 58 247 228 47 241 216 23 39 16 153 179 242 114 120 134 22 244 49 198 236 20 78 227 152 144 70 77 53 25 117 202 163 255 52 168 49 116 148 229 76 66 56 42 233 89 9 38 192 76 209 159 218 228 230 152 39 196 107 7 48 9 17 218 52 47 179 178 63 181 168 92 186 161 113 177 147 113 232 64 142 67 15 192 156 87 115
244 42 114 96 46 248 129 118 161 254 15 33 108 249 88 153 36 3 234 11 120 214 79 160 170 114 194 195 249 24 85 177 247 73 48 149 59 228 63 156 221 202 244 189 29 229 172 87 150 80 93 146 137 56 215 226 213 139 51 180 243 9 55 34 208 166 31 106 255 129 5 168 145 42 249 190 123 166 222 130 156 238 43 2 209 24 132 128 43 243 84 62 107 22 16 12 1 36 19 144
20 54 189 84 203 130 164 139 247 18 118 165 95 76 228 218 55 39 140 238 167 113 226 107 112 86 46 242 10 168 12 122 35 156 51 229 207 197 185 65 34 58 53 179 184 10 61 221 64 53 97 47 191 93 236 44 201 26 181 124 66 72 38 240 106 72 177 244 12 95 99 93 216 56 15 99 73 47 52 78 86 97 88 38 40 185 79 134 51 2 94 135 233 30 83 245 247 83 7 31
95 225 206 244 248 153 141 53 129 217 151 174 150 181 217 120 12 59 137 181 19 238 69 197 176 68 163 210 249 158 90 40 78 28 127 215 36 111 177 123 158 17 27 24 9 136 32 138 241 157 28 204 129 121 3 148 63 238 41 170 166 61 45 43 129 8 0 0 188 125 37 251 166 114 240 195 214 35 129 113 221 182 89 83 80 207 197 239 124 176 216 143 210 13 83 209 200 234 48 5
252 141 208 73 254 249 216 203 27 230 133 15 126 10 179 252 132 124 56 26 13 94 105 206 46 85 22 216 96 191 201 53 0 240 32 87 2 97 98 198 57 90 87 227 184 5 147 36 65 52 86 18 20 231 81 174 81 78 158 212 176 69 10 205 61 250 52 142 168 162 217 154 176 72 49 212 11 0 5 67 27 219 59 233 75 60 246 125 133 99 146 33 48 66 27 2 17 45 41 29
28 109 203 57 3 23 16 97 237 220 160 138 25 71 237 9 127 106 109 140 12 206 157 205 51 163 41 80 135 55 46 229 246 178 14 197 73 76 233 253 56 9 176 68 88 145 191 234 108 139 8 213 128 51 137 35 132 192 85 24 233 214 70 122 137 1 114 173 68 183 143 93 31 87 66 33 201 168 133 7 186 120 220 80 94 0 241 13 127 15 133 194 186 84 126 117 246 119 169 185
1 200 187 156 117 8 93 74 131 179 160 98 86 158 210 133 200 43 231 248 186 9 93 222 130 175 51 237 223 151 82 88 179 141 137 164 132 183 11 222 189 60 213 194 46 95 88 186 61 7 227 134 49 227 99 12 189 230 42 9 172 131 214 62 23 134 140 182 63 6 180 157 97 114 239 122 78 229 8 148 7 22 60 101 166 46 89 159 89 21 224 16 236 37 79 180 9 103 22 136
134 183 247 246 127 200 143 15 170 84 213 145 169 47 91 45 133 34 237 138 103 39 8 224 12 64 110 192 6 7 251 199 128 58 95 152 44 175 167 165 63 191 204 55 250 219 97 59 142 26 239 142 221 15 109 245 12 202 76 60 30 221 243 60 248 203 6 84 2 169 194 146 143 244 22 35 31 78 165 239 119 194 255 154 190 199 243 177 145 173 253 133 76 54 55 250 84 31 2 37
166 11 205 96 165 21 89 50 90 196 182 147 51 107 236 176 120 227 221 57 239 166 48 218 196 24 57 167 83 167 11 249 200 73 147 169 137 73 52 64 146 198 15 236 150 38 109 186 63 107 65 1 117 76 25 50 27 97 203 93 68 77 149 144 207 195 23 156 194 122 15 8 87 93 40 136 91 71 172 113 73 83 68 233 213 192 165 103 197 52 132 193 194 58 48 78 185 194 25 251
161 11 62 63 149 238 220 14 58 199 170 70 4 42 255 234 57 230 33 190 163 98 220 6 54 88 173 78 169 122 145 223 57 48 172 96 100 53 133 66 19 209 204 4 96 59 45 150 33 214 60 218 249 186 244 167 229 193 144 208 235 246 88 222 222 15 235 224 198 189 11 13 24 149 68 164 35 187 227 64 39 81 33 8 250 90 243 106 113 4 240 47 131 161 52 148 196 100 243 186
204 30 20 170 69 234 32 55 233 133 49 22 116 158 41 233 43 210 45 200 118 129 128 137 100 43 170 157 32 110 236 200 151 22 249 173 203 205 194 103 239 242 44 139 18 121 255 145 153 45 224 183 196 167 93 92 2 128 119 110 137 196 131 58 219 94 104 205 78 17 71 247 5 235 252 6 83 170 188 27 113 160 254 75 224 250 228 45 70 219 242 93 27 177 155 206 149 147 81 208
64 20 114 37 43 20 192 82 151 99 208 48 89 244 187 8 60 184 50 198 248 230 17 117 90 78 141 148 187 21 93 120 39 20 128 191 191 15 2 155 117 121 220 242 229 10 246 43 36 105 97 108 240 115 134 89 135 230 23 43 51 255 136 114 102 218 136 140 48 31 80 243 92 13 64 113 251 251 219 39 12 82 238 57 168 197 200 157 152 209 183 104 123 75 84 143 65 106 43 216
171 32 248 50 159 233 52 197 30 147 66 182 234 189 0 242 186 247 196 114 178 95 77 220 58 138 19 113 175 234 248 56 32 58 51 109 148 161 103 58 9 186 129 69 91 75 104 110 106 191 110 247 134 90 196 41 6 148 253 147 231 216 129 230 143 146 133 192 229 35 181 182 192 72 214 75 181 8 133 66 104 154 191 199 118 118 225 17 212 186 206 226 20 62 192 69 95 88 66 230