P3
# This is a simple PPM example
4 2
255
255   0   0     0 255   0     0   0 255   255 255   0
255 255 255   255 255 255   0   0   0     0   0   0
