P2
5 5
255
0 0 0 0 0
63 63 63 63 63
127 127 127 127 127
191 191 191 191 191
255 255 255 255 255