P3
5 5
255
0 0 0 63 0 31 127 0 63 191 0 95 255 0 127
0 63 31 63 63 63 127 63 95 191 63 127 255 63 159
0 127 63 63 127 95 127 127 127 191 127 159 255 127 191
0 191 95 63 191 127 127 191 159 191 191 191 255 191 223
0 255 127 63 255 159 127 255 191 191 255 223 255 255 255