P2
# This is a simple PGM file
5 5
255
255 100 50 100 255
100 255 200 255 100
50 200 255 200 50
100 255 200 255 100
255 100 50 100 255