P1
# This is a simple PBM file
5 5
0 1 1 1 0
1 0 0 0 1
1 0 1 0 1
1 0 0 0 1
0 1 1 1 0