P2
100 100
255
114 62 191 171 66 134 119 249 51 65 89 146 72 209 71 122 138 156 165 193 152 158 53 26 98 148 136 171 190 116 222 238 58 62 29 254 211 195 198 38 146 143 112 82 31 81 176 56 196 223 225 206 108 43 88 2 249 80 238 56 90 30 234 49 5 59 74 125 92 206 222 15 182 160 220 4 224 240 0 197 254 70 122 76 203 233 108 172 245 183 254 199 27 227 48 170 50 32 41 64
97 59 29 118 117 50 101 251 35 131 223 146 204 186 99 240 4 170 212 183 165 42 208 115 207 135 89 249 62 168 195 37 207 204 17 2 64 138 84 225 213 255 208 98 220 1 237 20 104 156 42 52 174 80 43 22 108 158 223 233 94 207 174 170 3 214 156 161 123 112 155 97 221 101 50 110 208 201 165 62 11 138 25 226 125 140 23 18 3 164 30 161 59 208 14 82 139 34 70 53
95 240 58 163 212 241 137 217 192 124 55 19 204 180 154 122 118 43 238 225 38 127 101 90 129 188 66 28 61 168 114 253 1 167 245 254 134 249 49 82 79 74 171 164 89 80 53 159 174 150 127 183 246 231 20 40 221 213 167 41 227 55 245 54 127 152 244 46 113 205 140 210 170 154 182 15 168 48 109 164 71 191 149 23 203 222 156 28 123 75 0 26 136 217 81 99 59 120 230 64
45 112 14 211 81 217 26 171 160 126 88 146 177 18 254 151 87 33 93 230 68 140 176 224 35 179 198 218 173 147 58 102 94 169 43 126 180 33 126 216 129 81 86 107 78 234 119 59 164 213 126 95 202 93 9 191 158 1 58 107 230 143 174 197 215 119 145 201 191 68 61 35 10 192 149 233 102 149 54 254 242 249 186 205 156 164 119 2 32 106 145 201 240 68 44 146 229 193 108 108
231 211 248 19 181 124 173 163 230 204 94 234 155 99 7 169 106 89 219 210 43 255 136 28 57 150 236 90 58 1 125 235 129 98 25 135 194 137 8 47 173 198 206 90 10 119 151 238 224 2 190 190 3 115 50 147 80 221 240 116 133 4 29 207 86 51 253 116 230 212 61 19 146 193 116 189 187 114 116 121 55 148 7 24 238 195 218 118 82 9 229 158 109 181 201 19 17 166 0 9
177 43 106 203 87 88 142 109 40 153 208 108 61 172 62 85 228 97 110 220 239 76 231 0 49 235 229 123 28 88 120 226 142 134 1 129 246 182 110 96 134 156 57 74 166 167 121 247 78 129 98 9 54 233 195 55 6 93 81 154 142 31 182 41 73 109 233 173 121 0 194 119 17 57 238 128 157 61 108 91 207 78 221 119 129 229 170 140 78 18 5 67 199 82 182 117 18 178 241 112
157 213 33 70 200 39 212 146 184 172 190 159 207 105 79 221 127 65 91 110 213 13 87 61 144 79 162 255 190 130 206 111 69 125 5 161 240 223 188 203 44 44 72 28 100 212 166 154 116 91 76 102 82 171 217 176 143 97 81 211 222 168 207 232 160 185 231 158 98 241 157 224 103 226 167 135 148 31 235 184 251 228 249 124 75 76 153 237 95 171 147 13 44 143 53 84 55 194 16 87
146 203 82 21 111 144 12 33 30 108 73 67 85 7 27 220 106 25 38 52 63 222 209 220 202 240 78 66 182 91 79 235 213 218 96 112 115 35 16 119 53 238 148 216 136 33 162 13 238 140 13 45 171 229 119 162 172 34 81 124 39 144 212 109 22 188 63 79 194 155 235 81 71 79 31 54 230 91 238 178 154 128 226 124 127 49 248 111 197 24 41 20 228 57 100 106 241 38 70 145
191 225 67 81 167 155 197 1 66 239 180 100 203 87 110 160 108 209 74 76 224 149 89 247 60 111 50 60 194 49 198 201 144 176 200 198 157 189 62 33 94 100 250 79 241 241 82 134 112 44 157 182 15 11 221 1 91 41 96 231 187 70 175 253 27 200 141 137 247 115 199 228 159 39 228 196 231 48 7 31 158 105 119 255 36 39 137 227 162 77 224 156 172 27 250 110 241 227 44 109
91 161 233 121 65 70 140 232 230 133 220 170 140 193 167 101 143 8 197 112 140 5 195 170 231 167 166 212 6 6 187 101 107 98 201 199 188 232 108 138 218 141 255 88 195 30 31 151 180 22 76 70 131 59 86 30 149 165 5 227 121 121 181 32 71 111 249 114 196 65 250 206 49 34 205 78 240 86 223 228 84 100 106 146 156 75 237 22 234 250 153 46 49 122 38 84 13 189 8 24
18 244 139 215 95 202 228 78 215 171 128 59 26 117 10 224 25 30 119 44 236 27 216 192 155 52 178 151 80 167 200 240 233 195 94 144 36 29 204 126 139 31 14 2 72 243 202 78 147 48 45 188 72 225 223 115 8 217 17 46 125 232 226 32 252 176 88 221 200 176 88 238 47 181 112 243 59 231 226 115 35 155 46 34 179 233 226 171 31 1 82 226 71 164 100 253 184 203 128 149
82 94 137 198 87 29 236 121 199 246 57 160 127 129 234 127 110 96 226 187 39 219 30 156 70 104 181 249 214 247 86 217 212 148 173 175 96 8 246 117 238 141 19 246 180 106 85 65 232 234 87 27 102 64 66 245 215 62 71 54 45 243 254 150 67 8 133 20 210 225 153 24 72 30 228 154 239 18 99 113 126 166 64 31 234 177 171 141 229 34 168 107 232 170 83 34 27 252 186 148
116 11 59 130 130 181 138 248 221 50 105 243 241 224 1 206 86 46 17 91 31 217 237 80 136 168 166 48 32 220 216 84 111 69 147 175 79 169 144 134 124 197 234 50 159 6 219 203 31 220 83 170 14 72 177 165 3 232 137 238 119 18 125 212 106 166 23 248 70 148 56 46 94 20 61 45 242 65 63 75 142 169 142 89 41 37 161 234 222 147 241 54 81 200 201 195 51 222 172 160
40 251 108 26 235 237 175 48 179 142 83 38 184 90 104 245 118 39 246 74 62 127 29 136 8 104 1 50 157 192 190 215 127 27 233 64 206 78 245 3 213 160 116 140 210 203 225 249 140 15 224 104 176 17 43 143 100 36 177 73 134 56 208 4 165 235 97 72 124 8 247 112 228 55 224 216 186 156 14 202 9 116 25 216 81 244 20 241 0 37 155 181 104 138 27 254 228 74 247 231
231 87 36 200 27 94 135 254 38 206 184 213 108 60 43 132 232 33 27 232 248 65 175 4 238 70 185 207 149 208 194 191 52 159 16 67 197 4 116 78 75 154 115 192 201 114 119 84 32 197 170 191 22 30 74 232 42 246 48 12 142 118 208 6 128 203 133 7 33 254 108 203 100 69 49 88 223 68 194 176 108 8 83 14 7 245 54 237 80 0 225 38 59 20 174 85 126 158 89 60
217 34 36 131 54 106 68 101 164 69 214 126 189 121 189 97 52 53 148 103 52 115 229 212 73 16 84 205 192 185 189 200 7 83 234 13 11 219 170 139 86 3 248 13 150 115 98 37 93 47 20 137 193 230 113 95 204 135 183 205 182 20 52 148 122 146 69 145 132 79 30 187 224 78 219 196 91 189 116 190 168 139 193 225 215 171 10 244 94 57 164 26 184 5 88 182 77 96 75 138
89 171 51 229 23 233 66 77 250 9 250 1 128 248 33 124 185 87 5 165 77 63 207 96 146 0 236 120 132 81 196 62 179 221 114 205 246 145 127 60 20 51 74 91 127 71 193 254 65 93 161 35 248 20 31 93 80 192 246 63 126 148 164 194 241 166 227 189 107 212 140 8 176 147 228 76 225 139 37 8 230 57 166 66 242 152 203 241 175 238 110 11 230 147 34 141 129 17 184 65
234 13 234 25 50 122 96 134 224 106 231 78 219 41 254 221 163 147 37 223 254 96 176 28 63 10 45 233 1 27 233 243 131 110 111 46 112 240 213 194 127 83 135 122 157 182 21 166 0 177 130 87 94 183 60 146 20 146 89 90 249 243 62 193 91 146 21 128 241 143 62 46 26 209 220 157 161 7 114 141 211 11 109 237 246 37 190 226 158 99 197 54 232 43 141 135 196 132 93 25
254 220 242 157 3 237 232 176 249 174 69 140 154 144 47 0 161 156 142 114 210 153 229 59 35 74 116 87 12 201 241 154 230 231 207 73 103 224 208 29 92 40 80 132 95 189 36 63 91 12 75 110 45 7 195 239 150 225 150 72 50 206 110 150 95 235 66 143 92 215 247 106 3 168 240 149 172 66 252 210 108 42 54 35 158 252 83 11 13 180 244 226 232 193 62 10 54 180 27 3
240 99 17 164 99 214 103 81 188 43 73 89 211 213 177 50 55 172 130 196 95 50 138 89 176 0 128 186 67 36 55 139 2 48 89 77 29 167 101 226 0 55 81 59 176 152 109 38 208 88 68 19 108 69 225 253 218 248 149 33 51 67 63 98 99 50 71 103 137 43 0 32 244 13 186 196 52 75 125 140 78 238 65 91 122 233 225 17 91 239 2 131 189 130 116 59 252 4 233 154
173 215 224 42 249 193 242 31 159 15 79 160 221 68 112 253 190 163 191 22 135 224 188 142 53 4 57 35 161 73 36 85 26 196 132 180 95 247 93 85 99 3 162 66 91 97 208 225 55 193 236 238 148 15 166 253 163 50 220 160 20 176 150 223 43 243 197 190 203 68 249 77 197 161 137 221 115 248 135 136 208 204 214 249 138 46 122 74 113 121 84 97 1 19 225 39 149 114 71 22
1 110 119 111 164 115 244 164 117 222 242 161 68 237 191 126 4 102 56 172 225 36 19 141 157 205 234 95 124 98 210 37 161 108 177 187 120 56 227 112 248 5 120 179 21 95 188 115 222 116 231 186 161 203 116 251 45 118 52 224 141 214 77 94 243 251 6 79 59 194 18 59 2 53 20 79 127 142 54 64 29 110 118 212 34 92 224 246 190 140 240 116 210 90 54 42 170 164 165 209
199 146 247 255 149 47 148 56 69 154 245 236 16 44 26 23 134 177 206 221 179 79 230 98 88 107 236 12 254 4 188 84 169 66 125 9 187 4 105 253 21 116 46 53 67 254 234 45 143 138 139 75 101 96 103 188 197 109 223 104 70 233 175 230 227 147 24 76 33 224 139 179 14 219 39 108 206 183 93 199 97 78 125 79 26 218 239 79 70 244 37 211 72 27 6 0 183 154 79 246
136 225 11 139 200 239 242 151 67 9 184 32 152 137 80 119 249 155 242 66 194 43 78 84 172 145 57 207 68 182 58 153 28 195 135 92 48 76 202 212 150 77 233 181 27 220 75 177 171 123 232 48 103 223 115 38 214 48 198 202 239 85 55 212 241 17 124 193 41 86 28 203 86 221 62 230 103 241 133 58 115 162 97 188 122 248 235 68 223 2 220 83 193 160 227 227 12 208 70 172
137 150 41 135 79 56 70 231 233 151 251 30 1 77 135 214 199 11 11 32 99 5 161 241 119 147 83 57 32 104 80 132 200 163 157 28 165 32 86 161 26 110 219 131 37 64 201 146 26 189 142 161 91 230 199 172 173 97 181 103 41 111 198 249 225 59 82 251 173 244 78 113 141 23 145 11 62 94 53 53 89 213 138 181 47 169 56 108 144 133 207 249 214 253 207 235 186 244 166 143
245 106 93 97 251 238 166 157 209 123 137 155 219 8 91 159 142 28 0 142 144 32 64 21 220 205 71 220 246 93 38 239 0 64 254 109 41 231 144 232 58 82 202 17 64 54 10 215 43 160 247 253 110 166 190 99 24 253 8 235 77 105 139 106 185 120 164 62 134 139 95 167 116 79 5 151 253 232 91 202 127 116 158 221 189 142 68 2 255 150 198 193 139 14 126 170 127 243 221 105
243 62 200 112 112 106 30 254 123 5 175 13 95 15 59 23 103 214 192 31 115 213 57 175 235 143 214 86 171 52 248 121 182 111 38 2 212 24 141 6 36 157 8 232 118 191 164 96 142 179 132 159 9 168 181 198 84 177 234 9 103 198 166 133 119 143 137 149 96 44 254 206 46 254 248 0 107 48 169 167 12 187 220 87 172 71 145 231 50 45 174 223 154 26 128 235 83 238 246 94
17 12 186 123 91 34 131 23 81 173 106 32 79 212 164 134 21 34 198 179 14 53 55 77 112 219 12 108 148 206 171 200 126 122 19 59 181 33 215 224 35 42 160 18 177 92 14 88 159 123 128 12 133 103 141 113 124 76 61 92 21 96 100 155 104 56 51 198 116 233 198 160 207 155 120 186 69 40 174 201 45 145 101 164 159 186 242 57 68 19 39 109 9 148 24 172 246 255 168 34
143 16 100 20 26 119 224 131 135 227 59 35 204 158 223 103 141 225 208 143 16 144 184 27 126 126 29 99 44 247 200 153 34 148 84 107 67 57 10 196 15 154 4 174 65 77 70 235 96 82 118 102 98 191 0 180 52 178 251 70 250 231 103 198 142 117 242 229 92 70 160 28 151 168 161 103 157 110 205 133 118 104 50 245 190 142 90 168 67 136 49 73 60 33 248 215 183 178 135 219
236 81 39 101 160 155 146 179 112 172 246 238 90 239 178 33 109 71 197 219 96 226 193 234 46 237 188 127 176 180 182 90 30 123 190 30 215 87 85 152 27 83 96 137 65 208 153 182 240 153 21 87 210 98 203 218 56 133 21 218 161 99 142 109 159 38 215 175 87 213 124 115 34 175 125 147 145 128 191 139 9 123 60 53 186 201 29 190 78 186 74 201 195 171 167 183 155 6 57 143
117 31 230 196 195 99 237 70 62 243 114 210 149 34 221 121 208 87 1 35 43 192 161 9 99 146 201 230 180 201 249 190 119 172 152 243 108 231 62 59 175 178 40 46 121 210 201 114 102 66 222 169 148 31 219 35 56 89 99 17 196 115 157 142 113 235 98 113 93 23 18 251 147 187 162 50 231 220 186 174 137 115 52 108 224 155 136 190 66 0 100 250 4 114 247 146 221 104 50 79
243 104 0 185 161 222 241 169 110 115 158 58 55 142 196 84 163 57 75 7 55 112 86 154 250 117 6 17 113 145 164 252 217 114 166 53 100 232 85 213 119 48 194 218 62 34 228 78 253 168 64 177 168 18 89 225 80 105 108 54 47 61 148 111 77 90 180 173 234 194 163 25 213 75 181 114 200 80 34 114 144 147 127 102 149 141 195 124 116 187 94 185 100 207 38 127 94 86 133 45
3 191 155 162 196 91 188 55 149 58 227 114 234 52 9 183 150 138 62 23 24 22 121 163 0 227 176 57 107 131 213 7 77 114 21 120 132 179 99 23 93 31 188 30 51 251 105 139 85 240 118 77 150 53 247 252 150 45 43 170 95 5 203 64 187 78 100 254 231 38 234 253 2 228 231 43 121 246 22 36 25 120 53 251 206 48 231 186 137 47 193 150 40 107 13 231 22 3 92 165
90 41 211 71 26 212 7 8 44 91 61 225 10 212 66 17 34 230 119 239 196 245 109 39 150 61 251 26 125 155 141 185 90 36 142 92 114 19 102 89 217 63 163 140 24 8 113 163 143 16 106 215 128 34 164 227 94 234 188 241 27 189 251 166 160 43 134 242 2 46 58 86 170 53 101 103 39 24 239 27 135 62 232 248 156 152 231 253 83 243 19 3 16 160 147 130 53 67 20 20
42 151 217 75 212 253 199 79 104 21 38 102 0 228 255 135 36 123 164 150 70 29 240 108 234 201 143 250 55 252 52 171 97 112 240 129 32 41 185 181 245 210 69 24 180 81 96 19 152 67 152 230 178 183 118 55 156 239 28 150 252 40 116 83 84 212 127 51 54 194 190 193 27 129 207 85 192 138 195 40 58 150 78 57 27 56 39 199 41 145 191 101 39 108 170 97 165 7 15 137
204 189 210 42 206 50 34 240 188 228 65 139 163 119 164 47 218 109 252 143 137 182 24 91 35 192 219 250 10 69 27 90 105 22 100 34 14 118 179 91 67 240 161 152 106 55 47 154 158 137 133 180 169 229 36 254 47 74 139 51 48 38 215 60 232 129 69 161 82 100 170 73 181 7 197 212 200 227 162 46 121 194 108 28 64 156 132 115 134 160 57 40 255 211 63 164 225 218 217 184
10 174 142 253 220 40 29 30 103 250 48 210 3 24 122 47 149 16 241 131 207 74 54 163 212 185 62 134 33 57 151 6 96 30 193 43 151 98 161 113 210 115 222 97 245 13 185 170 22 159 210 206 56 113 146 105 115 4 4 160 246 92 207 212 198 127 120 19 50 202 94 208 205 204 38 93 207 94 39 132 11 89 123 211 74 220 255 100 128 226 180 141 97 215 61 113 134 138 80 51
9 86 159 188 107 252 146 21 198 213 68 147 48 114 108 223 141 36 243 194 16 0 89 40 170 167 234 1 122 161 174 222 8 205 27 40 223 64 248 159 196 59 70 221 151 229 41 176 38 109 239 26 102 30 239 99 239 85 103 143 67 88 180 201 157 124 50 60 253 129 168 52 46 53 156 139 198 49 40 244 242 10 4 122 168 9 6 244 219 175 238 184 211 27 67 120 38 79 251 60
209 214 49 26 48 195 143 54 223 102 95 66 21 91 80 208 179 187 12 80 51 164 129 0 28 231 197 62 96 207 242 154 123 153 69 44 132 80 32 43 176 65 147 76 143 247 128 127 68 123 60 227 36 179 40 232 160 117 181 119 157 198 94 220 45 215 115 56 18 224 89 77 10 104 130 70 58 17 110 188 19 61 28 113 84 248 170 235 66 127 160 0 182 162 2 21 216 178 131 129
15 217 145 10 152 88 96 42 36 24 228 244 224 241 231 158 239 69 248 1 126 244 233 108 81 41 47 106 161 146 38 149 88 174 232 176 28 142 246 229 15 90 80 172 69 82 57 108 218 185 219 55 153 132 186 220 185 183 216 153 98 46 18 117 210 125 137 169 254 116 87 196 80 7 31 252 245 173 143 229 100 51 209 94 9 233 52 88 10 245 2 103 61 239 242 79 65 92 99 108
190 30 78 100 168 236 162 143 162 133 95 56 38 63 47 176 216 233 104 104 121 161 162 203 185 249 21 173 28 59 1 208 250 189 237 193 183 117 65 87 0 45 131 212 85 214 40 56 192 155 39 10 148 115 131 15 202 140 237 248 208 51 17 100 24 219 248 102 245 142 109 189 69 252 78 116 140 153 96 121 37 21 82 177 66 196 2 78 166 31 234 40 240 123 223 171 214 21 100 184
165 83 21 6 148 221 225 48 62 222 9 33 91 59 190 242 108 69 44 183 118 118 179 108 79 104 88 219 184 41 194 177 77 227 30 61 116 68 68 118 193 60 174 136 142 7 103 165 112 210 192 162 44 84 18 34 80 80 233 36 26 102 239 220 247 92 111 241 114 146 189 220 105 158 214 179 210 41 210 98 67 50 26 127 220 244 255 51 83 26 130 175 239 254 124 7 59 165 242 227
152 118 240 203 141 247 222 121 9 14 38 7 235 131 14 166 251 251 95 204 159 77 40 48 167 169 126 47 112 198 160 55 151 141 71 124 155 48 228 14 199 71 216 133 184 155 157 160 214 107 179 197 125 134 96 0 1 174 90 35 144 31 19 213 24 107 32 175 140 85 172 99 34 198 7 63 48 133 170 211 228 221 50 179 20 235 104 179 14 80 121 69 116 220 89 230 218 33 143 105
104 111 167 182 180 196 229 58 216 60 124 207 178 71 54 190 130 83 27 32 108 165 28 76 110 218 202 253 240 252 80 123 188 196 242 84 166 173 31 91 6 24 96 80 83 223 8 10 10 19 212 56 101 208 135 10 203 30 17 154 68 141 80 118 75 122 86 154 130 209 224 151 103 112 98 127 139 108 160 121 40 0 47 44 186 229 25 19 220 108 166 47 8 107 184 141 184 127 68 20
142 30 134 241 241 153 43 152 28 171 25 191 62 241 239 141 132 67 251 38 250 56 27 235 55 114 167 37 190 126 8 225 121 218 105 255 198 208 99 98 94 214 14 90 79 222 55 33 124 69 150 37 105 5 74 152 243 168 150 202 135 79 33 165 68 189 187 77 38 54 1 140 125 32 163 107 221 11 78 158 152 216 35 56 14 188 244 187 21 106 10 76 69 172 139 154 221 55 33 207
204 231 219 99 87 40 19 120 217 72 147 100 193 246 39 152 87 172 52 246 188 76 25 234 43 28 167 2 237 78 55 86 239 36 116 100 241 32 140 32 150 54 164 183 49 1 242 153 170 106 4 190 11 33 175 186 177 97 73 234 137 82 234 6 87 12 8 84 215 40 36 34 130 83 90 228 93 191 245 128 37 24 4 164 94 172 18 117 81 155 246 66 246 238 99 195 90 166 221 121
57 156 127 151 244 16 247 81 70 121 148 86 100 45 116 57 61 79 224 84 147 89 8 168 63 82 98 20 180 193 137 139 157 193 200 43 165 128 28 252 190 237 84 188 17 168 100 232 34 253 46 146 18 219 211 68 154 171 9 253 40 88 69 84 54 54 223 242 165 45 10 91 198 107 139 136 82 69 144 78 8 32 93 194 23 175 67 127 224 145 118 126 141 178 34 255 184 165 186 8
165 158 186 144 19 56 9 183 169 228 28 132 137 10 242 236 134 172 191 249 80 207 246 56 231 44 55 162 197 164 24 230 138 38 65 231 107 81 0 206 64 179 12 49 235 153 163 120 7 85 128 113 189 197 29 148 102 205 79 212 115 238 44 25 188 193 250 204 234 47 13 92 6 107 57 236 62 120 212 165 190 131 59 69 224 119 94 101 252 230 50 99 50 239 205 186 186 212 71 118
169 9 223 51 26 146 29 140 234 65 158 236 44 253 138 65 108 211 161 70 103 84 18 75 59 139 101 159 6 94 210 13 198 249 150 243 102 15 253 135 129 22 235 188 193 245 207 220 180 113 145 205 238 163 230 1 6 150 248 193 204 5 204 212 23 92 133 152 226 197 253 183 98 1 119 113 176 15 225 159 201 150 136 102 144 156 148 234 44 227 162 151 55 147 225 238 211 90 189 244
33 211 253 48 240 10 63 254 191 168 176 248 183 4 62 69 135 175 48 195 80 25 16 220 125 134 250 25 78 255 212 17 233 221 145 158 8 248 246 132 211 203 255 214 167 146 30 58 132 179 222 155 23 240 117 38 153 89 210 216 26 30 35 161 251 226 160 148 23 235 9 127 220 75 172 194 64 35 5 238 230 242 129 227 247 67 149 121 60 172 111 239 230 36 167 79 76 73 150 178
180 183 225 99 4 89 29 87 28 127 16 69 221 131 114 240 223 214 41 123 164 228 137 205 100 44 55 152 214 221 47 242 253 85 214 56 139 198 90 83 218 126 99 9 48 185 209 50 139 133 112 23 22 12 181 208 157 156 226 65 4 201 160 245 93 4 200 135 50 190 216 83 9 246 178 17 102 92 211 243 180 15 83 241 43 134 70 145 192 201 235 98 162 220 65 182 165 236 231 246
229 222 161 144 36 213 73 166 10 191 162 81 135 193 196 197 176 168 6 21 120 54 168 136 47 144 56 36 90 157 92 169 138 25 63 118 102 217 238 98 232 43 46 106 29 182 233 124 218 98 61 226 81 29 103 54 230 35 139 240 43 76 51 244 192 139 131 19 255 90 152 186 30 47 82 114 205 76 100 217 131 109 236 95 8 12 192 212 38 174 239 79 91 36 55 183 174 202 53 83
202 14 28 11 28 14 194 173 239 90 134 129 238 26 16 161 151 106 175 193 151 220 180 9 244 77 204 250 177 160 69 147 82 71 50 136 243 183 36 36 146 98 175 217 181 75 208 228 46 119 125 48 155 177 229 78 9 92 140 82 35 6 226 140 224 214 20 132 129 117 41 24 39 95 26 248 69 45 18 10 139 15 203 245 157 142 146 41 47 173 67 249 153 214 54 129 200 211 15 5
182 201 222 29 89 230 192 33 57 30 172 65 27 26 207 53 91 137 94 81 61 225 55 140 229 122 26 36 33 47 59 31 141 174 212 1 98 54 117 174 118 195 254 133 187 139 186 142 201 56 29 181 175 10 226 36 189 64 201 74 34 37 189 222 69 245 157 139 2 60 178 79 64 212 39 212 38 161 111 148 72 93 169 193 97 81 228 81 109 98 4 34 12 132 188 82 103 176 118 56
67 5 61 48 143 169 240 93 223 58 254 24 25 161 14 150 238 71 134 226 58 16 72 215 253 233 83 170 73 11 44 41 85 187 204 187 71 156 77 66 248 43 63 13 212 28 22 60 39 135 206 247 157 185 149 49 206 116 236 84 118 108 116 198 136 12 12 179 228 104 112 44 250 111 1 66 103 201 229 84 134 139 213 27 199 103 224 199 66 160 170 107 159 193 55 190 9 67 110 173
172 113 14 232 17 86 28 221 167 110 245 91 50 10 121 206 125 252 146 196 60 38 126 229 66 227 191 62 238 248 232 11 121 149 201 176 176 97 25 88 170 254 166 249 110 5 171 93 239 14 162 246 253 39 46 228 144 207 86 78 162 94 112 204 243 231 163 34 149 49 155 233 87 177 25 209 111 248 106 118 54 8 14 64 39 240 60 19 30 55 69 250 251 7 197 61 65 58 22 240
197 253 60 141 41 12 36 64 142 217 142 70 150 239 224 210 60 77 67 120 216 64 138 0 36 104 8 129 22 137 221 22 135 155 4 134 171 148 140 252 15 167 219 48 216 160 230 129 100 44 141 98 75 97 175 182 201 243 115 6 229 28 130 35 160 55 234 76 184 224 4 246 99 172 156 64 125 156 203 143 244 54 199 245 67 204 96 148 129 214 37 130 211 217 33 40 190 149 196 160
176 175 210 102 218 153 249 124 193 215 232 152 98 30 156 169 34 93 95 174 132 5 180 76 155 116 88 217 142 124 119 122 161 193 252 50 97 75 184 246 150 72 230 147 99 227 45 234 24 35 96 96 6 229 233 94 164 3 79 195 173 59 28 109 61 22 37 45 121 48 208 70 81 213 138 50 249 115 43 38 79 102 105 103 147 213 230 69 224 4 199 114 128 241 7 142 219 172 175 211
149 77 22 199 204 217 228 122 29 176 141 78 9 149 103 61 34 141 228 169 117 178 65 154 201 22 83 65 187 213 153 213 45 2 148 160 238 130 150 210 228 158 195 247 129 200 23 64 119 122 206 101 249 179 160 77 229 178 97 47 4 173 165 73 254 13 186 108 8 4 79 243 174 208 49 30 85 152 100 206 168 127 88 86 238 32 20 65 184 212 43 43 8 246 220 6 7 181 44 130
22 168 92 205 254 116 111 87 210 218 201 215 136 190 231 89 54 235 142 156 244 140 74 162 229 173 55 188 236 30 33 179 2 130 101 211 133 81 196 17 178 36 202 32 138 129 214 67 181 106 72 116 80 222 2 165 124 155 158 255 121 217 145 229 233 132 249 126 143 76 91 132 169 150 109 193 159 203 81 94 116 213 64 234 53 246 154 146 92 64 167 201 79 0 108 74 79 97 110 78
152 172 194 238 101 64 34 216 129 237 72 61 50 106 206 240 92 251 104 172 91 60 218 190 35 222 110 92 215 171 97 136 206 191 61 72 47 44 128 100 55 131 14 158 78 4 74 189 125 229 198 89 16 137 150 120 71 214 250 132 243 144 69 108 33 174 178 111 60 198 157 130 249 125 219 170 149 95 229 40 40 63 46 18 116 253 118 48 161 116 32 96 12 63 121 53 110 243 172 104
150 85 232 116 194 75 226 167 251 213 147 242 164 30 200 24 148 114 146 93 216 8 254 108 94 54 3 230 200 57 5 102 241 153 151 175 198 215 198 123 14 2 205 215 26 208 98 83 201 174 65 87 83 229 70 178 151 186 78 197 8 172 24 180 167 44 57 181 236 213 110 95 155 82 233 203 209 86 122 19 237 42 4 243 145 113 77 111 74 195 179 128 146 76 254 237 51 23 83 248
140 103 139 78 243 135 196 49 141 173 48 151 137 25 119 114 122 160 130 22 214 139 90 95 134 239 222 187 37 157 104 103 120 60 179 219 214 226 30 78 64 211 253 219 28 163 20 63 92 121 146 173 197 115 77 229 245 105 97 242 237 63 112 41 177 229 50 196 206 142 183 135 130 229 213 182 158 177 121 15 211 249 220 140 27 33 249 106 40 229 102 44 39 190 90 231 27 159 150 222
159 241 191 194 37 230 109 137 226 44 118 215 75 109 236 198 171 55 132 163 118 173 196 184 115 171 31 155 246 239 229 16 181 244 129 38 70 131 130 77 201 80 138 1 144 12 199 25 213 96 115 201 164 62 85 32 73 244 37 166 203 150 153 43 59 77 113 195 121 33 107 155 147 142 185 254 244 35 4 98 6 143 219 227 72 245 36 44 201 217 88 31 109 50 141 146 129 32 85 74
152 253 218 248 136 59 78 187 0 202 125 141 236 38 149 169 43 163 0 121 50 222 19 70 215 251 39 163 9 17 204 38 118 126 226 106 165 243 208 129 153 173 191 133 204 245 147 222 162 74 14 47 228 38 194 97 36 240 88 200 242 253 77 239 171 224 92 225 57 236 65 58 82 38 131 179 2 194 121 137 214 158 99 23 111 144 180 32 89 216 86 111 170 127 205 157 235 196 108 33
45 94 218 11 73 121 207 8 38 163 146 173 99 242 94 24 178 117 144 190 65 91 187 217 124 184 58 239 14 230 69 216 114 236 231 38 175 151 251 38 251 74 135 129 228 69 209 248 137 118 196 171 231 59 195 55 152 182 108 244 200 51 111 5 226 247 203 12 170 247 6 186 102 188 106 163 86 37 85 60 113 231 81 33 254 102 21 231 172 98 70 54 118 49 96 207 59 255 66 219
241 42 238 55 136 147 95 115 33 181 74 236 56 135 215 56 159 44 106 213 63 48 174 12 15 252 73 127 53 215 236 131 167 225 44 248 71 51 123 91 95 163 47 143 236 73 41 6 120 53 242 205 65 213 52 253 48 144 170 153 57 53 153 24 12 79 75 55 204 162 233 218 174 245 242 210 33 65 55 112 166 111 97 182 212 53 117 208 82 126 159 210 241 97 51 219 29 52 213 227
2 213 43 174 93 125 144 125 1 91 217 91 48 14 200 152 195 223 241 150 138 61 139 12 146 31 100 190 170 1 23 23 137 79 219 98 226 228 109 93 185 64 113 22 10 179 206 245 254 226 39 223 28 197 99 90 160 163 128 191 45 104 6 53 139 248 141 26 25 154 136 113 20 102 12 30 34 16 188 89 19 197 120 129 48 43 112 52 13 255 43 123 75 104 91 242 146 122 78 47
128 53 176 235 16 243 26 165 11 57 204 118 138 80 130 125 71 133 48 242 25 189 21 54 178 24 207 193 105 214 27 6 21 47 113 49 162 51 33 182 77 16 146 29 83 36 63 110 234 170 27 195 132 86 237 65 179 157 158 7 232 239 188 178 188 136 62 96 100 169 227 22 253 18 199 163 116 74 253 230 138 135 44 221 167 255 97 0 135 122 65 159 252 143 227 25 133 122 39 114
109 59 118 165 36 92 25 166 179 45 159 121 35 127 129 36 170 247 250 34 178 21 38 152 76 82 75 226 212 114 161 164 153 78 142 154 98 79 238 146 162 220 104 210 89 226 36 208 20 249 111 185 6 217 172 211 25 129 245 105 32 35 164 7 82 134 70 221 71 122 50 249 16 8 142 139 63 151 34 242 93 34 111 241 15 150 250 21 178 244 186 117 179 184 76 5 57 107 41 150
99 85 218 201 178 255 30 59 86 40 35 170 61 92 188 24 176 56 164 193 120 143 83 94 32 183 230 55 125 67 88 185 204 232 4 222 185 179 107 244 1 251 90 244 93 70 86 175 94 228 186 179 176 231 196 104 237 242 3 57 22 220 34 185 30 219 90 63 148 144 174 213 208 131 45 231 99 78 134 193 44 127 120 86 221 108 25 220 110 195 165 242 248 105 72 70 194 185 105 108
53 249 149 157 120 61 23 211 100 96 128 182 196 77 57 126 106 138 4 204 182 135 144 19 229 29 154 61 198 206 1 97 217 228 133 180 80 41 4 117 88 7 27 193 18 131 189 49 44 43 189 59 176 243 241 251 35 143 39 71 182 63 214 20 161 137 244 214 3 139 86 196 223 9 144 184 253 163 236 213 215 10 145 136 172 180 12 159 221 191 103 40 207 136 129 39 210 88 76 141
108 198 112 175 246 242 251 163 53 2 218 223 111 231 136 149 90 96 189 59 173 255 181 54 165 151 167 188 109 113 142 203 52 244 88 241 148 124 220 67 42 177 191 57 6 81 37 13 169 6 22 91 138 171 59 44 57 27 67 169 120 222 41 171 255 135 94 165 105 223 121 210 119 140 133 213 14 36 11 184 157 54 7 124 208 170 220 224 125 140 181 51 75 55 155 144 149 1 246 216
108 51 140 238 60 94 107 191 171 146 181 98 107 21 240 146 7 65 33 161 180 39 8 219 28 216 53 172 235 73 147 62 125 9 164 213 221 242 174 117 80 202 30 212 250 172 114 66 66 106 11 35 176 171 11 9 205 63 171 179 57 152 137 167 181 35 199 233 240 157 249 224 5 211 98 200 158 73 163 108 11 194 165 11 167 116 138 88 221 70 76 224 23 100 3 13 83 233 249 118
134 103 85 30 75 47 41 97 45 143 59 118 198 21 100 223 117 224 41 99 54 209 247 82 197 75 226 197 196 219 202 174 167 83 220 232 41 38 65 41 42 148 81 86 173 17 18 240 255 154 252 124 54 185 190 206 36 242 147 213 216 180 13 58 196 157 154 140 110 251 252 31 68 247 14 76 185 199 210 232 227 103 107 74 47 44 43 129 175 205 194 66 169 207 123 73 95 1 59 93
213 69 14 230 81 100 47 189 178 106 252 126 163 49 177 199 186 166 175 122 20 5 111 35 77 35 113 67 180 124 128 200 138 140 93 130 130 204 77 172 182 204 213 159 130 150 220 118 209 136 122 22 15 221 22 215 219 138 45 30 139 1 63 60 79 77 176 79 190 60 14 30 202 18 240 231 120 113 251 181 108 110 26 32 40 13 38 230 230 168 223 203 120 144 122 135 225 51 74 80
159 45 145 75 223 78 31 183 163 71 140 228 4 145 176 197 145 231 233 238 134 157 211 3 24 183 73 19 207 235 162 20 37 29 225 59 178 173 99 199 239 0 232 117 87 161 1 162 173 223 214 91 121 136 5 237 84 85 47 223 9 100 248 18 242 67 65 101 253 14 149 112 204 45 200 218 117 235 2 32 230 129 172 254 115 196 64 206 80 27 64 221 200 151 152 194 170 95 11 45
39 239 229 121 111 162 159 160 192 24 207 111 250 195 177 185 110 192 238 176 52 21 183 28 179 211 60 64 192 169 185 1 207 8 249 61 88 118 232 76 251 149 154 36 51 106 56 116 172 120 134 23 80 39 145 0 224 199 151 62 160 10 38 4 143 211 8 151 251 33 63 151 218 41 249 155 112 121 169 151 191 216 129 200 231 216 58 155 180 85 8 202 235 167 206 196 105 80 83 29
221 213 158 232 130 254 195 159 247 33 117 193 50 3 6 180 69 78 83 225 244 178 190 170 136 252 186 108 182 162 171 21 253 252 3 92 213 100 163 30 63 193 209 110 33 150 67 173 84 12 71 35 143 69 1 62 120 9 54 104 42 142 4 9 53 236 249 91 144 71 8 218 152 196 145 151 188 159 203 72 120 115 167 57 2 18 244 94 182 218 41 176 254 220 72 132 209 72 112 86
77 168 228 158 251 249 48 86 54 157 239 83 97 131 185 152 129 204 148 154 124 65 181 229 200 70 173 18 208 71 130 11 61 69 106 240 167 168 74 173 143 176 86 240 126 185 64 249 124 191 243 71 18 38 180 172 101 44 5 238 208 245 203 181 12 10 64 207 179 157 147 111 131 46 34 228 113 30 250 47 98 127 73 184 149 24 49 200 99 239 123 115 231 21 24 17 245 184 93 122
189 161 85 184 94 211 137 166 96 225 247 126 17 254 15 86 100 237 76 236 104 219 25 177 224 128 207 40 109 76 47 237 74 30 54 164 54 153 68 47 237 68 37 112 18 203 242 204 24 184 89 134 80 217 103 78 234 9 50 140 12 100 113 65 120 72 166 131 31 63 230 167 63 110 124 217 235 153 151 27 189 51 45 55 89 174 53 95 177 39 207 244 24 40 11 83 170 143 2 255
172 177 244 246 74 77 200 61 159 221 239 208 135 161 189 21 52 122 150 161 12 132 150 94 161 32 253 122 136 4 174 216 240 249 79 173 48 49 206 191 62 46 176 71 210 181 207 80 224 91 14 231 145 89 86 245 231 190 61 46 253 145 143 181 87 1 89 235 109 233 200 142 222 134 209 89 86 46 138 233 211 203 160 50 255 162 244 59 211 194 29 176 27 243 193 202 43 242 251 64
30 3 100 13 61 181 30 153 111 180 234 52 5 93 103 144 33 235 71 116 233 155 166 102 179 182 53 251 228 85 6 24 230 120 27 170 118 185 173 230 144 195 187 219 187 27 175 150 85 170 44 220 195 48 72 123 154 13 242 193 235 255 18 44 29 24 4 112 191 24 148 174 235 37 69 82 251 200 124 24 232 25 129 187 159 8 102 234 76 137 214 78 2 49 65 234 232 169 51 164
240 47 196 183 39 105 134 31 183 47 130 95 197 98 236 2 88 131 138 249 69 79 214 70 116 204 13 118 237 173 62 98 118 72 100 241 161 250 247 209 238 211 7 150 19 149 4 122 247 75 30 3 92 128 86 35 102 165 168 120 132 22 135 15 187 27 204 157 36 250 184 240 130 10 97 229 139 224 209 140 21 127 212 46 51 196 171 99 173 127 238 125 73 105 100 154 253 3 59 129
225 104 250 131 248 245 26 185 11 51 242 23 42 81 103 52 143 210 200 44 170 68 180 185 132 34 106 138 172 28 151 203 157 91 241 11 211 181 75 166 29 185 201 14 49 198 45 8 78 193 254 158 234 164 89 252 64 174 63 133 249 43 138 184 225 144 182 94 190 115 253 93 11 80 168 231 160 83 119 199 37 232 35 64 20 150 53 47 129 173 201 71 209 247 216 253 167 136 217 42
219 133 198 192 112 85 162 164 218 121 31 168 1 81 65 8 48 12 111 236 98 254 226 96 229 247 76 3 250 192 63 65 129 199 251 189 109 209 66 225 216 163 197 175 152 127 126 93 223 86 88 252 71 87 1 70 57 148 195 100 11 97 144 139 180 0 25 215 35 97 125 253 192 6 230 134 44 163 226 10 235 219 123 74 183 66 229 141 232 160 104 240 135 182 138 16 29 134 100 148
120 211 41 38 0 174 54 34 197 124 244 191 184 158 173 204 9 94 42 192 27 165 15 3 193 210 4 44 110 7 176 32 50 112 235 237 45 58 230 185 106 7 173 135 246 82 30 20 49 9 152 83 238 94 192 181 54 96 221 172 142 116 205 82 255 206 41 16 201 149 143 86 87 103 42 196 70 153 58 224 174 17 107 152 25 30 7 108 128 177 202 11 174 250 157 150 150 59 208 235
12 126 20 75 123 79 244 233 253 166 74 22 244 65 182 24 118 190 214 16 214 54 65 199 249 34 149 182 162 9 59 127 185 145 34 65 81 136 100 92 196 139 63 67 180 145 210 104 193 27 211 14 81 239 98 149 32 13 152 23 79 79 11 218 57 44 176 56 49 10 231 205 246 120 105 163 18 113 25 79 183 146 246 134 139 66 229 193 8 181 12 90 141 77 86 103 72 120 71 55
113 49 172 84 13 230 209 27 170 119 254 186 92 200 208 245 61 243 158 117 230 206 151 17 190 160 151 33 156 166 10 175 236 226 221 176 122 82 142 224 111 51 209 34 229 217 152 61 158 13 180 159 81 175 52 89 216 65 74 197 45 230 54 213 242 37 178 135 184 219 24 26 43 183 202 9 182 243 179 246 65 208 250 125 142 74 99 195 43 20 197 24 45 38 114 61 30 212 137 14
253 38 162 58 102 254 246 36 19 69 191 243 25 105 195 4 79 179 137 125 215 42 112 151 157 96 28 127 29 194 165 149 165 116 123 157 7 202 3 186 99 103 54 101 31 205 120 156 11 58 26 50 100 186 52 131 189 64 159 53 138 24 225 227 120 80 11 16 255 136 31 86 20 223 107 216 45 0 34 108 181 90 116 83 250 196 48 14 82 136 180 20 28 177 99 23 95 25 154 4
147 249 223 52 37 161 16 215 76 127 142 48 216 22 130 1 85 141 162 91 161 92 125 5 229 93 238 249 84 152 54 30 198 24 205 85 32 146 64 98 137 166 202 254 78 249 165 131 25 133 247 153 54 237 255 206 161 68 58 92 128 12 229 208 8 237 110 79 146 238 67 113 5 173 30 139 225 100 248 81 147 105 38 17 252 12 142 87 231 160 130 155 163 210 235 110 6 109 122 37
57 61 212 167 140 200 119 148 205 74 114 145 119 85 220 131 191 71 60 233 127 161 181 198 202 208 46 38 34 56 144 198 78 156 40 97 226 80 172 152 48 82 99 113 210 12 4 16 208 204 81 10 241 52 104 236 142 171 63 155 155 92 99 233 69 179 240 151 168 80 140 125 195 77 190 244 150 138 189 129 190 14 203 137 24 46 181 207 3 4 158 8 41 19 58 170 117 111 237 122
46 160 76 195 74 208 35 125 63 41 190 183 103 78 214 249 77 121 224 75 78 167 26 133 126 84 189 235 176 183 148 5 68 141 12 159 136 184 141 160 180 68 49 245 217 140 169 121 167 145 64 26 123 97 211 241 222 195 139 138 196 238 108 208 160 93 12 2 210 191 30 77 173 42 180 167 128 65 92 52 167 125 134 164 12 96 123 221 67 18 207 64 141 43 207 91 155 110 141 201
192 239 139 171 34 6 33 254 26 200 196 22 206 207 24 82 202 168 236 24 163 170 26 176 183 234 227 0 45 187 144 224 222 224 2 175 174 216 39 32 203 249 209 35 167 196 12 23 190 71 50 168 154 101 115 184 254 115 139 48 108 69 136 175 73 55 100 137 12 136 234 148 200 212 242 131 20 225 124 192 221 45 135 27 77 226 178 233 144 68 47 241 228 114 25 14 177 245 247 121
33 125 59 103 155 248 49 52 73 160 143 68 225 190 227 97 8 252 200 90 159 241 79 151 168 251 151 223 251 245 212 41 255 45 133 163 66 250 203 44 176 64 190 231 146 151 117 45 84 94 92 27 254 115 250 185 238 163 83 93 67 223 247 34 104 209 234 146 222 145 221 52 201 57 1 244 227 149 121 144 3 151 173 6 161 148 77 158 98 171 21 41 131 21 132 31 93 224 218 230
154 81 69 3 148 156 232 184 7 98 194 235 255 90 38 211 155 81 94 189 34 182 44 117 117 66 110 86 170 96 88 164 69 81 113 243 39 30 38 102 16 209 0 183 180 233 247 101 119 52 15 235 147 68 76 228 202 253 69 41 155 157 231 7 146 127 212 128 21 82 102 147 171 112 151 102 52 227 221 72 146 163 236 246 83 90 29 158 114 32 228 173 124 145 49 203 163 169 103 206
24 228 101 72 56 54 120 208 114 132 69 105 30 157 105 98 210 224 97 111 16 125 242 183 4 1 20 226 17 123 155 215 210 74 92 226 185 39 81 149 210 191 206 86 174 39 179 242 252 171 150 0 216 111 30 48 141 141 48 200 0 224 93 154 101 2 38 129 2 9 95 65 110 149 90 144 119 109 216 231 5 246 156 235 49 92 12 45 60 105 7 97 247 244 97 193 45 153 54 57
88 8 173 247 89 227 213 73 236 63 80 204 222 248 127 103 235 5 152 97 23 178 138 47 191 118 123 139 243 52 171 115 171 112 122 201 176 111 27 29 215 35 32 21 155 90 157 72 243 189 102 242 169 62 166 78 137 187 127 36 146 136 255 160 64 25 208 20 151 140 81 98 141 126 230 173 193 221 114 178 155 104 107 10 105 138 95 167 190 42 245 205 199 32 34 85 225 76 239 225
184 209 35 131 168 200 205 206 216 79 226 84 175 98 200 94 196 24 179 104 137 232 96 127 10 86 89 192 120 51 132 186 35 82 216 30 129 78 224 197 102 68 189 174 102 99 17 169 226 156 216 122 158 127 137 171 108 96 234 64 82 238 168 133 18 3 113 155 52 2 140 150 196 241 91 112 222 81 102 73 56 48 100 116 40 110 34 178 168 19 111 74 234 136 174 205 23 91 19 142
49 246 203 55 118 109 103 99 227 185 108 105 74 191 112 140 89 19 141 45 252 156 119 156 18 105 204 83 224 135 129 151 50 65 227 106 250 161 186 186 139 55 119 142 137 205 42 181 154 50 44 107 27 45 145 157 15 63 186 243 109 71 234 2 163 192 30 163 137 191 57 71 77 81 6 236 150 188 18 32 32 102 251 86 179 97 94 111 17 251 17 164 29 112 32 97 13 36 36 149
