P2
100 100
255
102 162 144 7 81 250 66 22 117 221 3 18 234 79 89 167 35 206 109 75 69 154 240 110 58 1 136 95 46 191 116 49 116 39 49 33 109 131 224 138 150 134 229 206 107 82 248 88 111 237 124 35 162 87 198 168 34 60 33 19 55 108 136 9 185 219 130 104 224 109 223 135 143 223 114 56 180 100 107 130 231 10 248 105 19 166 179 185 98 247 143 154 128 156 54 131 126 146 43 188
224 211 91 211 217 57 142 221 44 19 110 45 28 29 72 171 140 4 200 176 160 110 215 194 129 226 20 171 176 161 97 73 34 44 157 122 245 65 179 121 218 1 12 226 68 125 83 161 196 89 155 233 128 123 189 208 157 251 171 214 53 63 124 51 142 63 69 56 86 208 128 116 18 154 62 116 206 25 40 58 168 120 27 173 229 195 246 182 243 244 37 80 226 103 126 34 124 165 75 255
54 186 89 208 144 126 4 104 55 203 132 215 212 118 188 92 185 253 245 82 70 1 187 31 218 52 75 247 5 72 51 49 231 95 216 144 177 3 64 86 100 39 125 163 43 85 229 254 128 26 131 45 141 54 243 212 108 81 245 90 129 236 63 167 49 47 18 149 218 39 121 50 111 183 239 107 251 6 63 85 27 137 63 115 244 194 168 117 172 104 204 255 97 215 196 16 181 101 182 183
43 78 202 9 29 49 76 171 65 194 202 4 49 116 31 29 156 150 196 18 219 56 150 188 7 67 182 23 105 82 153 159 195 215 153 195 144 235 21 140 107 217 81 97 26 119 57 49 72 224 154 10 130 159 106 74 88 28 156 184 66 172 139 203 254 113 176 241 23 12 7 120 95 215 50 168 161 29 28 100 181 201 73 111 199 59 55 44 122 58 180 214 169 137 239 117 51 115 78 121
17 255 201 41 57 163 126 229 70 50 152 127 105 86 131 228 118 80 65 90 213 51 93 3 19 216 190 110 46 59 160 213 74 58 124 124 234 203 20 202 170 215 209 189 102 59 59 164 173 135 101 143 39 237 57 41 198 149 147 217 217 25 115 26 153 179 82 115 27 254 255 66 225 191 176 1 81 183 205 137 251 9 216 15 74 154 154 149 235 254 50 135 59 150 3 0 205 37 27 175
83 46 148 192 57 63 203 53 16 45 48 125 74 66 101 136 50 203 31 35 48 106 47 228 255 30 157 245 13 164 150 130 249 251 34 21 40 45 206 69 112 102 240 208 172 75 134 98 8 65 190 127 121 131 59 116 220 100 248 27 234 238 75 162 74 38 107 6 91 36 223 210 169 253 57 33 223 43 162 218 14 136 218 219 89 154 35 111 164 18 157 189 216 195 192 149 162 155 78 193
209 13 193 131 63 34 238 137 66 14 195 196 201 171 93 88 90 186 174 134 245 148 151 90 147 124 97 91 119 113 46 134 236 239 136 40 125 255 254 36 78 94 166 27 19 201 0 218 219 49 54 237 119 176 83 217 68 5 115 254 2 171 80 108 111 77 234 182 17 181 77 221 114 74 102 219 72 9 229 43 154 186 252 235 208 232 250 95 139 52 86 136 240 17 71 205 161 76 172 59
233 183 149 159 79 94 173 12 122 63 15 140 245 51 112 163 59 125 108 182 97 77 55 240 115 54 123 15 47 118 226 29 36 11 223 47 210 163 17 65 232 89 9 142 105 4 231 163 12 10 137 180 142 0 73 117 143 82 117 10 180 45 247 25 177 63 128 103 90 56 227 37 116 106 136 239 117 216 28 58 104 90 86 103 102 107 18 54 222 181 79 9 211 237 0 103 185 214 164 90
213 19 255 130 238 124 30 135 84 1 10 196 175 211 222 0 154 29 117 214 190 136 153 74 11 154 158 92 112 197 179 91 222 7 245 250 177 56 124 78 214 70 241 156 82 78 77 203 169 29 132 22 58 214 165 45 187 59 74 76 51 227 216 50 200 249 240 217 255 186 128 195 29 238 87 15 206 150 77 96 132 161 36 179 163 103 34 148 24 96 212 4 90 111 168 92 205 162 234 219
168 204 172 140 55 238 148 197 151 116 106 34 73 120 128 66 120 164 160 60 106 39 96 158 213 91 219 136 98 62 116 251 107 156 201 163 197 7 181 101 116 248 238 20 170 18 108 220 159 98 18 60 215 47 19 19 89 48 136 106 28 85 248 228 50 230 193 157 100 182 68 106 230 53 141 194 48 236 94 144 127 245 74 12 41 42 243 29 159 6 168 29 217 100 54 196 9 239 40 119
57 115 10 109 185 206 250 45 55 57 103 84 110 214 117 83 24 164 155 21 100 144 38 3 210 242 184 171 204 177 189 181 23 7 32 72 64 86 66 241 229 76 252 164 101 201 112 0 18 131 202 101 232 124 132 14 170 207 178 69 28 237 88 8 87 172 131 221 160 160 78 223 146 237 57 206 254 93 179 23 117 141 126 168 101 201 227 203 44 210 51 140 60 143 42 51 98 229 254 42
142 126 38 155 148 53 98 70 211 53 14 163 27 197 108 36 65 182 243 81 43 123 206 188 7 202 93 76 200 36 22 92 231 185 202 189 132 106 143 110 182 251 137 62 130 218 0 60 71 250 249 239 149 28 8 167 220 236 65 114 100 230 52 0 135 17 114 3 212 145 137 247 45 43 218 63 178 40 46 143 160 223 243 233 159 102 197 0 25 144 44 214 253 175 25 187 40 21 190 183
4 56 12 215 222 255 45 21 21 33 30 10 89 108 92 251 80 230 85 99 111 4 226 10 246 210 162 96 47 206 215 101 21 203 102 70 159 173 250 230 38 133 216 242 86 129 24 23 227 248 199 121 150 98 30 244 112 207 180 106 162 156 163 22 165 177 52 86 210 9 132 26 60 202 41 101 146 107 197 188 166 126 234 227 198 12 67 234 30 68 237 154 53 42 34 71 60 55 223 88
231 122 81 102 7 247 85 122 134 236 36 197 94 231 110 240 136 218 248 30 25 196 118 205 77 103 171 250 86 82 87 218 169 54 225 136 205 37 118 117 47 32 43 43 112 232 12 43 166 168 137 82 142 197 39 162 104 36 63 126 165 211 133 187 87 202 17 246 73 76 142 164 220 189 14 19 195 199 167 195 118 47 97 8 166 175 15 217 114 121 58 35 91 222 163 218 255 57 78 225
161 138 138 208 11 172 161 0 68 219 141 225 29 159 244 149 249 188 242 163 185 139 47 211 100 159 72 223 196 38 0 254 64 225 202 223 10 253 213 72 207 106 189 4 5 204 197 149 192 57 197 24 103 107 142 191 151 50 133 15 237 96 86 73 143 223 26 198 254 46 207 225 16 164 112 153 32 199 33 125 190 179 70 50 198 39 7 203 171 40 58 246 237 133 248 2 43 139 122 178
96 124 112 191 69 13 33 168 64 69 140 74 242 78 101 189 61 85 169 144 110 150 252 181 167 57 219 117 189 39 99 142 12 43 206 79 43 168 137 206 190 51 74 66 157 16 187 121 120 186 124 112 204 104 239 3 104 28 26 109 159 188 251 50 87 18 101 168 20 173 111 221 218 248 220 132 174 252 123 50 126 190 108 129 129 147 3 147 32 105 127 162 255 129 29 135 20 154 205 82
6 3 176 220 22 36 39 185 135 22 76 189 227 68 109 229 27 13 174 35 78 227 104 35 50 32 243 92 250 15 207 62 104 182 45 64 140 158 223 116 38 87 237 147 189 254 49 137 171 115 14 216 163 28 151 34 48 82 137 247 106 248 17 23 243 54 220 5 182 6 200 80 194 253 5 20 252 219 68 63 71 32 133 102 227 158 191 17 6 218 175 109 46 117 206 195 113 185 160 118
181 234 195 226 251 26 9 27 193 122 136 176 221 126 209 98 151 210 56 76 142 149 182 84 38 55 107 142 43 84 163 58 46 138 224 26 103 231 20 93 38 20 37 170 158 66 92 195 12 251 150 146 252 31 222 106 0 103 153 42 138 109 78 126 0 128 113 47 90 131 76 161 89 230 95 121 9 239 202 205 139 54 52 37 60 17 33 34 101 246 124 69 53 190 9 152 86 186 82 248
89 117 102 59 112 132 65 139 174 213 2 88 196 79 169 218 145 150 191 220 50 42 156 48 17 221 173 254 96 141 48 167 97 183 226 203 225 34 52 236 137 108 79 192 97 132 40 62 13 170 191 141 113 254 233 153 116 74 20 98 229 120 4 198 4 148 61 96 170 237 103 217 235 224 187 153 72 230 91 21 127 159 16 120 235 130 138 202 198 57 107 231 115 63 182 36 52 253 79 208
141 248 130 126 247 218 103 127 99 188 96 90 151 201 61 134 204 87 58 238 2 218 10 170 91 27 10 8 107 133 72 157 229 70 7 181 166 29 212 5 140 232 228 82 22 122 205 179 176 120 125 112 193 194 139 180 126 41 216 32 110 225 3 24 40 161 244 242 132 161 255 49 25 227 17 235 16 209 205 134 11 159 194 139 147 24 167 185 13 94 182 202 51 64 95 59 10 251 217 122
185 231 0 86 200 246 79 112 50 189 94 26 236 184 43 173 188 157 185 16 87 209 29 234 163 254 182 80 86 18 213 71 238 138 203 43 155 141 230 25 141 193 42 141 176 43 41 77 69 64 122 54 49 21 193 65 130 95 105 250 8 167 90 226 169 135 142 63 225 32 201 0 215 25 189 107 33 12 106 134 30 233 86 34 33 148 221 59 221 57 249 136 108 9 102 169 236 111 12 168
38 223 83 155 101 193 70 238 237 211 138 242 162 229 195 72 191 129 111 107 181 251 111 212 56 212 74 198 185 255 253 178 155 45 76 196 7 228 14 249 153 130 154 73 24 84 245 236 148 46 43 111 184 100 249 194 206 116 176 31 163 141 168 13 1 190 180 5 115 60 105 156 4 4 88 128 145 142 202 185 255 202 142 248 112 185 193 17 192 125 144 142 226 139 160 101 136 172 153 98
250 103 49 32 174 92 172 158 24 189 95 170 60 232 255 76 104 216 195 5 229 243 75 92 231 26 106 15 189 88 155 59 139 210 46 56 252 91 173 237 214 50 1 76 61 86 166 139 229 79 120 98 48 76 205 134 56 67 99 18 16 194 45 1 124 243 215 125 89 183 173 189 193 173 50 3 18 94 92 72 131 234 214 102 63 195 164 215 67 193 109 59 53 30 188 107 82 249 15 133
221 181 146 150 182 90 66 135 166 10 61 179 85 160 237 146 84 19 110 221 93 60 88 137 171 78 122 194 129 52 75 217 99 212 64 73 31 224 93 173 207 197 143 120 133 66 91 228 74 177 107 233 6 198 169 153 31 64 95 239 134 101 241 185 179 203 71 176 137 78 58 94 111 87 48 35 168 6 149 175 32 182 202 180 249 134 253 227 28 46 146 110 96 194 155 68 28 37 74 35
8 47 117 59 101 11 222 81 184 52 124 42 3 92 233 7 229 18 88 123 215 168 250 5 246 170 243 89 146 181 59 10 223 35 115 22 24 216 174 67 175 68 101 122 40 185 190 53 174 88 79 15 27 231 31 14 83 22 4 179 71 189 178 14 111 97 73 29 177 201 84 3 31 49 3 143 56 13 39 245 87 159 117 79 170 32 99 244 211 235 168 171 51 223 132 109 105 150 59 196
98 176 54 136 75 238 62 144 80 114 227 167 65 197 232 5 107 138 225 232 210 100 237 162 118 4 204 84 71 143 199 1 89 72 133 44 165 139 176 109 160 74 249 211 93 210 96 81 118 224 117 85 80 253 71 230 144 174 133 199 185 238 28 137 204 40 59 71 183 206 246 184 221 116 255 14 162 51 162 165 110 171 237 110 253 58 37 37 207 156 33 193 140 83 83 104 219 89 255 239
252 192 100 59 158 225 37 255 190 175 45 159 127 14 156 47 111 115 25 161 245 240 216 172 60 218 247 190 228 96 223 101 138 48 185 0 43 124 70 108 182 14 200 65 145 251 55 221 177 27 113 107 104 236 3 21 30 218 130 74 236 133 72 145 225 191 95 255 227 83 207 78 246 237 32 43 103 46 125 217 61 120 16 14 140 144 29 189 224 14 170 224 233 24 235 241 118 42 86 169
106 186 130 247 202 197 247 183 194 81 140 210 178 54 195 78 88 29 96 19 58 122 76 1 131 31 65 134 123 57 190 119 145 224 25 167 139 171 219 128 221 210 200 222 208 5 14 1 150 177 6 166 158 245 192 158 113 37 112 27 6 40 128 211 154 223 22 4 172 8 45 69 98 43 182 48 197 254 127 0 118 237 161 190 184 2 153 55 149 254 120 245 103 7 226 151 160 17 152 135
191 113 91 117 113 16 192 251 51 252 40 101 182 119 75 32 151 18 195 112 252 194 68 93 158 217 50 192 35 117 133 250 118 233 108 189 50 139 210 105 41 224 30 184 255 192 61 28 212 81 186 163 143 148 111 167 21 220 113 181 188 82 139 199 225 208 107 6 79 123 201 54 77 49 73 46 41 128 58 3 224 199 207 230 178 4 105 252 103 1 243 77 98 2 138 67 118 202 195 99
173 97 44 141 109 113 38 60 21 69 248 124 45 90 217 81 107 119 170 226 89 14 124 14 105 37 30 26 173 217 246 43 162 224 4 246 158 211 199 2 153 203 157 227 209 231 182 241 165 184 164 33 240 137 74 43 11 9 17 226 177 194 164 8 129 199 84 157 3 203 197 113 182 110 34 191 39 120 158 75 3 142 104 33 217 190 8 242 46 186 235 224 189 248 160 3 211 82 15 235
189 52 147 235 65 160 248 13 194 249 246 172 35 46 183 43 175 40 163 245 37 121 172 17 75 120 165 110 225 177 31 114 255 56 122 160 24 84 67 114 17 40 203 196 77 228 128 204 76 237 123 96 57 81 108 235 251 34 30 195 206 247 88 236 185 53 166 151 75 158 134 27 183 223 25 49 53 27 217 19 60 25 34 144 57 232 246 119 224 207 108 5 116 155 235 209 95 146 154 176
126 248 202 119 80 235 130 242 96 2 211 71 217 54 36 185 164 247 60 180 30 27 235 184 153 181 26 35 152 18 108 133 55 80 56 3 170 33 7 108 101 233 56 4 140 239 252 209 249 235 229 111 49 120 134 159 21 166 220 245 15 67 140 79 213 184 75 138 252 3 4 77 136 49 181 194 203 179 121 175 52 243 251 221 116 86 83 55 223 4 183 110 187 80 240 119 4 53 176 122
105 134 26 169 75 36 87 90 36 36 27 225 96 6 123 34 133 104 168 115 69 109 208 73 22 62 200 200 52 114 36 115 156 49 122 148 184 14 105 16 122 207 96 50 206 213 85 226 92 106 231 35 131 36 158 114 249 188 230 84 143 106 100 141 112 163 196 105 235 253 32 129 110 63 97 72 225 193 245 228 121 18 121 44 10 38 62 237 156 160 62 69 252 213 169 44 82 101 32 127
224 129 55 212 61 136 245 226 104 255 116 146 96 212 218 186 191 56 159 33 103 122 230 89 153 2 158 97 223 200 122 113 254 73 170 229 248 202 98 137 95 231 195 51 218 74 255 71 239 128 5 77 138 140 73 223 218 188 122 36 147 76 110 79 221 254 28 215 246 146 71 134 108 40 164 240 31 96 132 58 191 111 153 110 131 253 92 125 8 188 146 48 51 71 236 124 220 125 189 17
239 141 33 51 102 211 106 174 7 245 136 209 106 7 242 127 99 91 211 150 36 79 106 79 198 237 213 99 107 79 228 212 253 237 251 6 62 190 43 180 22 127 132 65 145 146 90 234 100 26 236 38 17 52 219 193 204 76 59 54 138 193 122 113 252 10 174 131 68 87 3 143 155 168 69 108 157 52 201 196 92 15 244 143 148 151 166 205 139 247 167 130 43 79 140 116 198 139 177 32
21 133 245 22 168 231 191 192 126 204 29 207 101 158 66 47 14 171 88 106 112 93 48 186 24 150 183 167 128 247 203 112 167 215 196 216 41 120 105 22 11 236 102 22 136 192 217 118 156 46 187 64 79 188 74 228 188 226 181 252 103 20 233 154 50 148 12 250 11 1 44 248 162 234 97 181 81 154 70 60 211 50 22 17 215 131 239 250 159 197 219 218 237 192 105 146 152 107 29 218
1 143 62 65 230 54 154 75 5 80 254 224 139 30 203 151 149 140 68 159 254 54 113 159 229 54 21 167 81 209 50 246 45 120 195 56 247 45 228 107 187 195 190 170 166 134 89 7 225 212 186 200 98 219 221 41 173 164 4 198 161 234 182 28 183 203 202 43 108 89 126 98 167 109 29 184 141 201 143 64 12 72 10 6 108 235 66 104 42 237 126 51 155 176 41 193 77 195 97 80
186 234 193 252 218 53 166 232 63 19 2 19 99 124 157 124 113 216 129 104 111 192 90 80 63 200 235 49 60 119 209 24 242 43 229 51 205 59 207 80 81 234 202 2 248 5 152 21 253 25 33 236 165 115 162 198 168 149 112 100 221 208 227 85 115 65 216 141 12 218 162 92 228 229 109 228 168 29 166 70 202 209 173 234 229 193 120 253 91 60 183 93 5 120 110 122 4 121 194 245
125 69 170 68 90 54 97 252 190 124 50 73 162 89 65 242 167 62 192 68 220 226 13 96 170 104 190 88 194 9 5 225 71 255 40 255 151 90 108 113 48 40 71 102 220 61 146 96 75 80 237 72 230 156 131 100 137 108 187 156 149 183 201 252 41 19 137 140 23 154 152 190 19 98 236 9 11 210 50 20 115 231 75 180 73 208 184 21 96 112 109 105 124 121 189 111 5 199 23 63
246 238 24 227 224 122 78 95 28 190 127 72 123 195 145 114 111 13 131 203 130 76 121 238 250 228 113 15 237 192 14 27 99 190 190 20 133 58 116 155 220 48 105 176 16 185 38 69 236 36 229 145 80 146 113 225 22 176 156 158 13 26 52 40 103 184 208 221 161 95 19 219 192 152 173 14 42 245 112 235 182 127 243 181 184 204 8 225 46 117 129 87 127 123 5 233 25 99 180 197
42 17 115 214 71 19 235 229 240 244 104 99 80 122 170 160 192 246 214 241 112 96 29 245 99 51 194 190 12 93 134 40 75 101 191 236 216 173 36 148 192 106 81 120 8 228 97 19 104 186 126 161 208 54 12 25 206 167 15 218 180 148 9 76 202 104 76 66 207 162 238 249 189 77 192 62 21 80 42 25 60 221 119 153 189 167 102 42 7 46 38 232 63 45 147 201 108 133 91 103
68 152 189 222 228 194 211 2 148 53 152 49 5 120 133 86 53 140 147 107 118 40 12 18 133 128 114 167 127 87 110 151 40 154 179 228 193 109 122 9 41 62 175 35 164 33 193 152 47 225 21 161 171 59 222 204 58 132 178 103 16 171 14 194 156 11 108 57 26 24 247 174 42 184 85 218 77 30 122 34 167 26 176 78 130 133 41 172 86 149 202 153 50 224 178 200 170 230 59 228
126 23 105 209 187 18 66 56 144 87 104 22 228 6 1 234 114 244 106 55 55 157 215 21 24 133 207 10 61 177 118 125 231 74 180 185 5 183 177 97 201 235 246 136 188 81 126 136 56 220 205 217 93 186 239 56 250 196 254 239 54 146 66 216 90 201 88 235 27 178 47 231 89 53 76 89 125 110 213 48 114 219 74 7 217 196 72 173 96 101 35 71 200 111 242 42 44 214 176 164
108 253 33 195 32 90 41 238 23 183 61 40 11 2 19 146 128 25 161 251 48 186 143 191 238 195 11 1 79 222 25 59 241 146 71 75 107 233 91 251 165 150 131 91 38 248 82 120 74 248 103 50 165 147 149 0 201 139 83 3 117 198 14 120 3 180 116 137 242 18 124 30 227 1 251 232 251 212 8 41 217 154 241 44 61 67 53 242 194 104 105 88 119 83 77 46 79 77 34 112
206 22 242 222 129 83 177 35 170 164 113 61 125 50 162 143 172 20 23 151 113 185 9 100 140 0 111 114 171 44 235 83 135 113 22 88 16 228 211 7 130 136 237 95 141 16 131 50 225 141 219 223 64 33 91 145 49 250 73 87 157 5 237 24 74 156 95 145 32 47 22 49 236 10 20 51 84 143 147 38 38 238 83 130 177 68 29 200 142 211 2 141 31 184 85 190 171 97 161 148
105 218 155 38 181 51 60 107 9 226 249 186 121 74 205 118 10 119 36 118 0 239 195 218 45 30 215 99 206 69 40 2 208 127 193 4 201 117 220 251 213 240 127 44 120 65 145 50 216 162 35 12 121 240 169 23 112 25 3 44 117 202 117 18 243 116 27 48 0 97 134 240 210 135 44 158 190 206 44 6 237 94 100 195 238 179 231 153 92 57 24 232 60 212 42 213 92 156 125 236
222 73 204 189 109 236 134 202 145 58 218 147 67 109 83 180 194 95 43 180 92 174 129 171 76 244 113 161 148 232 59 242 201 110 76 146 98 9 24 237 206 54 2 70 195 251 97 62 211 37 72 202 81 223 56 214 253 110 87 51 93 0 162 202 197 180 6 26 148 8 238 115 231 44 72 28 83 246 114 158 138 236 219 63 97 131 124 171 82 97 240 63 176 29 194 178 231 97 116 170
239 91 11 68 19 8 154 119 201 195 91 190 45 168 15 113 228 15 181 92 9 20 133 128 106 133 133 124 49 248 122 220 135 11 65 203 166 164 3 98 170 110 174 185 47 48 93 89 231 117 190 87 220 172 44 169 47 250 160 161 109 144 132 185 194 212 5 189 190 229 193 9 11 128 15 115 73 74 139 197 246 86 245 176 46 19 31 69 88 2 222 12 45 21 45 241 144 102 188 106
220 28 232 80 84 125 19 205 41 238 21 113 20 37 47 93 155 233 159 55 214 109 154 233 222 68 235 196 216 211 5 177 146 142 84 17 212 211 98 164 212 226 24 97 37 210 201 155 118 225 131 237 233 114 131 130 232 127 224 22 138 84 104 158 108 181 137 2 41 69 126 45 77 28 177 34 168 6 3 114 42 120 85 255 109 20 223 21 153 222 86 242 225 194 4 213 154 73 195 233
102 246 220 168 217 226 226 87 207 111 16 105 157 179 110 235 165 89 104 105 35 204 104 60 29 210 238 79 159 91 126 140 96 162 35 75 30 9 164 169 195 43 4 146 184 223 74 135 202 41 180 204 94 220 143 31 6 23 27 153 206 185 115 155 250 220 135 177 12 240 221 119 36 41 55 60 233 248 19 122 135 136 52 220 122 151 64 228 90 157 101 133 24 50 40 36 32 80 169 118
117 0 44 159 22 155 94 242 151 47 231 49 0 225 20 181 97 139 0 126 67 94 206 174 81 45 153 62 96 26 124 25 175 193 228 250 227 56 90 222 203 54 187 172 147 169 96 14 193 111 163 118 8 72 236 217 11 189 79 192 204 17 126 180 214 26 34 200 255 205 247 137 104 6 89 21 245 55 124 173 242 87 208 216 5 141 204 245 1 182 163 221 225 32 170 44 150 42 174 189
195 166 103 40 153 250 11 114 183 53 234 212 30 16 121 10 81 9 175 189 252 208 51 200 215 251 133 102 227 17 159 249 185 38 208 21 117 31 229 15 114 227 127 50 37 152 4 123 114 173 29 211 21 99 193 49 5 226 174 202 125 155 239 135 198 230 160 190 231 129 248 7 59 92 107 58 107 96 104 185 193 16 9 107 25 226 137 89 247 111 1 201 65 99 235 248 48 252 9 31
156 28 194 37 39 68 87 120 85 67 182 63 79 61 214 194 73 68 249 151 165 88 71 39 202 106 224 93 167 231 240 229 146 188 50 98 210 164 253 11 119 190 143 134 7 124 169 15 165 174 38 6 165 82 237 59 63 58 143 219 213 114 119 164 241 102 103 165 217 68 50 110 130 165 122 24 64 32 30 97 34 241 187 99 144 138 162 40 97 64 125 37 242 150 23 114 5 207 121 233
73 218 96 231 121 66 253 105 130 32 162 222 44 48 49 15 232 173 114 50 82 72 198 105 156 126 120 255 97 166 46 30 248 37 239 51 110 31 28 164 233 25 247 215 221 199 170 122 31 196 71 120 199 223 179 68 227 19 224 154 70 216 233 24 114 7 146 195 104 1 222 45 232 102 221 106 229 93 9 74 103 193 160 110 102 184 85 169 61 184 146 32 95 55 75 246 7 66 83 236
107 241 243 28 149 77 129 174 84 181 214 189 43 104 123 100 189 227 163 53 237 17 184 128 174 159 55 237 170 176 250 239 56 68 249 204 217 251 224 238 27 216 48 171 160 15 211 238 223 20 88 226 86 197 127 74 20 212 189 192 146 63 46 39 38 48 8 177 88 58 30 238 202 198 89 86 250 36 255 19 39 99 173 190 210 55 97 149 178 59 106 194 54 134 49 16 157 88 77 163
63 232 47 178 167 138 63 34 91 25 255 43 98 149 133 238 146 19 97 220 177 233 97 250 211 19 115 155 215 249 92 55 197 133 148 131 81 92 173 175 140 162 214 244 168 57 84 250 3 229 81 74 111 7 70 186 89 117 254 19 151 7 161 133 79 248 19 99 109 144 74 102 54 221 22 176 68 204 97 204 245 227 123 71 180 11 15 94 106 209 10 16 105 234 142 73 44 245 198 157
215 14 154 63 234 39 238 111 107 189 231 99 104 20 42 10 68 176 31 178 178 2 220 126 27 252 160 247 25 245 25 52 182 190 233 56 102 217 174 163 119 161 96 38 196 249 31 115 163 174 57 133 100 167 144 52 35 112 163 109 120 74 47 215 187 23 58 107 159 92 89 231 228 4 154 114 193 247 215 39 187 4 245 109 127 203 174 54 22 208 194 243 156 221 47 75 246 19 110 230
52 44 6 155 139 46 23 242 200 251 63 106 60 251 163 31 160 235 203 28 134 85 8 200 168 64 185 215 177 216 103 113 165 188 120 253 141 199 10 198 34 64 175 105 13 203 46 206 175 117 226 225 44 1 6 222 214 253 199 64 28 94 234 144 221 0 237 172 36 245 6 2 253 73 104 159 221 230 253 218 66 239 110 94 120 14 216 242 79 52 84 117 27 159 216 160 124 148 45 65
64 224 155 212 210 219 205 159 85 78 68 57 174 85 233 103 245 54 68 223 195 226 48 183 117 80 190 82 203 69 124 106 200 93 166 243 217 230 53 108 26 98 194 168 66 227 240 129 183 5 152 229 177 71 91 35 236 75 68 130 61 27 162 147 209 178 223 242 52 24 251 175 221 165 163 5 40 233 173 147 38 235 11 80 144 90 203 145 149 23 56 168 65 164 212 219 191 98 73 52
245 137 25 155 250 166 224 200 158 205 43 28 226 103 89 213 61 80 223 155 155 214 251 239 59 184 209 158 13 59 104 169 19 94 119 244 222 252 165 201 217 137 161 198 55 100 181 120 26 136 133 195 122 124 98 146 91 109 118 139 216 78 166 154 62 1 111 145 149 107 233 162 40 165 21 63 177 117 97 48 47 48 15 109 128 20 156 217 243 124 75 170 192 157 247 236 166 138 194 48
60 213 233 89 134 201 229 220 215 196 53 109 62 74 152 224 240 39 117 49 72 143 176 234 74 22 3 2 51 193 156 75 26 142 98 28 143 166 41 220 51 54 153 101 55 156 185 77 251 229 169 112 218 131 181 35 115 52 251 225 9 125 150 44 170 140 46 120 137 63 194 80 140 182 118 116 81 201 248 198 44 13 219 214 155 68 227 252 253 87 158 147 65 85 7 40 150 52 91 236
57 110 24 242 147 207 4 220 215 249 1 113 92 232 44 252 33 152 80 20 31 18 127 232 235 17 194 206 205 184 172 205 167 64 130 157 133 50 4 109 47 65 233 216 94 117 87 191 88 30 62 251 196 89 92 11 208 244 207 88 216 98 213 194 28 165 56 131 212 113 164 171 58 212 216 155 242 146 146 107 253 39 182 10 124 100 80 126 79 223 253 91 36 56 158 243 59 64 147 79
115 89 66 196 75 51 59 215 209 243 246 7 193 115 90 202 125 151 63 83 29 99 97 83 176 49 23 3 167 90 201 55 125 137 102 117 19 153 252 50 23 140 101 15 114 182 121 39 4 106 174 200 254 170 219 129 232 148 165 144 58 1 146 88 156 49 157 171 94 220 245 27 76 146 181 27 130 227 34 190 122 154 251 136 228 1 15 55 250 79 75 223 45 197 213 85 182 48 176 25
229 203 5 88 204 135 223 178 65 118 228 238 0 218 142 202 124 122 127 64 222 214 87 32 192 34 203 153 105 146 247 255 92 183 34 131 133 213 128 26 170 65 79 86 244 80 8 33 46 80 220 127 183 188 254 163 61 162 17 159 53 251 173 139 227 3 252 12 242 9 20 189 116 18 189 15 197 183 21 213 40 43 52 230 225 99 243 11 204 209 206 113 127 157 160 210 78 54 56 97
26 244 117 89 40 181 9 80 238 119 210 246 126 102 231 86 30 73 227 112 48 23 114 230 39 96 73 177 105 163 71 92 86 11 32 215 40 78 238 240 123 143 143 15 4 91 232 31 42 20 221 255 51 244 223 73 247 60 61 132 227 214 64 128 169 254 181 125 235 85 120 136 165 34 37 69 160 90 202 94 157 5 113 138 132 213 229 64 48 253 49 178 130 177 2 44 134 28 120 192
51 127 155 73 70 235 228 233 54 94 135 18 213 40 196 79 15 168 240 32 222 57 208 37 5 195 107 70 79 55 225 233 217 228 133 65 101 57 180 99 153 91 58 90 249 242 126 163 65 69 110 9 56 44 103 11 186 125 114 44 180 155 75 41 51 17 101 216 249 205 33 192 181 94 163 137 186 18 118 253 48 16 118 79 12 194 147 191 21 57 16 105 150 19 222 201 112 44 174 36
69 213 82 147 216 53 157 87 233 22 185 145 61 49 0 183 141 8 208 241 247 181 73 99 136 108 56 5 113 51 77 127 22 68 148 238 14 35 39 178 230 235 10 212 7 98 117 109 253 240 244 21 94 166 164 152 201 181 69 238 183 31 226 245 15 89 192 0 127 245 9 55 167 232 115 175 9 107 148 123 157 57 21 115 212 250 31 100 32 15 195 89 92 146 190 87 218 149 60 150
189 22 111 180 14 163 55 74 213 232 103 213 204 127 120 241 32 211 0 44 242 45 186 12 103 230 55 183 152 253 146 118 29 103 124 44 105 76 166 194 144 227 153 61 213 53 17 98 121 39 209 201 172 36 134 100 78 146 219 81 28 196 131 98 209 142 46 218 105 54 200 99 58 148 196 78 112 236 241 54 11 128 195 125 57 186 234 234 56 253 103 211 80 47 202 146 35 166 14 68
0 139 201 244 254 187 204 255 41 135 153 116 124 194 189 24 43 178 44 251 170 246 91 185 116 21 211 57 185 55 165 148 252 195 125 188 243 218 124 235 77 45 103 213 190 58 143 144 215 139 74 141 127 40 108 29 125 102 54 26 74 168 164 90 153 154 147 1 179 138 67 253 84 159 136 255 126 28 53 96 118 196 99 163 63 165 89 241 245 160 43 48 244 40 83 86 117 160 0 34
107 240 216 44 79 58 182 85 207 31 1 4 22 91 74 103 119 111 139 190 32 38 74 94 153 29 61 249 51 63 244 55 254 162 62 88 76 162 3 70 70 238 255 187 130 207 100 166 138 56 176 146 227 41 234 142 161 135 231 21 70 79 223 149 66 162 213 47 216 78 152 186 135 121 18 3 59 13 140 221 168 240 237 34 205 195 37 194 10 58 49 236 55 52 60 167 167 143 195 12
137 144 167 35 213 222 115 95 230 245 123 91 96 73 65 251 213 95 64 215 136 94 251 30 63 6 226 130 59 162 242 103 26 156 253 62 171 153 116 4 10 39 58 119 68 218 52 173 100 198 2 177 134 31 153 200 247 248 111 46 100 3 107 119 136 173 181 82 242 178 249 119 27 26 156 122 146 8 5 214 54 112 159 145 226 223 176 101 221 179 194 57 215 13 196 210 51 82 26 242
77 124 147 127 208 230 70 177 15 86 122 255 70 46 77 130 24 157 44 194 253 184 20 129 222 33 141 190 89 140 205 200 179 36 230 67 211 1 14 70 0 76 150 169 137 72 131 239 112 236 48 131 13 51 45 204 232 83 213 101 245 141 205 118 10 22 141 47 210 102 172 66 94 142 87 56 170 63 248 188 208 75 177 25 160 186 149 127 228 108 210 20 118 27 90 234 172 76 72 24
10 42 195 252 207 172 223 158 211 35 144 7 3 233 246 14 207 163 26 53 51 228 131 45 251 172 34 147 101 135 224 168 7 120 143 87 17 48 138 23 255 77 235 25 158 101 217 209 94 163 11 59 21 235 13 108 219 28 86 164 230 76 43 241 40 104 49 201 118 189 213 196 164 206 237 85 236 178 228 133 11 30 157 167 237 14 162 225 115 114 10 51 198 30 192 249 98 129 81 162
224 234 25 66 224 140 165 57 61 16 99 51 213 81 100 202 158 9 43 153 167 239 219 203 29 212 26 98 63 159 12 111 17 137 138 254 176 61 232 69 132 18 30 217 78 176 247 225 214 232 103 102 218 239 101 208 119 164 96 173 133 73 161 36 78 76 107 30 237 24 202 62 111 206 5 48 54 44 50 16 183 128 230 174 229 109 109 117 247 49 61 106 236 248 172 170 203 120 230 175
164 40 58 103 102 90 243 137 193 49 215 89 54 104 140 100 86 9 187 39 115 27 114 167 167 62 61 219 155 235 246 235 103 45 64 103 201 58 173 40 141 127 189 126 92 218 230 110 81 138 52 113 83 237 194 237 158 17 63 171 116 220 78 51 152 255 92 244 77 228 136 12 192 88 61 47 98 64 47 245 81 104 211 19 37 105 192 237 134 155 85 198 24 6 173 254 174 190 218 112
247 174 93 196 52 100 3 161 18 27 126 23 176 255 136 164 85 13 80 3 242 162 43 222 75 134 225 190 184 196 19 114 184 163 155 110 200 14 235 245 190 212 138 12 38 31 198 212 52 43 117 114 212 27 130 238 228 147 25 167 211 58 229 63 90 133 35 139 75 88 118 14 243 178 91 174 134 14 235 45 232 43 17 114 136 15 128 155 227 216 178 61 78 34 51 41 96 221 162 75
221 68 89 77 64 226 80 159 71 2 92 156 90 115 34 213 252 183 138 9 228 113 137 220 9 166 178 60 70 43 73 165 235 127 174 133 40 240 228 90 133 159 72 37 28 170 70 145 188 95 24 85 16 82 229 190 38 245 199 141 162 58 15 214 125 23 34 197 12 157 24 114 101 85 226 51 230 81 95 233 126 96 25 250 175 58 56 55 241 252 61 105 156 170 145 162 126 49 73 80
128 36 32 159 160 251 12 152 221 212 7 201 187 211 191 93 134 110 222 231 58 17 92 245 87 255 33 120 220 222 175 190 24 188 244 194 141 73 242 31 208 7 226 34 220 84 252 89 254 9 40 137 178 12 63 71 56 120 2 99 94 241 231 232 232 3 196 75 140 92 76 215 4 204 219 151 68 156 84 142 190 250 18 232 247 203 65 12 147 52 217 224 171 105 43 182 112 215 196 30
234 202 16 174 215 254 253 228 145 247 181 79 222 235 33 199 250 164 2 83 196 183 109 217 32 84 253 198 206 188 74 13 81 146 171 252 218 114 201 139 158 179 249 105 197 64 26 43 8 61 234 190 213 210 82 122 239 189 128 247 255 147 234 223 103 30 122 237 250 65 104 94 138 151 13 188 174 138 108 5 218 146 180 100 82 193 112 121 23 167 182 119 144 171 212 129 31 210 38 180
188 84 149 228 78 49 4 123 111 226 180 147 46 116 109 134 219 12 141 252 118 211 63 224 136 245 72 34 130 250 241 136 83 42 64 22 178 135 177 177 54 95 179 234 67 43 63 63 186 70 32 77 9 158 225 127 240 96 15 37 67 85 211 144 142 190 34 234 118 140 244 126 83 189 114 241 213 211 117 215 126 34 101 222 220 72 18 233 36 133 66 177 198 187 49 254 30 127 107 83
63 64 199 41 176 46 175 234 137 35 165 78 160 110 135 112 206 241 61 81 203 249 187 33 232 179 167 21 66 221 213 167 176 169 241 64 165 146 106 95 102 61 235 161 171 39 163 107 85 120 141 229 145 58 216 204 202 17 155 207 138 22 216 151 168 144 105 169 98 149 154 19 170 19 127 231 203 218 93 197 148 4 243 28 172 110 207 242 106 15 120 254 126 252 19 50 117 187 116 86
189 121 39 30 238 177 187 62 191 243 54 23 133 121 97 171 42 86 160 59 186 35 135 19 5 139 215 248 187 187 221 86 177 102 194 32 79 129 245 76 3 18 67 45 143 193 68 22 169 187 85 14 45 107 242 117 184 177 161 170 109 241 33 18 30 235 89 105 194 68 115 238 159 169 114 114 175 225 33 4 71 215 177 118 69 41 46 158 98 26 2 193 26 71 102 232 151 118 157 117
248 202 43 232 13 82 233 110 87 209 171 182 206 244 14 158 106 100 147 105 154 125 231 220 250 64 175 147 41 28 91 208 182 213 116 227 246 145 249 224 64 113 153 146 1 86 110 250 227 209 255 104 116 184 50 108 114 239 4 187 39 123 229 173 236 164 67 66 36 161 26 193 223 233 156 176 249 65 58 254 100 153 252 178 209 254 211 230 52 24 99 37 185 219 166 44 170 177 50 198
113 177 128 170 156 221 163 77 111 120 154 123 34 94 138 120 17 65 246 109 156 197 110 206 252 193 225 195 55 77 106 193 46 122 247 150 196 124 83 35 3 185 17 77 128 164 17 27 247 107 149 45 15 182 61 129 80 104 180 64 23 46 37 91 201 104 42 143 218 203 184 159 98 8 208 241 159 79 26 161 136 72 11 7 172 54 127 60 181 189 146 81 128 171 172 177 120 247 72 31
121 189 1 210 45 71 181 135 226 71 181 36 114 12 90 190 8 30 204 138 193 240 3 165 99 129 195 30 172 148 89 22 0 20 195 180 222 162 40 65 169 39 245 140 86 76 39 147 129 65 40 254 212 8 35 110 44 9 11 100 70 184 108 3 109 174 77 232 126 143 229 205 124 239 26 9 57 124 156 184 211 235 45 19 185 155 238 104 206 133 171 180 47 4 123 67 180 77 219 136
152 236 7 13 108 228 213 254 122 131 164 39 192 10 8 135 173 75 40 128 108 103 254 187 56 136 23 44 68 84 82 120 163 195 31 252 137 135 3 110 14 103 141 79 1 96 52 150 98 127 73 1 87 254 165 247 45 102 203 7 90 83 169 105 166 99 152 167 203 91 64 168 12 117 52 223 163 131 30 65 191 226 55 97 220 65 106 125 58 32 216 244 165 151 182 154 37 73 209 161
144 34 122 106 59 62 49 190 250 216 139 144 45 161 117 89 201 84 90 5 41 182 120 190 117 0 192 131 153 86 35 217 255 26 35 61 150 224 113 147 220 170 130 64 46 227 179 107 126 34 200 141 93 211 195 228 127 131 239 233 55 147 17 177 30 158 116 37 180 201 51 248 115 105 242 156 117 61 0 244 138 127 119 35 247 154 84 211 194 130 191 240 53 84 195 159 173 24 128 65
92 0 36 144 76 98 151 189 1 191 61 100 195 153 148 17 79 180 154 77 154 34 250 114 61 34 89 98 62 150 93 91 82 235 114 111 143 245 23 173 220 63 68 237 57 246 21 1 6 34 129 217 5 182 23 57 183 78 103 212 254 48 44 95 80 78 39 144 239 229 218 95 97 66 91 246 191 213 98 214 142 102 44 67 49 190 24 92 195 172 209 159 211 208 182 148 141 149 158 58
183 58 200 185 230 101 224 44 253 213 171 161 104 140 207 225 114 93 85 18 254 55 70 45 221 152 142 36 159 131 144 159 130 134 161 211 171 150 104 134 50 160 220 119 183 171 247 38 143 25 95 215 44 101 60 81 44 163 157 16 107 202 150 125 49 124 21 6 221 20 135 133 215 168 25 85 153 176 50 239 207 50 59 216 170 159 109 28 63 47 126 110 190 3 147 212 39 154 154 254
149 202 227 12 63 83 242 250 163 146 68 74 143 146 185 168 211 114 30 72 180 98 57 41 30 202 187 254 206 27 38 93 66 136 112 125 143 203 110 198 134 227 110 226 157 236 24 207 231 157 21 162 31 95 6 79 54 181 118 70 38 64 14 103 3 2 198 147 58 61 85 52 155 125 67 161 172 244 34 83 142 219 26 235 153 47 90 65 101 103 247 134 167 200 72 177 224 22 241 1
36 138 143 221 182 3 123 186 71 133 117 31 210 237 86 179 204 187 47 180 224 185 148 27 75 170 101 50 90 0 39 188 208 245 79 28 233 220 205 109 242 124 22 33 144 74 253 19 244 241 1 233 241 7 55 90 147 212 126 157 157 207 242 48 85 103 197 152 68 75 68 5 230 6 66 112 20 116 66 226 155 147 186 37 71 146 51 3 98 188 27 192 39 133 136 169 46 111 123 49
58 89 59 68 214 150 34 167 190 195 63 217 137 70 166 166 78 53 86 1 22 79 181 32 189 109 154 151 127 249 243 177 33 176 230 169 45 109 110 207 16 136 100 224 253 18 3 18 30 154 60 147 6 179 179 246 48 89 176 22 144 206 232 136 224 186 233 182 96 157 31 61 65 99 14 73 171 93 219 126 186 5 56 88 75 39 210 221 68 225 212 102 70 21 194 250 104 145 86 187
30 248 210 2 43 95 109 95 143 60 238 4 197 185 102 98 137 82 175 163 67 30 156 100 71 184 41 144 6 205 121 216 140 235 57 178 218 126 115 109 191 114 160 88 78 216 223 216 75 132 230 119 197 84 251 1 114 48 205 53 90 150 81 78 56 152 59 237 232 178 17 158 140 132 231 168 173 180 228 194 12 181 182 102 202 56 204 12 77 123 14 90 236 242 89 19 122 247 36 225
3 250 13 239 194 84 125 148 5 72 211 69 148 239 64 181 85 213 179 218 250 15 115 149 0 173 165 229 202 73 42 218 39 236 199 110 49 154 77 130 233 201 58 3 90 143 6 79 64 251 22 92 227 237 150 233 240 75 17 152 136 204 156 101 24 192 212 254 179 151 248 128 84 32 88 33 21 164 129 22 38 99 89 236 155 171 92 101 2 212 8 36 49 99 81 214 200 137 151 108
27 233 218 103 254 237 57 199 224 185 149 66 232 23 204 146 38 61 32 26 83 211 206 129 229 101 84 231 143 28 64 106 90 155 2 45 218 18 226 243 210 35 157 46 78 156 169 65 117 6 188 190 25 174 92 201 50 210 22 40 182 167 59 101 208 149 12 131 205 68 192 201 233 239 122 244 25 190 117 23 137 22 12 60 127 78 28 231 234 125 201 86 213 124 49 83 254 2 8 15
149 51 32 54 219 31 44 101 6 39 114 196 90 225 71 52 152 76 145 45 167 144 16 189 59 113 204 107 214 187 35 74 42 233 105 112 214 78 99 88 190 44 26 201 106 34 231 131 77 218 130 121 152 14 6 153 136 221 218 39 36 18 95 241 197 147 128 189 63 84 116 59 19 76 132 10 117 58 123 11 85 22 6 12 111 186 177 108 169 13 83 220 54 19 226 214 15 101 180 213
29 174 73 244 224 110 188 252 99 61 139 124 214 35 58 162 134 147 155 46 137 119 185 101 161 147 253 3 251 85 104 240 4 237 219 146 110 8 109 122 224 212 53 10 196 43 11 34 158 195 47 166 52 89 180 79 137 103 179 110 164 35 25 199 199 187 202 132 211 180 20 128 140 217 64 171 26 91 75 118 98 174 101 123 178 46 55 109 243 93 162 169 87 187 158 214 128 56 200 117
220 77 179 162 104 251 70 11 101 1 166 180 107 57 161 220 56 33 37 63 40 186 84 92 58 20 138 109 165 174 61 74 219 36 114 63 255 109 17 87 94 152 90 185 201 72 58 188 33 170 119 57 28 159 119 25 237 186 44 122 210 87 206 243 155 154 102 118 128 124 23 6 45 32 122 25 191 26 238 92 106 152 4 66 10 131 156 82 210 111 47 94 125 148 84 224 176 252 181 152
234 59 14 154 25 168 52 83 187 61 229 67 215 111 29 252 144 188 26 103 207 30 46 172 160 201 45 222 142 119 7 125 87 68 176 29 28 38 240 132 191 81 251 183 242 238 193 209 71 44 206 101 41 119 7 68 178 129 154 71 224 4 98 13 208 78 241 152 238 6 135 140 177 106 115 22 175 130 57 24 108 105 19 145 17 28 241 116 35 192 179 117 162 93 132 170 167 95 246 166
97 163 139 228 247 149 227 56 195 222 229 118 61 248 12 52 63 143 159 164 102 55 182 200 118 80 86 47 59 45 155 111 98 90 229 244 207 210 187 130 75 144 212 96 235 154 172 204 90 39 97 140 126 58 72 197 220 202 117 107 60 31 176 21 233 252 137 175 72 176 76 69 198 246 123 16 49 74 148 129 168 82 122 88 42 44 164 122 12 251 184 35 119 65 1 159 105 137 162 87
