P2
3 3
255
0 128 255
128 255 0
255 0 128
