P2
5 4
255
10 60 90 60 10
60 110 140 110 60
90 140 255 140 90
60 110 140 110 60
