P1
# This is a simple PBM example
8 8
0 1 1 1 1 1 1 0
1 0 0 0 0 0 0 1
1 0 1 1 1 1 0 1
1 0 1 0 0 1 0 1
1 0 1 0 0 1 0 1
1 0 1 1 1 1 0 1
1 0 0 0 0 0 0 1
0 1 1 1 1 1 1 0
