P2
# This is a PGM file
3 3
255
255 0 255
0 255 0
255 0 255
