P3
# This is a PPM file
3 3
255
255 0 0  0 255 0  0 0 255
0 255 0  255 0 0  0 0 255
0 0 255  0 255 0  255 0 0
