P1
# This is an example of a PBM file representing a simple smiley face
8 8
0 0 0 0 0 0 0 0
0 1 1 0 0 1 1 0
0 1 1 0 0 1 1 0
0 0 0 0 0 0 0 0
0 1 0 0 0 0 1 0
0 0 1 1 1 1 0 0
0 0 0 0 0 0 0 0
0 0 0 0 0 0 0 0
