P2
3 3
255
0 127 255
64 191 255
128 255 255