P2
10 10
15
0 1 2 3 4 5 6 7 8 9 
1 2 3 4 5 6 7 8 9 10 
2 3 4 5 6 7 8 9 10 11 
3 4 5 6 7 8 9 10 11 12 
4 5 6 7 8 9 10 11 12 13 
5 6 7 8 9 10 11 12 13 14 
6 7 8 9 10 11 12 13 14 0 
7 8 9 10 11 12 13 14 0 1 
8 9 10 11 12 13 14 0 1 2 
9 10 11 12 13 14 0 1 2 3 
