P1
# This is a PBM file
2 2
0 1
1 0
