P1
# Example P1 PBM file
4 4
1 0 1 0
0 1 0 1
1 0 1 0
0 1 0 1
