P2
10 10
255
129 197 65 32 217 72 3 13 160 172
85 219 185 16 67 253 223 249 92 216
36 68 168 72 142 224 83 125 194 96
165 149 207 114 60 91 105 165 189 95
50 28 239 219 65 36 114 121 172 59
163 89 68 130 99 225 131 211 117 207
89 120 6 30 140 214 225 154 171 178
90 120 134 101 229 239 10 183 38 67
46 40 22 107 66 105 84 202 229 248
148 25 133 228 77 185 206 157 185 253
