P3
10 10
255
240 94 48 232 6 31 187 84 248 11 89 169 132 172 29 200 150 223 171 8 134 147 29 238 116 226 185 43 245 252
80 194 95 49 66 80 231 53 72 230 175 155 211 20 195 49 187 116 22 16 31 247 235 55 150 60 194 31 229 67
108 160 71 126 11 227 48 62 79 200 31 236 120 110 169 26 73 25 205 25 15 244 93 40 212 65 171 46 203 56
111 187 196 104 233 100 10 158 23 213 44 159 84 69 118 237 218 8 100 44 13 127 226 223 8 243 21 160 174 25
194 108 1 240 9 76 103 209 121 69 97 235 94 238 175 141 117 172 160 78 52 253 44 219 175 75 142 131 19 166
178 174 152 105 80 113 222 138 18 32 248 144 150 241 88 203 253 158 124 170 100 53 254 119 229 72 119 75 179 123
120 252 19 94 241 212 13 127 204 254 122 85 191 20 225 130 190 119 193 182 152 173 251 121 224 152 54 181 112 204
106 98 67 128 107 154 130 13 148 72 118 10 153 32 254 24 125 89 66 112 6 118 26 156 20 242 189 10 120 18
40 154 225 135 69 112 128 91 122 214 75 249 197 138 215 43 95 104 39 57 126 11 213 96 249 152 75 20 225 94
122 126 171 27 116 125 140 209 114 189 31 200 202 134 219 184 40 199 249 116 113 197 161 64 179 70 5 201 134 54
