P2
3 2
255
100 50 150
200 75 225