P2
5 5
255
0 255 0 255 0
255 0 255 0 255
0 255 0 255 0
255 0 255 0 255
0 255 0 255 0
