P3
3 2
255
100 50 150 200 75 225 50 100 200
200 75 225 100 50 150 75 225 100