P3
5 5
65535
6544 32123 39637 5712 60384 48427 37345 55511 41385 18666 42490 61067 10809 35011 64972 
24879 26524 3548 43074 28780 8409 65218 38606 44416 62216 16698 7715 30735 16862 22594 
46846 55790 48195 52757 60240 15027 73 14000 64923 28070 40122 38755 17302 24196 53139 
36518 62545 60226 24845 16437 11592 21068 39312 6903 19779 7181 21287 41442 45417 64534 
24247 41079 27575 61328 30721 43086 25995 18805 28265 18213 51731 64768 22265 5572 63809 
