P3
256 1
255
0 255 0 1 254 0 2 253 1 3 252 1 4 251 2 5 250 2 6 249 3 7 248 3 8 247 4 9 246 4 10 245 5 11 244 5 12 243 6 13 242 6 14 241 7 15 240 7 16 239 8 17 238 8 18 237 9 19 236 9 20 235 10 21 234 10 22 233 11 23 232 11 24 231 12 25 230 12 26 229 13 27 228 13 28 227 14 29 226 14 30 225 15 31 224 15 32 223 16 33 222 16 34 221 17 35 220 17 36 219 18 37 218 18 38 217 19 39 216 19 40 215 20 41 214 20 42 213 21 43 212 21 44 211 22 45 210 22 46 209 23 47 208 23 48 207 24 49 206 24 50 205 25 51 204 25 52 203 26 53 202 26 54 201 27 55 200 27 56 199 28 57 198 28 58 197 29 59 196 29 60 195 30 61 194 30 62 193 31 63 192 31 64 191 32 65 190 32 66 189 33 67 188 33 68 187 34 69 186 34 70 185 35 71 184 35 72 183 36 73 182 36 74 181 37 75 180 37 76 179 38 77 178 38 78 177 39 79 176 39 80 175 40 81 174 40 82 173 41 83 172 41 84 171 42 85 170 42 86 169 43 87 168 43 88 167 44 89 166 44 90 165 45 91 164 45 92 163 46 93 162 46 94 161 47 95 160 47 96 159 48 97 158 48 98 157 49 99 156 49 100 155 50 101 154 50 102 153 51 103 152 51 104 151 52 105 150 52 106 149 53 107 148 53 108 147 54 109 146 54 110 145 55 111 144 55 112 143 56 113 142 56 114 141 57 115 140 57 116 139 58 117 138 58 118 137 59 119 136 59 120 135 60 121 134 60 122 133 61 123 132 61 124 131 62 125 130 62 126 129 63 127 128 63 128 127 64 129 126 64 130 125 65 131 124 65 132 123 66 133 122 66 134 121 67 135 120 67 136 119 68 137 118 68 138 117 69 139 116 69 140 115 70 141 114 70 142 113 71 143 112 71 144 111 72 145 110 72 146 109 73 147 108 73 148 107 74 149 106 74 150 105 75 151 104 75 152 103 76 153 102 76 154 101 77 155 100 77 156 99 78 157 98 78 158 97 79 159 96 79 160 95 80 161 94 80 162 93 81 163 92 81 164 91 82 165 90 82 166 89 83 167 88 83 168 87 84 169 86 84 170 85 85 171 84 85 172 83 86 173 82 86 174 81 87 175 80 87 176 79 88 177 78 88 178 77 89 179 76 89 180 75 90 181 74 90 182 73 91 183 72 91 184 71 92 185 70 92 186 69 93 187 68 93 188 67 94 189 66 94 190 65 95 191 64 95 192 63 96 193 62 96 194 61 97 195 60 97 196 59 98 197 58 98 198 57 99 199 56 99 200 55 100 201 54 100 202 53 101 203 52 101 204 51 102 205 50 102 206 49 103 207 48 103 208 47 104 209 46 104 210 45 105 211 44 105 212 43 106 213 42 106 214 41 107 215 40 107 216 39 108 217 38 108 218 37 109 219 36 109 220 35 110 221 34 110 222 33 111 223 32 111 224 31 112 225 30 112 226 29 113 227 28 113 228 27 114 229 26 114 230 25 115 231 24 115 232 23 116 233 22 116 234 21 117 235 20 117 236 19 118 237 18 118 238 17 119 239 16 119 240 15 120 241 14 120 242 13 121 243 12 121 244 11 122 245 10 122 246 9 123 247 8 123 248 7 124 249 6 124 250 5 125 251 4 125 252 3 126 253 2 126 254 1 127 255 0 127