P2
# This is an example of a PGM file in ASCII format
2 2
255
100 150
200 250
