P2
100 100
255
188 133 64 35 223 240 142 101 79 242 138 195 209 148 190 60 141 45 60 233 205 168 164 110 195 133 135 222 128 2 64 10 7 195 7 10 119 182 35 215 49 138 174 83 209 54 7 68 137 251 205 85 171 135 173 78 18 248 221 169 18 206 119 232 248 120 255 93 51 201 219 104 30 152 88 215 227 231 19 157 128 239 79 63 39 121 202 223 125 126 234 218 204 237 6 178 35 99 158 102
126 222 14 202 104 26 10 163 218 107 10 228 100 100 16 46 221 58 14 0 195 215 233 118 42 108 44 145 184 235 222 129 131 62 6 135 137 141 161 202 157 210 159 229 129 126 199 235 111 200 162 211 128 139 151 111 23 30 5 18 6 25 134 85 213 194 198 80 91 223 162 207 2 76 234 58 241 156 148 150 19 198 78 155 75 135 62 37 196 143 19 55 202 125 140 108 83 163 49 27
186 146 48 104 66 0 69 234 50 227 116 101 148 97 106 195 162 233 56 33 12 224 133 77 130 205 209 176 22 139 5 237 45 31 26 196 91 183 175 165 205 77 190 187 166 133 46 149 134 112 46 90 164 87 129 174 46 208 202 214 3 36 213 157 119 228 93 157 209 215 7 116 253 170 184 51 204 230 207 244 98 250 55 191 148 150 232 230 133 150 227 43 195 46 224 178 127 85 236 91
20 58 7 166 224 242 63 211 252 89 153 118 225 198 58 207 210 154 241 217 153 173 221 57 109 159 3 108 161 126 185 39 14 49 238 151 236 253 36 75 90 58 52 94 97 244 159 169 81 3 117 206 246 129 34 107 51 129 106 207 186 136 50 152 15 254 118 130 246 237 195 254 249 150 114 23 96 166 208 98 35 155 68 66 12 224 207 42 118 84 215 72 135 117 171 183 241 159 48 36
209 135 174 81 219 7 97 94 33 44 66 172 58 112 217 51 12 221 133 101 70 141 40 126 42 242 42 223 211 119 173 173 74 18 210 158 156 214 186 161 81 152 122 228 76 13 75 66 237 150 138 217 247 69 129 227 252 160 227 136 134 223 38 176 135 66 69 19 15 57 22 212 27 134 47 12 212 14 11 239 71 125 170 1 128 120 223 213 89 170 76 108 71 213 74 108 84 98 211 191
205 217 120 204 235 156 43 133 28 252 253 121 249 104 64 178 153 34 183 136 87 233 3 107 47 130 233 178 95 204 149 206 58 230 218 78 88 118 135 37 21 5 126 116 123 112 191 93 193 170 221 27 247 232 34 116 221 150 234 50 50 221 124 146 201 94 102 51 219 197 46 200 91 117 225 76 70 192 167 162 172 11 59 97 206 50 238 200 50 216 25 61 2 39 198 196 82 91 201 182
215 104 131 231 123 175 97 111 203 61 123 163 41 65 128 15 152 115 215 221 44 250 136 56 201 125 116 147 147 112 201 2 228 66 225 189 67 206 231 0 231 64 183 115 197 29 247 62 207 5 233 70 65 129 16 119 73 241 68 234 227 99 136 199 110 35 73 203 196 241 231 127 6 58 59 10 90 113 201 58 85 123 122 87 30 43 189 192 229 23 241 16 28 212 231 25 33 62 188 59
252 255 25 122 111 44 115 117 114 152 247 238 41 149 70 242 218 50 125 124 149 191 50 176 232 211 134 180 38 87 219 13 120 143 248 253 70 133 227 170 252 170 179 241 74 98 116 72 191 233 237 157 226 142 137 147 67 16 145 250 142 183 158 148 167 168 143 120 167 182 204 170 209 192 255 134 240 101 98 53 166 41 33 178 153 186 111 107 254 23 203 161 17 93 233 59 189 105 194 21
50 17 214 193 11 218 53 61 190 146 221 11 52 13 121 25 217 225 236 248 109 141 156 127 216 83 12 103 253 150 23 239 86 77 190 121 8 92 229 69 211 29 67 65 61 121 118 101 79 226 126 138 94 171 122 229 156 252 78 104 159 199 161 191 196 159 178 96 143 200 40 139 69 221 22 2 141 138 191 165 209 66 25 58 251 131 83 239 172 6 54 67 29 207 205 186 183 150 11 206
142 17 181 98 192 152 202 88 190 173 54 72 139 26 9 37 245 117 169 77 13 25 69 96 175 218 80 18 241 240 199 146 160 195 61 148 24 115 84 209 200 178 46 210 204 61 15 86 234 105 187 7 31 3 223 252 187 68 200 3 113 217 5 164 30 118 167 103 155 154 118 10 97 169 15 5 200 29 168 35 202 42 87 60 78 255 122 40 116 169 241 158 122 235 229 220 156 164 69 113
91 68 61 180 25 69 216 163 211 148 213 37 4 80 131 233 74 193 66 13 179 240 179 189 20 74 244 94 62 38 171 80 202 23 254 66 1 222 109 7 137 168 183 212 59 151 144 129 203 40 120 151 189 215 205 141 2 196 126 213 128 86 33 87 236 45 178 203 152 20 149 46 51 182 62 126 104 171 171 52 248 23 11 169 55 225 170 70 227 62 50 64 93 29 68 205 168 82 39 51
253 4 30 56 72 0 241 218 3 155 9 74 41 175 198 240 148 157 54 131 66 195 15 84 221 159 55 227 199 52 15 16 158 37 65 70 90 60 246 130 191 206 129 126 140 94 155 167 46 184 42 234 150 193 224 15 222 26 49 16 161 135 163 116 252 3 178 92 221 170 218 95 253 130 55 247 143 157 245 52 142 134 18 3 81 20 60 87 195 45 47 82 139 244 64 185 76 198 37 116
255 25 48 142 120 46 4 119 157 30 224 195 98 100 60 36 169 220 45 206 45 193 235 94 43 240 73 135 175 54 138 12 5 17 204 136 245 243 21 174 50 93 30 145 169 212 78 88 193 174 119 163 237 93 171 12 91 15 201 2 178 159 74 62 30 115 69 71 103 131 129 169 160 4 111 212 233 123 222 230 49 200 132 251 20 113 251 110 32 223 229 197 165 198 218 243 50 34 136 26
5 166 45 250 20 41 223 119 212 77 65 41 111 164 169 63 84 122 113 224 118 33 155 246 64 35 44 99 208 95 59 236 115 101 193 116 88 186 150 30 161 164 35 63 2 94 59 232 255 84 18 54 65 100 24 44 244 183 72 5 130 150 92 147 44 96 120 186 19 171 118 88 24 160 7 240 15 39 190 97 120 232 112 63 96 143 88 131 153 133 160 212 29 14 133 115 143 229 147 126
14 236 226 121 183 89 242 74 46 88 72 153 55 86 93 201 59 125 99 222 16 26 72 118 77 75 0 208 70 142 23 166 115 115 42 108 77 12 116 34 15 198 205 233 77 41 23 0 177 166 32 231 167 198 116 79 106 136 162 189 77 115 87 35 125 69 244 122 64 113 115 247 97 79 153 212 15 115 181 56 26 95 236 168 53 89 7 122 36 68 178 255 118 22 246 104 116 206 56 244
26 182 18 207 82 99 2 145 63 173 237 232 102 12 42 117 26 75 209 109 164 104 6 236 53 94 67 67 8 87 205 77 179 253 247 67 182 61 87 90 223 163 61 108 219 162 56 218 115 242 248 51 243 46 178 103 234 142 245 14 88 35 62 55 95 209 177 251 47 229 209 36 99 178 227 84 102 185 243 184 247 227 33 74 114 141 120 97 49 174 192 54 151 154 45 158 239 231 55 210
176 158 221 53 219 8 106 171 136 46 163 152 50 176 104 69 147 215 134 182 188 253 79 91 115 206 104 13 47 170 73 106 27 222 59 164 41 203 83 152 252 13 217 215 69 136 71 217 94 13 226 160 169 18 69 202 102 87 227 150 108 119 228 51 114 102 80 211 152 194 21 203 200 139 23 70 48 242 183 166 159 78 160 39 73 255 129 221 32 88 76 193 104 189 126 87 185 20 229 50
204 112 90 195 197 254 70 35 146 238 132 178 221 221 225 195 240 55 201 213 34 45 133 140 43 85 29 86 193 188 163 106 33 8 75 163 169 8 120 206 161 43 1 183 125 190 162 132 41 41 219 240 112 164 139 18 189 44 15 214 61 164 9 228 243 43 57 224 210 1 78 13 175 25 3 155 233 40 227 119 148 248 93 125 184 109 206 107 106 87 35 198 120 211 183 148 18 222 157 163
172 218 62 218 115 194 115 154 44 113 225 196 165 234 186 33 247 33 109 249 250 159 150 194 34 182 226 132 90 73 131 246 151 82 240 82 88 206 1 205 96 145 190 218 4 65 12 171 2 50 44 239 254 74 139 177 132 68 221 112 195 52 208 230 231 239 227 244 215 61 12 53 173 236 207 218 16 95 55 121 3 50 3 191 97 163 118 221 215 247 56 72 176 232 70 213 234 26 28 240
30 201 60 163 68 107 75 49 11 174 240 190 234 196 133 83 99 95 249 193 162 185 120 175 142 218 72 92 222 22 51 144 1 59 96 181 106 222 5 100 146 82 251 5 161 196 70 201 89 60 91 39 85 89 156 221 24 23 215 164 21 134 248 75 189 84 113 155 42 65 30 102 3 178 158 27 50 109 4 205 91 86 237 141 45 121 113 101 232 113 88 18 181 29 136 104 152 245 107 172
24 122 162 134 93 208 130 240 135 129 209 217 85 107 28 131 168 239 214 153 206 154 46 224 55 73 38 78 204 233 233 244 17 73 114 76 36 30 222 102 231 94 193 2 180 169 89 80 62 32 247 162 209 151 173 46 5 241 245 169 86 102 5 94 10 223 8 164 92 200 82 169 126 119 126 90 42 117 79 104 245 21 143 112 95 83 29 88 184 33 87 250 249 191 67 151 5 178 76 2
158 244 169 116 201 90 202 34 247 224 149 217 39 65 198 147 127 25 46 174 27 13 112 23 144 221 92 90 171 250 225 134 178 249 115 97 50 213 46 91 20 58 164 190 47 105 31 89 97 252 222 13 165 180 31 44 84 210 26 194 46 158 174 209 211 133 113 154 151 33 16 138 129 225 196 193 173 216 124 30 174 86 199 101 136 181 211 1 71 236 56 75 56 233 45 14 59 41 59 213
255 36 235 191 242 149 153 49 125 94 188 19 115 174 28 62 57 188 181 204 10 63 204 215 213 235 110 232 102 114 174 128 56 143 46 239 44 37 82 246 16 220 145 50 221 99 97 155 16 77 163 220 12 54 255 153 108 18 13 117 13 125 227 25 92 174 170 47 160 128 71 6 113 196 33 29 88 118 73 243 99 177 164 178 33 181 5 76 165 188 216 203 199 167 241 88 122 93 240 37
172 174 78 80 53 11 138 89 251 225 195 33 125 64 157 201 19 31 118 118 199 56 107 108 14 32 136 201 96 36 43 218 33 153 76 176 111 212 160 224 94 90 196 62 62 7 240 38 161 87 63 216 6 41 51 90 176 127 198 218 58 192 137 104 64 229 183 3 68 212 117 215 193 177 150 251 137 40 195 189 3 160 114 192 129 203 67 117 7 101 12 246 142 197 94 124 179 100 108 203
181 184 248 105 116 202 229 58 47 2 134 124 61 65 200 18 89 208 18 182 34 247 181 240 225 52 92 227 80 147 147 48 69 134 234 215 120 27 42 229 168 102 250 87 176 137 194 227 189 78 51 223 93 249 108 84 223 106 42 72 65 118 116 106 87 30 181 150 236 139 203 176 165 233 101 96 78 127 76 214 40 32 131 44 123 165 45 239 140 250 168 83 36 185 251 206 191 177 128 47
148 203 121 122 114 207 191 177 70 60 164 6 245 29 25 253 147 245 8 242 31 123 219 44 14 132 219 168 52 87 19 193 28 152 97 187 68 163 97 133 96 208 4 231 180 8 37 190 125 251 22 76 52 125 157 99 94 207 238 112 90 158 129 218 3 153 194 97 235 141 180 127 9 165 27 205 38 237 71 189 202 131 145 176 82 49 130 185 36 108 68 220 61 102 142 65 132 145 174 117
130 101 64 20 65 71 199 66 221 76 162 144 3 225 139 108 199 247 16 166 55 230 213 252 111 185 23 198 234 137 231 192 22 249 28 195 10 199 75 40 204 149 214 127 169 45 149 202 53 148 124 234 138 184 178 96 35 70 57 5 134 14 19 6 87 50 214 152 162 77 251 49 26 109 30 250 49 152 237 39 101 206 42 192 64 46 149 193 46 66 136 203 48 60 129 138 144 243 111 115
151 64 241 157 194 126 102 145 211 20 60 145 211 156 15 182 124 212 204 36 95 193 218 108 149 20 178 211 146 179 112 42 48 214 237 224 235 7 157 232 216 166 241 159 160 184 205 191 20 146 86 136 56 91 52 230 155 122 45 62 181 166 6 69 203 204 226 219 18 148 104 165 34 66 169 207 7 16 19 250 236 246 22 43 228 67 19 253 118 116 220 165 66 71 208 127 177 217 217 143
153 71 86 179 78 244 247 82 141 196 8 63 30 253 252 201 255 128 223 189 198 205 143 11 33 163 60 57 156 128 201 48 20 68 170 127 188 50 144 238 37 138 107 212 70 1 236 77 69 241 81 219 11 154 128 88 1 184 57 76 126 102 155 150 10 9 215 95 142 42 24 5 87 183 154 228 25 154 174 232 138 59 61 114 17 217 82 72 32 18 248 196 158 144 237 3 81 228 56 167
192 106 61 10 99 178 59 219 186 64 214 84 84 90 24 108 92 80 91 160 245 205 236 16 242 146 66 241 113 205 53 177 35 105 234 75 187 250 172 1 87 4 118 63 76 247 81 174 191 188 41 74 3 140 155 38 196 76 151 158 74 113 243 251 97 110 70 206 13 175 69 7 75 183 86 90 97 22 74 61 38 133 175 230 78 227 82 45 217 26 91 34 46 63 127 111 131 66 223 121
111 105 221 234 249 189 108 84 81 182 216 159 151 208 158 251 225 23 230 77 89 211 202 215 2 20 194 244 148 197 61 122 232 250 169 245 241 41 163 17 201 6 242 242 124 196 234 130 168 132 189 194 50 64 50 43 142 60 102 239 71 64 19 149 169 112 42 102 215 172 177 249 213 173 139 170 183 221 93 91 151 94 117 231 27 243 195 47 141 214 139 104 126 187 64 122 198 219 95 138
58 31 13 105 161 42 195 31 49 72 46 181 58 255 164 116 156 45 17 122 248 29 112 177 46 141 245 18 212 214 65 158 62 133 240 188 201 13 198 127 152 22 71 84 224 170 78 160 153 4 34 66 130 173 58 210 232 169 58 216 43 27 60 17 67 168 162 108 198 74 58 140 138 180 229 154 106 96 15 2 100 250 226 198 124 183 19 182 3 96 156 5 130 42 125 130 229 105 189 79
224 232 212 49 103 155 210 139 11 126 91 12 220 45 31 244 69 114 141 134 167 23 115 59 217 149 116 110 63 116 82 163 185 47 82 31 214 16 92 63 146 160 46 90 58 202 209 152 137 4 112 42 27 96 55 190 122 111 126 135 220 67 114 221 138 5 215 195 132 23 5 18 193 16 238 249 158 247 189 15 254 138 87 185 243 10 216 165 179 177 40 26 172 191 121 32 92 198 239 151
159 27 136 229 187 164 154 191 167 116 83 81 186 98 236 107 82 43 70 222 196 7 122 54 125 92 214 196 137 229 222 132 178 227 23 166 198 109 47 63 3 213 81 203 19 144 160 185 126 212 155 3 230 67 117 237 87 156 109 46 144 184 211 66 223 95 171 231 29 28 228 51 172 173 246 22 1 175 6 161 59 11 249 114 82 238 99 247 114 118 164 223 234 125 45 60 119 114 132 202
100 70 185 42 240 115 44 64 243 119 216 81 153 208 15 141 166 151 117 243 141 45 93 129 151 15 71 240 211 41 112 44 184 52 163 240 228 216 207 105 225 224 184 217 43 44 140 224 189 208 224 173 193 236 19 191 99 239 165 225 67 4 77 176 186 203 28 68 174 193 21 173 241 155 147 35 15 84 162 247 91 185 230 52 45 241 200 227 4 113 48 79 148 16 20 237 118 58 211 57
44 38 160 137 142 222 107 172 180 202 138 107 3 59 86 14 219 44 234 138 191 101 83 14 133 143 242 188 138 153 178 58 13 56 215 92 4 69 197 31 152 95 40 131 68 8 236 58 38 154 196 119 175 233 29 28 205 1 184 214 65 103 231 148 223 78 177 193 10 218 166 90 22 203 165 180 158 26 51 153 255 165 115 182 223 144 76 92 81 104 59 5 67 55 108 66 133 222 205 32
223 102 24 166 193 38 63 69 114 82 212 125 167 67 86 92 214 165 11 11 50 217 38 81 15 138 58 102 136 212 74 101 189 113 8 39 160 104 109 202 237 109 246 251 146 150 131 26 104 56 151 10 126 164 129 173 43 91 44 0 198 178 188 205 160 55 135 17 39 69 40 88 116 173 139 19 73 12 28 4 77 118 163 121 149 105 237 250 2 74 39 171 14 83 93 57 129 0 114 32
102 174 172 55 128 158 196 172 191 20 173 86 67 254 200 149 115 164 39 59 97 152 24 50 64 17 107 254 95 244 44 120 219 237 60 5 249 227 42 138 49 120 35 194 26 85 161 223 192 78 45 185 217 168 246 190 250 182 21 18 38 16 59 165 68 182 125 112 209 135 190 151 191 162 134 153 82 87 24 208 162 183 217 191 156 55 58 44 112 226 210 153 197 46 31 32 124 85 104 134
126 90 100 35 8 131 112 61 64 46 138 137 53 32 192 123 110 196 181 102 171 10 127 101 25 41 238 35 148 59 183 146 76 33 105 136 150 69 177 94 47 49 45 106 139 164 227 96 185 116 131 55 128 140 202 240 28 95 228 190 240 182 75 177 231 185 42 227 131 201 49 83 223 76 247 47 4 69 41 19 70 239 2 106 12 64 34 224 25 73 4 129 152 114 193 173 30 180 119 217
62 31 196 103 48 59 246 98 204 203 22 214 239 217 48 73 53 238 211 197 4 122 85 93 185 54 117 233 176 242 204 137 74 235 27 133 188 211 43 101 127 207 7 236 83 231 250 166 68 9 195 128 93 237 120 20 112 19 122 191 215 35 187 252 174 159 105 80 184 101 140 143 166 28 84 157 202 143 136 27 109 231 248 183 214 11 107 140 112 105 29 172 143 41 8 205 17 191 222 82
69 202 128 193 23 156 67 147 143 106 35 44 221 95 121 72 133 232 52 207 237 74 14 216 187 154 17 58 187 31 30 24 70 108 245 54 154 123 247 131 67 218 31 57 233 142 93 223 92 112 221 87 91 82 169 93 77 65 51 236 160 162 163 240 230 8 183 193 143 102 62 206 79 211 72 192 91 162 48 117 62 98 18 211 6 56 161 88 109 79 1 214 88 249 43 187 136 82 177 10
40 177 150 93 90 158 182 230 250 98 254 138 239 223 9 253 150 162 90 16 38 29 169 54 77 61 162 148 182 79 106 97 183 52 218 153 52 130 86 19 202 166 117 67 111 73 237 124 216 27 186 132 195 170 28 249 42 26 177 83 240 90 7 53 50 169 198 111 15 60 33 213 248 138 213 210 232 213 231 42 108 234 153 101 91 134 197 174 34 36 39 50 140 220 54 59 80 50 169 184
144 59 200 82 212 128 163 167 123 160 28 141 252 51 130 125 212 29 227 132 154 94 154 99 215 73 144 51 233 154 134 214 135 9 217 43 154 245 56 47 19 62 175 109 165 117 33 152 64 205 6 251 210 39 219 235 140 34 170 138 73 136 237 146 116 113 63 3 129 119 182 133 111 53 202 148 51 98 203 230 205 228 144 73 120 188 111 128 53 200 42 230 252 141 158 2 145 97 211 123
23 11 215 38 19 39 129 25 191 76 171 207 48 64 144 6 245 159 210 152 163 147 53 207 253 135 77 157 66 90 116 225 87 27 217 171 227 170 26 229 221 169 128 130 28 144 48 70 124 90 168 177 49 143 44 212 21 223 219 52 11 10 55 132 74 61 61 11 196 59 204 76 111 198 232 94 91 66 156 235 29 156 147 166 49 102 155 229 100 168 193 88 167 232 66 23 255 80 215 69
174 232 182 108 183 38 230 60 48 13 204 59 248 115 109 28 28 37 54 143 61 91 44 108 92 50 70 13 60 54 174 120 38 65 166 197 59 195 149 77 119 23 4 216 87 185 202 85 222 32 79 242 178 170 199 174 56 56 124 250 122 11 54 86 196 143 113 54 137 74 35 108 216 124 200 150 221 90 26 104 219 108 75 226 159 76 26 217 47 145 19 15 56 217 179 124 20 24 213 233
61 121 87 50 180 182 45 133 172 75 108 213 4 110 161 102 146 123 40 217 208 157 103 122 82 90 38 145 119 65 50 121 3 201 130 84 232 169 171 28 90 241 145 54 125 86 202 46 160 211 50 196 38 104 252 84 163 97 171 129 210 24 7 206 84 222 52 226 28 133 130 40 231 198 55 17 141 150 50 204 96 163 164 229 53 4 152 229 26 25 208 55 25 197 182 47 215 88 134 183
72 77 68 42 105 73 124 26 90 64 145 75 149 139 31 174 195 249 119 167 97 164 65 141 218 45 95 56 31 164 19 53 129 109 20 19 194 239 174 221 212 252 44 169 159 79 247 230 68 207 117 93 227 43 205 181 181 224 100 129 171 14 61 231 251 165 243 13 239 56 123 138 46 102 105 249 240 8 194 52 54 60 151 74 117 118 199 231 24 60 219 92 169 19 195 122 78 112 1 118
224 20 175 239 108 153 228 84 5 50 134 221 6 178 184 157 26 36 124 197 136 197 137 217 67 171 230 192 126 222 127 226 124 17 52 130 58 195 6 127 143 70 49 134 37 197 154 143 141 200 248 53 64 149 2 241 76 187 28 160 255 44 85 194 195 39 207 63 42 242 18 224 0 142 34 197 219 57 19 254 254 219 242 233 24 41 138 230 1 59 52 192 235 24 194 193 182 3 22 70
147 236 250 5 53 7 237 227 9 16 6 216 150 17 241 143 11 241 211 125 79 158 66 197 144 58 6 154 171 36 102 56 164 134 249 176 31 43 81 37 206 217 114 127 3 24 192 182 41 115 121 91 47 253 31 62 2 169 129 239 86 134 65 63 212 225 133 26 86 26 105 49 18 238 165 33 243 121 38 87 45 31 113 166 168 205 49 182 94 53 193 102 112 188 64 1 226 65 233 151
4 171 31 174 125 25 84 18 226 21 129 68 28 59 114 30 236 73 194 143 114 11 8 5 250 54 147 179 96 105 95 32 52 62 166 77 39 252 200 225 185 171 234 42 40 23 178 175 109 1 42 164 236 79 215 131 40 190 249 235 90 218 17 228 30 246 4 102 8 159 186 198 60 24 235 129 53 140 182 233 57 121 120 134 146 161 4 168 60 14 165 192 252 127 122 186 81 56 236 12
15 120 141 247 43 198 89 46 234 146 188 209 117 41 91 123 86 171 61 192 80 36 20 173 30 111 243 143 161 23 171 89 85 221 165 179 71 103 242 108 136 155 240 208 51 97 236 7 207 178 171 80 215 142 251 193 164 4 175 8 108 236 175 193 252 32 82 6 218 146 65 102 193 28 213 1 59 155 177 16 197 3 111 160 195 198 245 220 240 119 18 56 131 135 129 250 105 197 232 232
33 12 79 136 123 205 70 17 105 119 170 30 211 59 187 251 186 66 205 245 250 155 63 253 244 244 228 183 50 225 9 23 242 193 82 227 19 158 80 170 167 146 42 237 5 109 47 255 238 17 165 236 248 97 117 128 117 32 50 80 106 234 131 138 236 105 16 21 197 14 75 105 60 26 193 181 231 201 103 229 222 207 176 14 102 204 189 242 209 174 82 41 193 131 120 135 233 199 111 127
244 127 162 106 19 227 120 67 93 224 69 163 186 167 209 27 60 128 113 25 227 70 195 105 27 140 89 221 24 125 64 202 247 235 11 94 15 252 230 133 243 68 74 52 114 152 53 223 87 94 138 166 79 104 177 105 206 233 32 109 50 169 178 118 160 205 184 8 92 95 75 218 22 73 28 131 92 177 239 63 248 78 147 18 79 163 132 61 177 170 139 26 155 60 171 29 26 160 249 158
187 244 173 54 212 151 156 115 219 184 84 167 60 164 130 13 148 247 166 184 206 97 205 190 175 81 4 28 12 213 253 3 93 79 27 101 218 46 77 138 175 10 133 32 98 135 167 231 43 145 107 16 239 143 188 141 96 171 75 150 121 210 121 218 60 77 143 195 15 104 133 169 105 162 233 30 197 181 62 215 247 244 110 179 30 172 221 118 202 153 23 239 239 205 71 203 60 69 7 115
247 111 182 94 171 111 141 231 167 224 168 230 242 117 143 136 77 194 136 88 179 234 6 130 238 22 107 202 12 197 183 60 107 219 240 85 62 115 131 140 209 8 161 186 137 43 103 59 216 51 88 11 205 100 67 152 213 77 32 163 139 80 214 106 49 103 93 14 187 184 227 155 9 241 127 118 132 210 213 180 63 76 203 217 95 207 190 198 230 243 115 191 9 235 218 46 158 133 35 163
143 37 132 252 221 226 104 166 21 98 3 14 159 245 214 82 168 57 62 204 70 49 103 96 75 166 116 129 156 129 161 5 247 221 38 44 17 226 167 34 167 86 164 69 96 192 216 0 164 136 66 161 160 122 41 46 160 145 162 87 155 229 89 154 204 171 75 0 124 147 161 102 200 169 142 228 150 205 72 205 112 79 104 183 25 21 187 238 210 87 129 147 195 69 202 135 1 10 59 90
134 102 136 22 36 215 168 233 111 237 163 127 156 196 109 228 195 152 186 118 14 250 54 78 93 97 102 134 35 33 113 10 139 162 242 180 211 94 11 195 185 237 38 157 63 22 47 72 13 69 247 81 222 113 152 83 252 54 206 28 137 248 181 85 22 105 18 126 166 132 226 195 188 251 174 88 49 18 141 165 71 202 245 114 115 103 173 80 52 178 233 237 1 165 226 95 3 41 27 232
225 2 247 147 33 183 253 230 7 220 66 211 125 4 29 122 239 124 23 51 119 5 162 6 221 0 118 90 142 1 97 80 218 134 58 195 42 195 125 120 139 126 73 140 41 247 165 92 31 226 126 40 71 31 209 194 155 145 79 76 133 245 155 234 243 101 23 102 126 190 36 147 53 197 113 182 9 142 59 119 42 58 18 251 176 224 78 239 89 112 200 174 236 232 216 19 108 41 179 213
48 213 130 67 17 154 130 156 215 141 214 79 46 8 175 17 186 115 112 71 235 80 208 142 204 160 46 8 159 80 129 126 192 95 241 218 54 60 241 250 6 58 120 49 203 70 12 200 150 62 205 149 138 229 112 17 143 127 237 115 174 123 20 151 255 33 163 0 176 214 58 153 37 225 198 69 81 20 203 206 90 78 69 72 78 59 152 176 183 141 200 86 186 33 50 243 155 114 207 134
39 209 56 150 194 118 48 86 173 25 214 129 222 229 30 61 95 110 102 194 232 247 149 86 229 48 210 47 123 35 177 118 248 31 118 230 182 48 229 237 143 201 70 82 163 54 77 125 37 0 82 18 17 243 196 79 251 17 37 9 250 157 188 110 223 127 76 3 187 93 26 231 69 138 86 243 153 177 242 47 231 207 250 29 84 48 138 238 32 114 217 88 213 198 36 144 22 194 162 144
230 208 185 81 185 36 163 221 134 254 55 234 150 116 167 153 102 244 192 55 172 54 11 198 223 157 40 230 155 200 119 21 129 120 177 127 167 32 133 62 30 24 106 137 132 96 92 45 249 80 177 58 110 26 87 131 114 115 148 253 103 206 107 209 203 20 146 172 218 87 228 215 193 111 68 171 44 44 116 41 231 213 147 207 75 175 101 224 77 8 147 11 74 132 191 157 225 137 171 9
198 56 78 35 65 206 168 66 52 226 138 71 49 237 5 18 58 233 216 160 163 93 37 239 49 128 186 30 204 20 44 115 102 29 169 123 104 171 229 129 133 184 124 118 199 136 222 11 14 214 217 188 83 133 227 137 45 169 225 93 176 228 51 12 131 100 58 157 168 31 96 165 38 89 234 47 110 97 251 255 233 252 119 214 182 188 208 54 81 75 13 0 188 186 83 24 158 104 114 29
135 250 240 19 220 65 164 75 119 12 232 50 182 228 217 240 42 223 0 226 240 5 60 95 122 166 55 178 167 153 171 123 52 11 60 131 244 153 222 82 97 235 253 55 176 199 8 16 99 22 109 149 61 133 47 169 122 128 188 135 62 243 134 12 228 2 194 186 213 145 96 70 38 148 76 195 188 80 110 160 147 25 46 40 55 237 86 110 81 195 59 98 83 102 129 136 133 218 128 174
209 40 223 48 172 116 204 141 120 61 41 185 147 156 135 248 215 148 175 150 157 173 66 102 150 195 110 90 45 113 10 122 117 249 78 135 120 25 0 7 86 8 183 58 203 59 50 124 189 211 125 70 107 18 143 30 233 196 227 37 86 206 176 79 32 97 148 233 191 114 188 242 78 146 10 163 181 100 246 74 172 102 124 255 46 247 136 36 140 144 128 108 244 9 170 195 248 127 54 152
69 154 123 214 147 83 118 26 211 67 80 79 242 232 83 208 41 41 29 138 191 96 247 177 77 35 151 98 235 247 61 25 201 104 130 37 81 252 79 10 54 9 200 89 73 78 102 213 205 143 117 170 12 161 188 152 90 233 246 208 65 144 60 143 168 202 102 63 154 57 40 141 239 248 225 202 215 220 176 152 141 237 82 211 245 20 120 141 160 185 67 200 51 127 88 23 233 169 227 93
122 187 34 185 243 219 117 197 228 134 183 52 40 234 68 2 193 199 65 31 44 171 213 221 209 164 35 99 221 238 145 25 16 185 88 75 140 164 176 88 151 167 243 29 211 76 76 229 189 89 181 120 203 227 236 34 168 13 81 84 253 62 23 197 82 19 207 153 59 214 82 6 158 172 224 98 89 233 102 91 170 191 10 141 66 73 67 160 5 110 180 103 101 196 72 0 170 189 127 235
222 150 20 213 240 253 142 95 12 113 66 145 18 230 15 82 135 233 136 208 76 100 1 177 48 174 205 73 35 148 22 122 37 209 185 230 18 73 157 223 203 178 144 144 225 72 125 175 64 229 234 56 252 15 146 33 90 77 202 230 214 203 26 69 133 171 137 72 246 186 209 237 27 222 163 109 235 247 131 89 242 162 31 14 9 61 159 139 125 103 159 145 168 187 104 255 244 44 33 239
90 221 123 247 63 50 197 117 26 184 215 63 185 175 218 178 3 35 197 152 220 215 209 37 188 164 136 236 5 225 228 180 102 106 117 24 67 155 168 211 198 99 234 204 61 234 151 188 240 3 236 240 22 68 187 61 209 208 166 252 142 46 157 33 157 86 29 34 153 151 203 145 159 120 115 169 30 220 96 61 136 227 14 155 18 28 114 38 92 100 176 174 185 151 3 164 7 128 203 132
70 254 104 167 228 212 61 93 125 231 211 125 9 167 195 55 197 208 41 67 172 223 233 135 208 107 61 195 121 230 153 18 68 19 173 70 28 201 42 25 209 33 255 228 25 130 10 52 127 62 195 138 248 2 10 169 36 26 120 85 170 211 197 235 229 211 211 162 156 146 93 22 114 194 137 175 144 164 24 106 62 94 17 138 157 75 43 191 32 43 241 143 55 63 1 55 105 224 198 145
185 80 53 216 26 189 115 179 195 241 142 137 112 32 232 120 78 152 13 150 125 89 39 233 107 27 77 249 174 245 188 60 181 227 111 43 240 113 182 88 36 36 154 165 64 152 30 92 118 198 162 143 172 133 55 166 60 78 50 64 198 199 246 87 8 47 170 92 180 197 146 44 134 160 55 20 148 174 72 195 230 168 13 241 29 241 152 197 107 100 97 172 255 68 230 5 196 128 72 113
65 184 126 231 71 135 77 45 4 90 244 227 199 111 35 3 172 236 223 18 249 173 82 28 3 176 123 223 33 189 170 242 141 101 181 135 14 96 186 92 184 164 174 168 20 59 2 254 248 114 25 157 217 120 3 78 227 189 223 143 26 72 154 195 128 168 37 41 148 241 162 18 189 4 210 168 167 64 250 112 119 79 115 185 195 61 167 228 245 130 105 242 49 43 89 227 18 198 203 9
36 204 105 132 173 170 153 71 55 217 41 126 163 195 56 253 156 57 249 178 196 123 166 12 2 79 14 97 91 160 230 12 71 220 252 224 114 255 159 123 115 50 55 18 72 8 12 137 185 148 70 173 39 32 159 132 128 13 202 229 129 217 27 75 40 13 31 118 104 140 95 58 104 84 240 251 41 188 191 191 152 92 234 145 97 107 14 145 46 232 69 243 115 44 83 182 198 70 233 236
179 12 203 77 78 224 124 15 218 84 120 47 212 28 223 124 162 10 180 34 100 181 191 166 224 252 145 36 219 8 136 108 237 229 161 219 203 34 23 187 136 5 121 217 94 211 188 40 194 196 86 184 100 178 90 0 253 90 28 3 172 140 234 130 175 33 79 219 96 142 243 193 109 66 165 37 32 164 146 110 96 29 140 216 187 78 249 160 172 177 60 97 3 244 230 150 36 176 154 2
210 3 33 167 15 49 25 240 213 133 226 214 39 189 191 60 252 91 205 134 244 31 9 190 2 39 160 32 166 193 7 178 123 145 77 97 93 86 166 146 238 75 212 64 136 195 95 229 205 57 199 8 88 31 10 81 192 197 141 236 137 194 150 107 102 252 215 238 161 124 238 131 27 161 237 152 192 193 9 136 176 145 101 133 167 172 50 1 215 177 45 47 71 213 183 137 188 61 196 86
176 24 247 23 101 76 247 103 43 184 92 116 101 40 104 122 196 210 46 19 169 59 174 113 124 149 13 218 118 226 20 165 115 143 174 12 165 209 251 89 18 144 158 88 53 183 66 12 20 126 82 164 161 216 57 36 73 167 127 30 185 146 106 28 70 149 103 1 206 109 104 181 210 51 128 141 79 52 129 222 199 12 173 10 127 127 28 150 210 247 62 184 163 92 59 205 213 253 143 134
146 154 159 51 134 176 173 198 250 60 52 154 31 131 27 47 23 51 206 183 248 2 50 129 64 154 200 29 114 129 41 123 95 111 61 242 48 160 200 171 34 53 109 94 153 132 226 181 227 20 46 2 45 186 65 91 48 90 220 178 11 185 216 174 89 20 136 90 214 107 53 108 116 173 214 135 132 25 230 117 10 128 13 18 180 119 185 137 177 102 146 103 42 176 118 209 188 96 206 62
224 145 205 244 84 47 254 11 11 17 175 120 99 212 223 144 4 65 145 185 77 137 205 69 4 49 151 4 107 65 39 68 97 67 1 16 211 174 5 189 167 61 219 0 221 182 60 214 183 180 248 93 184 61 20 177 140 44 78 52 227 13 100 113 227 235 208 111 78 240 227 13 65 209 172 130 236 65 141 104 123 231 204 207 99 191 169 99 195 28 71 228 13 107 182 100 61 163 138 68
57 185 61 94 238 245 213 2 60 235 103 203 40 119 42 120 210 134 211 29 99 30 94 152 23 12 139 61 148 214 229 111 135 63 162 96 63 178 219 126 2 105 93 53 7 169 37 139 200 172 177 230 153 14 17 172 191 49 220 172 128 26 83 136 12 184 95 10 116 16 241 190 210 172 146 203 141 35 99 249 149 1 50 107 26 177 244 111 55 206 124 97 161 32 220 164 149 52 65 84
172 213 85 236 158 222 162 112 56 148 110 25 146 232 141 217 96 27 122 125 143 99 213 250 61 229 211 9 120 18 132 73 78 96 225 195 193 234 50 106 79 75 230 19 129 32 114 196 13 4 254 159 68 166 228 95 59 199 13 115 191 31 164 44 55 41 157 145 28 157 137 62 157 124 166 134 151 139 107 3 115 148 218 81 28 14 20 137 57 134 174 217 255 61 130 1 184 212 191 131
228 73 145 6 144 100 187 30 145 12 196 46 79 17 47 134 62 50 211 42 171 145 210 207 236 94 215 133 145 4 206 15 130 226 168 125 234 186 2 162 93 200 207 1 43 42 177 241 61 35 164 188 164 47 190 14 184 206 86 3 86 89 159 98 56 140 184 82 159 210 238 103 19 196 212 255 26 154 123 177 113 193 149 53 248 245 221 6 45 59 146 49 216 35 150 15 111 98 169 116
212 245 229 78 15 5 207 176 230 55 10 12 215 176 234 254 165 96 105 215 134 226 98 217 186 179 184 148 175 165 123 16 37 229 42 213 26 13 104 58 48 165 200 176 118 52 219 151 201 89 78 244 13 147 1 231 4 198 43 51 94 203 208 232 22 103 69 13 228 112 35 130 72 52 203 244 51 246 122 236 148 141 100 72 41 128 222 54 140 54 131 82 38 15 91 226 76 37 117 15
178 249 91 3 94 251 132 230 16 201 184 225 81 60 34 250 28 115 234 245 50 32 29 170 84 62 2 217 44 25 188 90 31 148 140 226 39 190 18 139 98 218 89 162 227 73 199 237 226 188 104 77 154 78 101 96 28 13 44 181 32 27 209 206 56 162 3 121 75 179 245 12 157 239 113 188 94 117 185 155 111 228 50 233 237 0 112 188 105 26 135 50 134 55 16 73 5 133 130 109
55 187 152 44 199 57 226 226 17 163 122 230 143 49 165 172 183 89 206 158 125 64 250 116 56 14 245 169 198 113 143 92 138 240 178 212 126 45 101 193 218 210 200 191 101 156 160 150 135 131 99 228 240 109 248 97 237 104 140 151 216 163 64 244 156 8 175 41 127 107 194 172 225 52 48 118 109 133 60 100 107 254 251 49 43 178 147 141 8 254 161 86 114 114 224 116 112 139 210 14
22 191 182 62 77 171 136 208 149 210 137 200 131 25 210 1 127 237 130 35 251 192 111 241 35 57 73 26 110 181 166 205 82 67 34 235 247 42 165 251 240 114 107 168 113 235 6 167 254 129 226 248 112 164 130 30 144 183 238 150 228 100 246 151 90 41 190 199 133 146 120 101 149 219 152 20 171 2 44 70 235 187 72 77 13 153 64 114 194 30 205 145 104 13 16 150 103 128 119 230
244 247 241 150 241 83 9 175 107 113 208 178 214 133 81 71 67 180 212 10 213 201 187 123 79 1 100 215 57 224 171 90 120 162 20 81 64 149 38 221 202 169 47 133 122 212 34 91 110 54 28 147 135 38 22 177 72 65 155 174 189 71 222 197 117 9 235 2 5 23 13 210 207 83 227 196 129 49 135 228 31 233 112 29 131 148 102 5 252 202 169 195 235 101 242 156 134 143 239 181
125 177 26 138 136 213 224 56 236 106 245 40 240 245 50 73 69 161 25 113 114 149 48 156 42 83 215 143 98 137 91 72 105 40 169 81 244 56 255 38 30 233 86 208 223 60 64 179 79 37 86 108 107 132 185 8 196 48 205 1 69 12 166 17 71 188 103 184 242 2 194 240 4 236 110 106 222 167 34 122 97 179 88 107 11 11 124 245 23 181 76 199 165 161 155 237 91 154 214 117
202 188 33 95 164 3 142 165 134 79 255 87 41 70 31 99 151 227 247 241 24 77 231 7 65 159 161 173 246 73 13 20 34 240 78 192 92 154 164 120 141 130 248 86 170 22 218 1 117 103 13 240 208 231 38 158 39 212 149 199 194 28 157 120 199 31 132 100 48 65 151 158 87 33 219 137 217 202 102 225 3 169 85 77 25 47 71 71 206 162 254 174 236 10 253 218 182 101 52 137
254 207 30 8 96 25 176 135 135 35 138 12 93 27 246 161 24 135 37 98 1 181 126 49 13 133 29 117 229 139 223 215 28 18 104 142 95 255 91 157 146 83 196 15 136 182 221 102 115 81 61 45 11 129 67 96 158 5 24 149 162 201 229 37 71 91 49 107 159 57 104 98 189 150 161 141 117 228 106 148 172 24 251 163 131 201 248 37 151 101 36 132 136 147 138 80 220 12 162 95
210 230 82 121 234 251 183 156 164 247 107 233 240 21 35 54 50 4 82 35 201 128 78 109 90 169 40 5 152 149 108 94 62 225 104 4 140 61 54 229 108 216 113 101 31 151 98 171 142 115 160 100 17 56 47 176 111 77 101 118 18 236 97 217 187 145 64 142 68 178 227 119 83 18 215 63 234 68 6 147 209 200 135 127 63 11 246 196 142 83 166 237 43 85 38 137 60 177 239 224
97 35 127 42 10 98 212 127 156 5 152 62 4 105 65 14 44 194 243 76 12 227 234 163 109 38 24 46 242 243 16 246 97 248 95 193 174 237 94 214 228 144 171 77 236 230 209 109 139 120 207 206 46 248 131 18 180 107 89 70 15 172 171 254 132 246 163 231 142 66 65 28 87 148 213 246 104 243 96 149 19 86 227 143 38 212 229 244 65 94 19 107 175 137 163 8 203 47 229 17
152 88 21 191 95 107 73 211 153 31 215 138 43 215 199 235 23 29 151 88 150 47 107 0 44 189 130 9 158 167 202 36 65 62 164 174 13 112 58 149 228 142 101 195 79 187 82 56 213 187 217 244 242 182 242 190 239 67 31 122 221 138 2 172 37 143 162 166 194 219 127 231 73 194 20 33 49 145 159 64 123 82 28 17 55 40 240 145 21 89 48 231 211 16 190 168 106 86 174 69
139 155 187 82 169 97 17 11 158 100 80 153 9 68 230 212 59 154 113 236 168 118 117 3 157 104 87 221 85 51 148 101 205 73 252 252 77 105 251 155 23 230 49 42 131 169 135 24 159 232 13 95 109 252 163 51 185 219 243 133 29 217 72 51 245 30 46 99 155 50 89 113 166 103 138 119 133 146 246 146 232 238 35 138 78 40 115 255 210 13 102 229 36 75 167 44 199 59 0 89
99 5 93 245 146 144 70 224 170 165 7 57 77 182 253 236 222 233 154 140 78 100 159 90 49 190 105 16 244 32 38 90 169 50 153 97 221 24 89 225 50 59 54 54 181 1 121 229 249 126 190 183 124 65 224 35 11 193 37 0 96 245 48 11 79 199 48 230 27 139 160 157 10 236 78 206 242 228 184 17 242 142 230 46 120 40 52 244 7 25 144 49 239 191 241 210 102 164 11 223
208 22 196 220 130 79 16 253 96 193 155 30 120 153 130 47 146 189 9 160 125 99 64 79 57 35 227 53 72 45 70 116 55 65 127 84 200 205 88 96 63 46 150 30 1 142 85 83 203 198 221 85 90 138 49 119 89 88 68 89 21 147 72 202 48 239 89 84 64 201 34 193 113 137 141 73 214 104 202 103 60 10 179 51 65 166 106 169 104 102 184 237 122 233 206 222 71 78 201 52
4 183 42 133 46 170 217 29 180 250 128 206 83 42 230 53 52 111 192 16 141 119 225 225 99 33 93 197 103 209 222 22 164 241 79 8 62 142 167 140 207 207 42 199 206 240 86 255 11 60 70 93 71 115 87 154 85 227 94 115 82 211 126 89 117 190 30 115 215 124 97 169 180 100 224 215 137 187 253 51 78 226 135 107 89 216 48 137 184 45 52 234 158 10 22 102 191 102 197 133
4 95 202 246 74 66 140 76 201 135 63 165 184 76 36 169 72 51 88 171 137 68 138 105 151 79 53 169 187 43 42 83 2 54 175 83 61 159 46 135 105 214 56 17 209 79 35 41 215 76 184 71 140 62 184 164 117 182 159 176 247 204 194 236 17 197 94 223 124 44 86 18 76 234 253 211 3 11 171 8 157 7 11 220 247 230 52 68 202 187 151 187 20 159 12 107 70 47 72 45
242 202 252 98 77 246 36 15 206 237 189 221 64 214 207 122 200 145 18 255 228 197 242 170 90 47 248 46 157 36 36 161 231 222 108 212 213 188 11 220 200 194 206 7 174 6 156 120 237 104 221 121 112 5 179 248 159 251 211 128 160 146 54 9 141 246 88 77 174 162 124 61 159 147 177 14 117 162 162 228 19 178 193 148 216 234 53 159 42 32 63 27 240 20 183 46 91 149 17 196
163 209 45 226 226 27 186 50 185 57 198 210 6 252 181 172 184 155 181 35 150 67 75 57 224 97 52 194 176 234 145 143 129 102 233 139 124 158 28 50 40 130 156 10 233 183 96 143 43 54 62 15 176 195 240 183 150 74 29 143 10 220 121 72 177 123 51 106 230 208 187 209 95 230 84 196 59 248 49 195 185 244 156 193 216 94 185 234 155 93 141 156 43 87 183 167 205 131 184 55
237 26 230 51 133 77 24 118 227 68 205 210 97 240 149 32 227 143 21 62 175 254 161 45 217 95 119 9 37 46 131 211 5 88 12 51 3 18 104 211 132 234 20 92 93 101 130 164 190 177 32 3 40 67 62 123 99 7 239 184 9 225 170 156 157 36 152 1 17 206 112 38 242 221 142 31 65 242 141 176 155 177 251 84 119 95 75 233 39 149 13 3 52 204 18 62 88 161 68 172
221 109 55 178 140 252 35 19 238 254 244 88 27 225 249 34 118 148 148 149 203 214 35 201 43 182 241 233 31 118 221 239 102 18 231 88 104 227 90 250 1 178 130 100 75 253 127 36 181 89 143 9 143 73 48 174 137 57 151 64 30 144 107 48 245 152 52 208 226 70 35 252 232 200 104 148 54 250 95 37 235 29 3 236 224 180 38 56 192 92 59 176 189 32 21 63 246 27 192 30