P2
5 5
255
75 140 7 71 179
44 255 254 208 118
136 111 151 112 216
165 3 158 251 106
114 240 120 142 184
