P2
100 50
255
48 35 118 73 27 69 249 72 34 219 189 68 106 22 128 131 89 138 82 62 61 238 226 96 111 195 177 100 117 84 235 114 218 164 6 119 246 146 29 92 17 217 14 36 14 6 95 242 137 219 180 245 248 26 73 16 134 46 95 154 61 85 61 47 22 5 13 218 155 222 171 121 57 50 41 111 185 80 209 77 183 204 163 225 164 116 24 205 138 41 227 254 57 171 68 143 150 255 158 67 
213 96 39 6 22 118 144 3 5 72 68 205 176 7 97 140 191 162 244 33 15 101 114 79 43 103 153 43 213 208 72 135 165 212 163 143 2 18 17 210 235 186 247 68 207 208 132 43 129 71 187 50 151 104 143 252 137 224 3 202 193 52 66 203 157 64 100 254 31 189 100 83 92 66 178 24 98 142 61 226 97 55 244 152 135 194 105 127 245 83 44 188 148 180 30 193 139 150 170 143 
20 96 65 186 251 249 185 22 210 238 11 123 83 207 179 9 235 83 197 156 171 25 164 221 55 94 13 114 248 144 160 15 46 187 88 63 187 191 140 157 90 96 95 9 34 118 66 199 157 166 87 16 12 253 132 233 126 42 22 243 219 195 99 95 212 173 217 157 127 18 117 219 207 43 53 53 1 168 237 44 83 171 242 187 35 210 173 41 183 217 191 4 180 209 132 76 139 218 148 78 
185 39 70 25 13 197 63 131 86 97 73 175 45 113 129 87 181 137 181 76 29 129 218 252 165 184 40 98 72 99 50 57 24 182 137 213 78 110 28 113 138 99 198 222 237 185 35 13 187 60 243 245 236 227 58 85 42 2 153 254 167 223 86 5 81 215 160 47 4 212 189 67 161 213 137 92 101 216 113 115 151 211 32 54 72 193 134 21 17 115 211 221 37 182 92 247 186 134 199 45 
54 56 106 197 16 222 38 1 9 144 196 125 185 90 214 18 101 249 204 1 28 16 250 199 12 30 152 126 175 49 60 243 254 242 156 217 57 219 98 245 147 9 112 66 78 141 147 150 180 122 1 66 87 67 182 100 211 166 90 146 147 21 152 250 176 123 229 27 98 44 124 85 143 228 105 87 55 99 89 214 154 221 246 23 241 113 56 72 82 60 166 122 114 180 119 151 113 210 56 208 
161 18 165 208 217 136 222 32 210 177 50 49 195 162 139 81 57 252 164 254 51 210 249 193 68 110 85 226 232 224 79 80 48 148 240 74 55 57 178 105 147 54 98 229 12 23 120 188 32 188 1 244 168 251 159 86 234 147 190 165 243 112 75 78 202 30 191 107 60 1 130 109 152 88 111 237 14 251 187 60 41 48 192 64 156 241 127 6 217 63 194 62 4 235 164 176 217 179 35 67 
60 91 167 108 13 152 231 193 65 138 127 55 78 50 15 119 46 178 68 16 85 121 148 169 90 241 180 28 23 2 133 147 100 90 245 50 35 27 107 173 193 243 241 85 255 179 242 57 152 226 38 167 191 111 117 145 245 112 199 120 61 210 228 156 123 93 12 222 149 56 55 237 67 43 184 1 202 162 135 46 15 105 142 171 63 89 93 198 224 101 181 150 31 70 110 247 207 215 213 133 
156 228 213 205 176 204 160 221 138 135 63 143 237 166 250 180 118 211 244 137 62 97 71 33 179 16 48 182 218 209 49 153 60 10 115 239 127 199 117 96 224 72 109 244 214 21 134 184 150 183 22 234 166 16 194 141 134 81 217 19 108 236 40 198 67 234 46 115 39 99 221 109 162 74 72 179 189 131 214 23 37 9 129 226 182 19 137 184 47 132 166 238 229 134 212 103 253 45 194 127 
166 68 241 192 244 26 238 133 44 143 49 16 227 235 143 214 116 157 218 38 188 126 46 158 188 51 254 219 235 182 44 26 85 245 66 20 63 104 131 73 203 20 146 44 197 11 196 86 137 253 121 90 30 72 210 243 224 182 221 93 33 57 138 163 203 197 196 44 203 160 166 99 116 80 179 221 182 152 79 252 66 142 15 131 39 62 107 73 1 161 193 170 143 58 232 78 56 18 6 160 
226 46 141 208 107 255 242 121 63 106 230 129 101 21 5 137 99 48 89 80 153 70 148 225 220 145 105 45 118 166 161 87 61 92 1 119 157 136 64 96 201 246 213 212 133 239 30 46 19 52 123 79 234 117 190 157 138 103 36 196 111 147 224 83 171 76 56 218 5 169 76 97 27 67 72 39 210 194 235 89 94 165 72 120 85 83 3 99 243 146 66 19 157 255 187 163 52 9 135 131 
19 114 149 18 144 142 44 128 206 235 45 34 25 0 69 235 180 72 27 95 166 166 180 147 124 36 229 141 227 181 50 203 74 97 252 130 193 147 98 29 184 116 132 58 34 12 209 160 132 119 39 85 59 129 161 164 113 39 65 81 166 118 22 223 247 10 60 64 156 142 73 60 80 180 46 148 253 254 27 75 250 46 243 18 242 193 229 214 92 108 168 43 215 101 99 102 51 238 191 153 
235 62 30 41 230 219 106 73 83 38 84 229 138 146 252 252 161 187 4 105 134 17 100 13 169 131 105 42 85 176 111 40 26 113 60 103 84 113 201 82 255 25 185 86 209 219 146 252 186 3 79 188 113 26 177 156 35 180 245 208 200 131 102 23 175 190 109 227 144 204 10 4 199 108 174 248 197 246 156 161 19 85 28 226 217 1 22 73 82 148 93 140 107 126 131 85 150 12 7 252 
95 36 110 52 88 91 9 81 228 233 205 206 204 156 213 28 225 196 196 169 15 38 188 231 119 38 249 35 152 245 180 114 18 163 6 216 196 128 251 106 197 88 60 74 160 72 92 215 148 15 56 205 161 61 131 56 113 242 241 159 222 93 57 244 254 226 185 126 168 134 4 116 122 19 53 73 11 20 171 176 157 222 248 238 103 171 189 14 47 107 162 169 4 30 71 214 199 151 249 151 
138 242 199 70 115 164 195 97 14 21 206 175 119 170 52 219 92 117 42 114 138 166 202 168 212 92 57 8 57 252 236 226 174 245 185 190 216 60 238 118 208 227 32 128 54 221 95 29 13 16 117 100 35 218 33 167 182 99 49 206 232 210 111 103 240 151 195 95 231 216 160 113 46 233 25 244 168 48 59 64 128 225 73 220 175 72 72 161 197 139 134 208 223 107 95 177 197 72 197 200 
255 183 237 43 112 66 223 57 38 26 159 27 34 93 129 230 246 2 32 213 237 36 199 151 43 187 167 240 156 32 66 123 122 120 148 151 54 69 186 199 102 98 39 228 164 183 220 209 103 158 223 1 108 58 26 66 163 158 56 255 108 90 71 111 110 254 171 111 47 120 198 60 36 110 120 152 56 229 102 140 214 166 82 50 195 101 132 42 232 132 39 160 156 18 152 42 47 24 252 94 
238 65 19 77 126 60 55 100 94 230 10 200 21 200 255 151 218 109 245 154 174 206 62 226 102 25 144 132 240 135 215 158 67 238 158 124 4 120 116 2 156 157 95 160 112 99 48 125 113 182 132 62 36 134 8 150 79 193 90 239 128 30 180 22 32 142 146 232 70 114 19 15 23 162 118 116 66 49 139 145 102 3 84 170 97 138 23 220 221 17 144 3 171 11 125 66 28 48 191 140 
226 233 178 64 90 224 242 69 159 143 204 2 9 77 40 42 249 130 56 43 255 207 136 74 244 92 251 58 12 207 23 28 138 164 77 33 227 167 139 165 109 101 201 123 249 2 16 39 77 72 208 58 196 179 62 183 189 65 240 166 233 187 175 64 69 105 181 182 88 151 15 20 207 221 110 160 16 142 33 91 45 227 84 127 19 180 227 157 111 248 124 77 208 158 178 77 225 20 227 61 
2 232 243 82 138 203 138 205 229 33 236 209 37 144 78 151 148 35 42 70 72 232 207 179 79 170 10 128 21 246 110 5 113 122 79 117 87 37 252 165 209 115 242 233 4 80 172 93 31 107 225 206 17 174 240 4 108 10 187 191 179 205 149 111 184 251 109 37 134 247 81 24 68 155 13 43 199 156 99 85 127 100 200 104 4 223 148 153 226 123 231 84 229 222 8 65 10 144 143 51 
226 220 135 140 131 186 221 89 1 33 68 220 116 9 134 196 58 144 188 24 239 236 29 142 235 159 76 172 184 2 207 212 198 141 4 80 89 97 107 22 156 228 203 139 126 145 153 82 155 58 89 87 116 232 67 230 240 85 185 208 148 79 19 175 116 83 38 68 46 171 81 125 16 93 29 204 4 234 123 146 2 227 95 101 77 36 188 65 121 79 220 82 159 126 246 165 158 77 62 163 
8 45 107 170 128 8 213 38 131 156 4 185 165 93 218 173 20 81 82 153 16 232 250 111 154 184 142 71 92 250 237 212 221 245 37 113 228 250 134 107 158 26 130 159 168 55 197 248 94 231 62 141 59 6 166 135 168 172 138 172 138 165 22 232 183 105 213 225 19 141 233 216 184 237 238 80 68 0 108 146 62 177 59 158 188 246 45 31 107 207 83 250 103 1 108 102 62 75 185 40 
150 77 125 61 159 109 82 130 134 103 149 112 72 0 220 184 166 145 138 159 168 184 15 234 38 108 211 116 253 0 100 96 197 99 41 173 168 127 46 167 176 63 40 231 226 208 202 45 246 172 37 82 93 26 221 21 22 25 169 25 75 101 56 170 252 80 46 116 24 212 197 43 113 132 174 35 141 102 223 247 205 44 63 11 245 11 255 171 41 103 1 238 29 61 91 218 75 244 211 232 
225 186 41 140 231 23 245 142 14 16 186 12 71 192 117 225 246 3 63 200 89 129 209 125 224 133 246 241 203 189 243 191 145 146 17 86 45 146 134 88 224 15 41 198 105 54 235 181 145 140 83 220 64 246 121 212 55 60 36 206 77 198 25 220 143 57 64 253 88 131 45 123 137 85 178 55 98 106 149 91 155 211 81 148 217 196 171 169 188 114 78 251 188 126 63 238 128 189 109 138 
120 108 4 113 236 87 27 228 40 138 82 109 247 251 144 68 35 77 50 170 215 248 137 147 115 48 156 176 136 13 198 175 182 241 15 116 139 168 56 182 135 135 41 222 3 55 98 25 197 132 243 48 92 242 76 174 80 171 138 236 124 23 42 210 7 68 160 55 131 45 169 28 141 20 180 208 30 5 60 39 192 226 178 64 185 204 103 189 170 155 32 148 37 43 69 197 151 212 222 95 
47 12 38 248 150 103 156 190 173 202 60 44 85 158 68 142 152 155 77 165 238 60 31 235 107 196 142 66 77 228 176 90 135 54 23 35 166 205 66 8 146 135 206 188 243 183 202 248 21 65 82 66 66 105 226 64 148 234 53 39 250 13 200 32 48 220 156 245 134 70 172 171 30 209 1 127 16 193 183 1 155 234 1 146 182 255 95 59 255 118 55 165 179 153 78 48 34 245 239 168 
218 194 132 158 148 163 65 221 31 63 143 228 140 1 224 224 252 123 179 175 37 193 236 90 40 123 160 78 82 62 186 43 74 15 221 75 247 212 227 199 1 255 9 219 147 186 171 92 75 218 1 134 211 169 123 73 112 212 143 66 111 0 207 154 230 159 56 228 11 121 231 239 135 190 25 87 138 101 39 160 25 50 229 216 52 65 106 187 22 74 139 124 157 238 61 200 144 211 237 1 
178 227 0 243 155 247 144 40 0 12 133 204 172 149 34 251 50 89 254 47 77 193 166 205 41 175 77 125 7 100 138 159 1 0 8 251 162 91 158 42 96 11 9 226 111 203 74 157 165 57 239 220 254 151 232 60 79 144 243 40 110 114 119 65 84 66 149 220 85 150 225 97 171 187 177 67 126 20 116 32 213 155 68 243 164 58 6 45 15 204 61 236 222 125 109 44 145 5 71 240 
213 215 15 203 247 156 235 244 39 99 196 188 28 34 80 128 82 1 140 152 149 147 131 252 130 79 205 136 59 140 41 188 225 240 57 62 64 121 64 255 67 156 217 220 155 62 129 132 211 92 204 37 129 90 153 234 213 49 192 95 230 114 134 183 101 49 126 171 66 39 138 204 229 97 133 111 226 178 93 55 103 143 124 116 62 197 32 104 56 148 50 119 168 145 8 239 148 134 148 140 
33 58 57 34 88 54 185 135 140 101 137 82 202 179 125 227 63 72 240 28 3 60 122 39 232 241 4 6 245 128 197 223 38 29 98 230 18 107 130 15 172 77 191 148 249 130 23 166 218 200 164 36 233 97 192 187 75 62 120 166 23 75 137 128 37 44 204 173 97 51 150 125 1 188 137 128 159 174 34 206 42 165 196 13 91 167 44 55 245 33 249 143 61 119 175 175 97 31 28 78 
18 0 238 27 6 196 199 9 149 200 47 153 158 156 221 252 163 16 254 59 139 249 79 182 67 204 250 152 153 19 235 177 46 148 41 238 102 211 104 117 148 202 170 157 204 90 68 241 133 196 245 24 166 153 63 90 223 123 111 34 239 246 32 174 44 86 158 192 81 186 45 122 165 1 162 106 179 42 29 58 210 79 142 180 175 230 3 185 211 40 26 161 133 189 19 69 72 147 110 231 
40 43 160 161 132 102 73 38 57 79 236 211 45 5 95 129 178 214 54 64 115 177 215 83 156 220 80 51 222 252 22 214 85 238 39 157 108 235 247 125 52 62 161 111 152 158 60 176 53 107 180 116 174 173 145 59 66 130 66 134 135 164 235 124 152 135 56 84 240 35 179 105 37 222 161 77 253 137 172 236 163 131 17 10 170 55 58 226 2 151 217 138 71 126 2 229 243 8 183 182 
65 47 21 126 202 43 150 218 208 114 232 238 118 238 40 105 205 79 51 218 42 194 17 39 170 72 86 108 27 42 75 16 83 197 173 175 28 165 137 190 11 28 57 78 195 88 34 40 153 186 226 54 114 255 70 182 62 192 130 22 19 11 168 20 171 7 244 241 102 53 244 216 28 3 60 198 44 73 250 49 65 118 67 57 196 145 113 203 118 143 227 101 8 179 226 54 145 182 18 207 
41 214 85 213 225 129 214 116 50 14 83 35 129 59 205 195 112 49 250 206 205 137 176 98 178 25 227 81 97 108 160 80 120 57 238 57 69 30 245 152 19 234 58 93 160 130 119 62 59 208 118 204 63 239 190 194 179 167 219 152 85 223 252 152 183 236 77 0 37 182 155 230 70 217 89 116 184 117 50 88 211 122 112 121 215 145 183 18 54 19 28 216 95 163 10 153 243 144 246 158 
162 35 244 63 80 249 101 172 204 14 188 146 215 93 99 55 163 148 123 153 197 242 14 16 170 126 68 178 205 188 87 55 40 251 83 114 49 68 139 142 49 49 234 180 72 169 86 42 186 147 169 99 149 131 157 116 248 221 210 9 84 205 26 112 172 41 18 194 224 128 20 13 104 7 245 254 146 180 215 140 61 253 129 54 107 202 123 2 195 251 121 54 62 95 75 194 61 33 35 138 
3 244 235 229 19 220 141 165 214 159 49 1 59 220 145 38 245 120 160 50 49 114 214 46 188 48 59 167 203 85 234 42 89 253 157 90 51 16 215 218 251 101 17 245 2 237 226 43 14 161 61 162 251 248 142 53 147 89 178 179 226 9 221 206 175 55 194 19 250 84 246 247 201 132 162 129 17 21 82 167 4 10 119 163 166 224 219 6 162 52 120 7 225 58 153 117 216 74 159 42 
54 200 29 128 96 11 102 40 70 66 57 201 28 248 117 31 214 63 245 229 172 215 56 87 35 176 67 125 111 94 16 192 78 23 42 239 185 52 117 23 78 41 139 1 123 96 240 101 187 25 99 7 103 4 96 236 114 49 248 174 201 65 188 5 14 135 101 161 229 175 10 62 243 124 146 20 188 169 72 73 46 239 224 158 165 66 218 115 72 156 191 190 26 103 182 85 58 66 250 207 
93 14 205 180 189 110 64 188 150 250 195 231 150 38 222 143 29 140 39 139 61 242 175 60 148 136 88 28 184 52 33 13 223 118 137 8 213 243 155 72 77 90 19 20 192 142 102 226 191 121 105 140 20 152 93 42 229 114 228 88 153 213 228 83 108 207 180 1 225 151 237 72 232 146 196 55 225 247 144 165 62 178 163 14 151 219 48 248 255 145 131 159 9 46 129 92 134 99 151 219 
147 206 233 171 18 153 229 156 217 249 60 219 174 243 249 183 169 15 92 14 24 127 169 226 17 143 198 209 51 192 119 250 16 90 70 96 122 209 17 37 209 135 239 245 109 139 197 33 72 76 55 208 176 211 16 126 168 215 160 116 80 123 3 216 110 217 17 46 103 40 13 18 165 72 229 112 76 176 63 151 38 11 158 247 88 79 41 28 216 105 34 78 212 249 152 91 34 31 180 173 
120 79 49 120 134 150 112 47 15 155 157 111 141 160 43 68 100 89 249 130 25 148 168 185 121 198 150 140 82 51 220 219 153 44 33 152 246 137 157 128 249 130 195 30 94 50 137 151 198 165 220 219 196 42 227 117 219 150 8 174 30 101 168 235 27 92 55 93 76 103 239 57 184 90 138 155 36 123 105 238 44 160 45 252 88 203 153 255 60 158 70 38 19 105 132 242 56 54 150 116 
41 171 91 23 36 238 170 153 125 76 90 57 136 226 45 202 74 231 150 29 99 78 97 167 197 242 207 48 169 202 120 29 91 56 219 162 65 243 140 232 208 63 19 217 233 102 55 207 186 166 237 159 121 232 250 27 11 95 106 241 75 209 24 70 25 91 126 107 131 233 144 250 73 103 88 232 196 213 189 80 227 206 113 149 184 81 171 130 164 196 195 66 93 146 239 11 164 220 106 238 
210 62 240 202 22 127 0 119 137 182 111 149 243 59 111 217 191 246 83 243 154 235 2 70 131 229 17 138 182 30 247 57 41 159 134 99 180 197 118 175 203 11 236 185 148 133 126 139 186 216 3 174 118 126 171 81 224 212 41 149 60 71 103 250 57 250 232 92 39 80 59 85 56 81 63 189 127 185 115 1 102 38 50 62 29 150 111 26 181 253 148 204 37 211 135 146 18 158 179 204 
200 226 90 141 135 252 184 139 120 248 251 72 242 18 254 32 63 248 198 156 85 252 23 89 191 18 12 199 192 151 180 250 96 118 155 211 176 172 184 202 71 58 178 150 47 192 55 85 81 137 1 52 228 237 62 16 131 165 158 118 202 214 72 17 192 169 2 221 84 6 185 246 221 137 1 181 209 248 164 150 195 127 26 40 108 176 11 77 134 92 100 32 20 156 37 16 75 202 131 44 
218 145 71 105 41 255 154 173 193 95 23 105 100 196 14 55 174 88 134 120 123 191 194 172 229 98 211 72 122 206 214 171 65 134 215 177 246 216 192 4 239 62 152 204 109 28 238 80 3 232 7 212 138 40 219 184 126 231 76 140 170 165 241 78 252 234 104 234 91 25 148 193 23 138 41 16 85 29 21 190 210 45 125 178 221 186 145 26 38 26 222 140 183 239 82 143 164 135 54 214 
209 34 200 136 218 28 81 224 184 195 59 73 172 250 33 208 29 233 135 11 99 52 72 122 215 124 72 155 218 93 42 169 184 93 113 165 247 224 226 194 74 84 158 104 27 218 11 92 31 68 163 238 6 40 93 197 42 186 76 29 171 105 234 1 161 217 117 151 242 139 163 194 62 222 58 217 50 94 22 207 5 56 39 252 27 136 18 60 77 23 165 219 79 173 221 216 138 46 22 151 
206 225 32 112 7 106 75 12 72 94 233 53 181 65 197 168 180 16 3 27 84 200 101 231 139 237 43 141 144 184 106 52 125 178 192 203 123 23 215 106 43 60 2 140 163 150 213 216 131 53 37 50 20 230 237 228 142 225 106 195 69 3 59 191 41 188 185 208 150 94 208 34 138 184 250 43 145 134 156 209 121 223 0 190 11 241 83 102 44 106 108 196 158 137 19 194 13 104 192 216 
227 230 243 160 121 151 116 113 157 132 107 100 199 78 116 60 116 211 186 227 140 67 92 55 114 40 178 93 137 114 82 46 6 58 201 143 229 227 101 82 183 222 45 229 89 67 43 66 131 155 25 203 219 90 49 223 62 178 235 195 191 195 132 198 207 122 73 136 142 11 32 96 58 244 170 36 202 231 137 200 132 254 175 71 241 34 14 97 164 95 235 42 124 129 41 2 46 4 247 132 
248 36 38 246 91 160 57 42 106 151 133 228 84 151 141 87 145 219 30 247 50 2 103 241 249 100 36 96 16 165 105 144 154 158 30 233 79 26 131 225 118 177 35 74 6 40 181 220 181 182 163 47 170 57 117 101 165 233 72 254 186 55 232 50 103 132 169 176 225 158 50 138 212 134 219 91 67 9 173 131 145 24 64 253 186 102 240 216 20 4 143 245 150 62 224 222 84 24 131 231 
115 144 69 251 220 248 120 208 232 175 130 232 136 145 52 255 220 134 233 126 21 118 39 141 15 38 91 177 37 237 66 81 117 179 87 19 191 26 104 140 115 177 131 157 229 246 75 249 61 205 174 136 12 86 114 114 244 84 142 16 213 89 164 196 61 163 90 44 157 25 142 178 46 73 217 182 249 97 123 152 184 178 113 17 165 110 45 212 29 236 250 52 75 44 128 103 114 29 169 20 
0 149 23 1 56 165 23 235 132 206 179 105 70 26 73 69 41 185 132 213 43 237 82 73 152 202 145 19 4 184 211 164 230 249 125 172 157 152 29 228 88 213 36 118 251 197 249 198 193 69 178 99 132 199 72 174 9 60 217 84 30 139 19 183 109 129 151 60 97 59 55 243 247 232 57 240 61 74 171 83 72 36 26 59 213 123 16 168 40 13 185 41 95 92 121 247 172 239 131 207 
53 109 46 130 228 48 196 181 32 9 137 102 235 3 128 124 112 60 63 130 147 96 47 48 32 182 141 154 86 38 123 13 42 140 244 92 239 47 16 174 161 24 128 138 34 148 217 105 166 76 205 230 167 200 34 116 215 20 63 223 55 65 118 145 124 42 230 36 49 47 142 120 47 46 134 3 86 222 60 111 126 159 66 137 66 132 196 126 176 75 124 243 69 125 222 219 249 14 45 236 
9 97 77 98 245 51 99 233 19 95 23 202 4 213 139 20 166 199 129 230 90 204 1 210 147 27 15 28 148 109 15 83 199 109 77 191 132 226 240 16 253 8 94 200 59 51 142 198 200 231 41 58 53 116 229 28 10 48 154 41 154 107 33 126 78 34 40 254 31 214 62 223 226 230 239 156 154 169 120 37 243 76 209 63 140 26 244 52 177 58 35 172 4 120 106 245 240 155 228 164 
