P2
# This is an example of a PGM (Portable GrayMap) file
16 8
255
0   32  64  96  128 160 192 224 255 224 192 160 128 96  64  32
32  64  96  128 160 192 224 255 224 192 160 128 96  64  32  0
64  96  128 160 192 224 255 224 192 160 128 96  64  32  0   32
96  128 160 192 224 255 224 192 160 128 96  64  32  0   32  64
128 160 192 224 255 224 192 160 128 96  64  32  0   32  64  96
160 192 224 255 224 192 160 128 96  64  32  0   32  64  96  128
192 224 255 224 192 160 128 96  64  32  0   32  64  96  128 160
224 255 224 192 160 128 96  64  32  0   32  64  96  128 160 192