P2
# This is an example of a PGM file in ASCII
2 2
255
0 255
255 0
