P3
10 10
255
41 112 221 171 191 209 157 158 56 57 240 214 39 184 230 21 52 158 183 150 189 228 102 66 158 36 79 33 197 120
183 155 117 57 61 27 208 190 49 43 148 214 19 166 41 173 160 142 248 19 254 214 90 215 186 41 23 10 251 40
145 141 62 53 163 250 72 48 59 5 181 241 118 109 186 156 49 130 23 226 243 108 159 22 163 21 108 139 186 61
5 97 85 35 245 106 254 34 226 12 27 47 165 5 121 95 144 235 209 17 214 230 64 27 147 21 78 233 229 246
253 109 111 231 200 133 207 131 241 6 204 39 94 231 231 184 26 187 128 91 142 191 167 253 37 204 163 82 173 162
76 127 249 128 30 180 56 152 109 148 170 76 205 185 124 41 117 165 232 45 4 170 89 117 91 247 9 144 171 54
219 255 41 206 58 123 162 143 156 246 255 228 152 50 209 189 206 118 39 37 4 4 220 247 206 151 1 128 168 26
9 103 17 227 61 247 45 135 35 57 70 49 32 185 6 144 207 125 226 122 216 187 224 14 175 162 42 68 115 82
29 87 14 233 176 106 76 93 174 54 232 234 146 164 152 244 33 247 17 165 30 220 10 41 129 226 179 247 180 136
90 103 42 106 222 177 251 236 169 2 107 226 123 38 16 72 203 181 248 198 199 249 83 54 54 175 174 138 19 219
