P2
4 4
255
100 150 200 50
100 150 200 50
100 150 200 50
100 150 200 50
