P2
10 10
255
121 218 203 179 87 187 162 157 7 229
115 105 122 147 3 92 122 3 21 69
11 213 88 107 198 116 206 87 130 236
201 106 53 51 176 8 185 230 224 183
253 66 227 74 44 184 252 115 134 32
59 196 178 248 20 144 12 150 55 130
190 56 1 132 98 44 34 79 207 163
141 241 245 133 172 160 14 35 174 13
50 200 11 21 203 112 161 238 189 178
215 161 155 4 85 19 10 250 81 212
