P2
5 5
255
66 246 206 110 171
76 192 46 129 55
40 122 249 204 251
236 150 252 205 84
241 71 163 136 65
