P3
10 10
255
21 53 94
46 139 119
214 80 135
96 238 29
12 113 214
153 131 62
215 210 136
92 173 5
170 86 245
170 14 181
92 233 206
183 235 218
87 210 52
48 244 7
79 29 174
186 56 250
87 151 121
186 143 71
150 137 38
215 174 2
139 82 252
188 250 241
163 116 248
248 87 38
52 80 109
5 243 115
25 162 156
164 137 119
228 34 27
173 22 205
151 238 45
242 7 151
132 6 103
145 166 155
132 123 170
96 195 151
226 58 164
199 161 184
1 71 245
51 69 203
92 184 247
115 39 110
136 197 114
238 240 127
129 25 36
162 8 63
136 19 12
53 0 54
83 235 234
151 253 171
246 82 18
28 23 78
193 13 211
170 134 82
139 41 109
180 216 51
235 179 133
205 254 211
17 175 24
206 146 10
236 200 190
139 5 16
208 229 187
214 197 39
221 234 250
82 83 70
190 98 162
57 14 115
169 42 24
243 49 160
109 248 243
7 238 55
121 178 196
65 78 211
192 124 234
54 80 47
237 8 255
125 240 103
204 147 52
114 242 59
111 43 72
156 179 24
60 133 44
44 149 234
218 41 63
216 71 203
247 184 142
162 116 42
78 94 158
215 123 52
124 103 184
154 122 15
38 217 41
210 9 157
29 36 169
172 234 93
34 102 56
98 188 46
79 31 230
49 132 190
