P2
10 10
255
48 95 63 145 82 249 97 158 167 139
165 34 100 156 139 101 20 253 193 119
101 52 212 55 173 154 66 184 128 19
156 195 232 73 142 52 215 60 249 8
183 175 210 116 172 203 255 155 40 207
84 164 110 27 51 177 144 4 227 24
60 66 55 232 232 133 27 168 176 102
193 207 0 134 136 57 205 238 205 215
114 180 251 86 26 141 109 246 226 34
35 162 254 179 125 178 4 23 219 97
