P2
3 3
255
100 150 200
50 75 125
25 175 230
