P3
# This is a PNM file with textual representation
3 2
255
255 0 0   0 255 0   0 0 255
255 255 255 255 255 0 255 0 255