P2
93 1
121
56 46 32 87 105 100 101 108 121 32 83 117 112 112 111 114 116 101 100 58 32 80 78 77 32 102 105 108 101 115 32 97 114 101 32 115 117 112 112 111 114 116 101 100 32 98 121 32 109 97 110 121 32 105 109 97 103 101 32 112 114 111 99 101 115 115 105 110 103 32 115 111 102 116 119 97 114 101 32 97 110 100 32 108 105 98 114 97 114 105 101 115 46