P3
# This is a PPM file
4 4
255
255 0 0 0 255 0 0 0 255 255 0 0
0 255 0 255 0 0 0 255 0 255 0 0
255 0 0 0 255 0 0 0 255 255 0 0
0 255 0 255 0 0 0 255 0 255 0 0
