P2
# This is a PGM example
5 5
255
255 100 255 100 255
100 255 100 255 100
255 100 255 100 255
100 255 100 255 100
255 100 255 100 255