P3
# This is a PPM example
10 10
255
0 0 0 0 25 12 0 50 24 0 75 36 0 100 48 0 125 60 0 150 72 0 175 84 0 200 96 0 225 108
25 0 12 25 25 24 25 50 36 25 75 48 25 100 60 25 125 72 25 150 84 25 175 96 25 200 108 25 225 120
50 0 24 50 25 36 50 50 48 50 75 60 50 100 72 50 125 84 50 150 96 50 175 108 50 200 120 50 225 132
75 0 36 75 25 48 75 50 60 75 75 72 75 100 84 75 125 96 75 150 108 75 175 120 75 200 132 75 225 144
100 0 48 100 25 60 100 50 72 100 75 84 100 100 96 100 125 108 100 150 120 100 175 132 100 200 144 100 225 156
125 0 60 125 25 72 125 50 84 125 75 96 125 100 108 125 125 120 125 150 132 125 175 144 125 200 156 125 225 168
150 0 72 150 25 84 150 50 96 150 75 108 150 100 120 150 125 132 150 150 144 150 175 156 150 200 168 150 225 180
175 0 84 175 25 96 175 50 108 175 75 120 175 100 132 175 125 144 175 150 156 175 175 168 175 200 180 175 225 192
200 0 96 200 25 108 200 50 120 200 75 132 200 100 144 200 125 156 200 150 168 200 175 180 200 200 192 200 225 204
225 0 108 225 25 120 225 50 132 225 75 144 225 100 156 225 125 168 225 150 180 225 175 192 225 200 204 225 225 216