P1
# This is a PBM example
10 10
0 1 0 1 0 1 0 1 0 1 
1 0 1 0 1 0 1 0 1 0 
0 1 0 1 0 1 0 1 0 1 
1 0 1 0 1 0 1 0 1 0 
0 1 0 1 0 1 0 1 0 1 
1 0 1 0 1 0 1 0 1 0 
0 1 0 1 0 1 0 1 0 1 
1 0 1 0 1 0 1 0 1 0 
0 1 0 1 0 1 0 1 0 1 
1 0 1 0 1 0 1 0 1 0 