P2
# This is an example of a PGM file in ASCII
5 5
255
0 64 128 192 255
255 192 128 64 0
0 64 128 192 255
255 192 128 64 0
0 64 128 192 255
