P1
# This is a PBM example
5 4
1 0 1 0 1
0 1 0 1 0
1 0 1 0 1
0 1 0 1 0