P2
# This is a PGM example
5 4
255
0 50 100 150 200
200 150 100 50 0
0 50 100 150 200
200 150 100 50 0