P2
5 3
255
100 150 200 150 100
150 200 250 200 150
100 150 200 150 100
