P2
# This is a PGM file
4 4
255
0 255 0 255
255 100 255 100
0 255 0 255
255 100 255 100
