P3
# This is a PPM example
5 4
255
255 0 0
0 255 0
0 0 255
255 255 0
255 255 255
255 255 255
255 255 0
0 0 255
0 255 0
255 0 0
255 0 0
0 255 0
0 0 255
255 255 0
255 255 255
255 255 255
255 255 0
0 0 255
0 255 0
255 0 0