P2
10 10
255
0 25 50 75 100 125 150 175 200 225
250 19 44 69 94 119 144 169 194 219
244 13 38 63 88 113 138 163 188 213
238 7 32 57 82 107 132 157 182 207
232 1 26 51 76 101 126 151 176 201
226 251 20 45 70 95 120 145 170 195
220 245 14 39 64 89 114 139 164 189
214 239 8 33 58 83 108 133 158 183
208 233 2 27 52 77 102 127 152 177
202 227 252 21 46 71 96 121 146 171