P2
10 10
255
0 0 0 0 0 0 0 0 0 0
25 25 25 25 25 25 25 25 25 25
51 51 51 51 51 51 51 51 51 51
76 76 76 76 76 76 76 76 76 76
102 102 102 102 102 102 102 102 102 102
127 127 127 127 127 127 127 127 127 127
153 153 153 153 153 153 153 153 153 153
178 178 178 178 178 178 178 178 178 178
204 204 204 204 204 204 204 204 204 204
229 229 229 229 229 229 229 229 229 229