P2
# This is a PGM file
2 2
255
255 0
120 135