P1
# This is a simple example of a PBM file showing a cross (+)
5 5
0 0 0 0 0
0 0 1 0 0
0 1 1 1 0
0 0 1 0 0
0 0 0 0 0