P3
# This is a PPM file
5 5
255
0 0 0 0 10 20 0 20 40 0 30 60 0 40 80 
50 0 20 50 10 40 50 20 60 50 30 80 50 40 100 
100 0 40 100 10 60 100 20 80 100 30 100 100 40 120 
150 0 60 150 10 80 150 20 100 150 30 120 150 40 140 
200 0 80 200 10 100 200 20 120 200 30 140 200 40 160 
