P2
5 5
255
0 123 255 123 0
123 255 255 255 123
255 255 255 255 255
123 255 255 255 123
0 123 255 123 0
