P3
# Compatibility: PNM files are widely supported across different platforms and software applications.
2 2
255
255 0 0
0 255 0
0 0 255
255 255 0
