P2
# This is a PGM file
10 10
255
11 221 100 253 104 119 212 198 3 73
191 48 175 29 187 193 147 75 15 57
203 136 66 62 235 239 248 47 178 59
181 52 187 66 104 252 215 208 209 199
244 23 228 20 187 63 128 41 245 48
248 154 137 228 193 17 181 155 247 5
113 180 115 35 239 100 160 102 206 88
86 8 175 245 254 3 86 209 134 223
58 202 129 111 221 250 17 177 28 111
184 84 206 139 99 151 26 238 217 213
