P2
5 5
255
117 184 202 24 198
92 114 145 181 114
234 202 38 84 62
43 172 66 74 215
166 153 72 110 8
