P3
5 5
255
186 7 149 73 65 89 168 7 176 174 239 105 179 20 82
174 37 210 71 46 51 169 164 69 183 198 122 149 157 233
242 60 233 81 166 106 172 21 211 203 245 182 202 183 217
4 105 13 192 237 193 182 183 1 143 69 51 17 89 254
69 111 27 176 103 193 151 18 124 198 185 47 182 21 247
