P2
# This is a PGM file
3 2
255
100 50 150
200 75 25