P1
# This is a PBM file
3 2
1 0 1
0 1 0