P3
# This is a PPM file
10 10
255
235 100 221 194 164 25 57 215 113 1 175 193 210 12 164 200 57 192 146 93 102 193 106 168 128 182 78 167 111 26 
67 216 87 73 63 98 86 202 17 233 251 83 135 136 44 45 125 111 12 97 187 28 86 200 158 27 211 248 29 91 
100 1 247 60 98 84 93 144 239 127 103 103 9 114 21 161 81 15 251 180 162 42 102 62 119 172 176 58 230 114 
156 213 53 144 242 27 5 182 49 50 58 203 93 23 48 79 91 221 71 98 1 248 217 227 41 3 31 224 119 131 
54 32 133 23 154 10 105 153 166 28 169 33 75 208 36 46 255 177 189 227 99 17 89 1 104 244 228 253 78 228 
135 83 162 59 26 237 224 23 130 236 73 137 134 95 44 162 171 194 72 212 5 15 176 89 139 100 210 206 239 204 
3 209 229 253 15 190 48 210 94 160 69 122 32 199 231 143 114 72 136 98 73 177 93 80 93 80 144 102 84 70 
161 105 233 14 29 224 244 148 67 6 222 121 87 228 41 243 26 97 138 92 99 52 52 77 113 50 210 39 54 45 
210 103 175 163 193 92 41 144 130 159 70 198 49 4 133 224 249 16 51 218 2 148 241 56 119 181 142 223 145 47 
103 176 22 112 30 40 52 27 226 145 85 221 191 164 210 68 138 254 78 166 119 36 6 145 230 131 20 150 32 245 
