P2
# This is a PGM file
3 2
255
100 150 200
50 75 125