P3
# This is a P3 PNM file in ASCII format
3 2
255
255 0 0 0 255 0 0 0 255
0 255 0 255 0 255 255 255 255
