P2
4 4
255
0 64 128 192
64 128 192 0
128 192 0 64
192 0 64 128
